<?xml version="1.0" encoding="utf-8"?>
<!-- Generator: Adobe Illustrator 15.0.0, SVG Export Plug-In . SVG Version: 6.00 Build 0)  -->
<!DOCTYPE svg PUBLIC "-//W3C//DTD SVG 1.1//EN" "http://www.w3.org/Graphics/SVG/1.1/DTD/svg11.dtd">
<svg version="1.1" id="Layer_1" xmlns="http://www.w3.org/2000/svg" xmlns:xlink="http://www.w3.org/1999/xlink" x="0px" y="0px"
	 width="50px" height="50px" viewBox="0 0 50 50" enable-background="new 0 0 50 50" xml:space="preserve">
<path fill="#2B343E" d="M28.557,25L48.514,5.042c0.475-0.475,0.736-1.106,0.736-1.778c0-0.672-0.262-1.303-0.736-1.777
	c-0.476-0.475-1.105-0.736-1.777-0.736s-1.303,0.261-1.777,0.736L25,21.444L5.042,1.485c-0.948-0.95-2.606-0.95-3.555,0
	C1.012,1.96,0.75,2.591,0.75,3.264c0,0.672,0.261,1.303,0.736,1.777L21.445,25L1.487,44.957c-0.475,0.477-0.737,1.107-0.737,1.777
	c0,0.672,0.262,1.305,0.737,1.777c0.475,0.477,1.106,0.736,1.777,0.736c0.671,0,1.303-0.262,1.777-0.736L25,28.557l19.958,19.957
	c0.476,0.475,1.106,0.736,1.776,0.736c0.673,0,1.304-0.262,1.777-0.736c0.477-0.477,0.737-1.105,0.737-1.777
	s-0.263-1.303-0.737-1.777L28.557,25z"/>
</svg>
