<?xml version="1.0" encoding="utf-8"?>
<!-- Generator: Adobe Illustrator 15.0.0, SVG Export Plug-In . SVG Version: 6.00 Build 0)  -->
<!DOCTYPE svg PUBLIC "-//W3C//DTD SVG 1.1//EN" "http://www.w3.org/Graphics/SVG/1.1/DTD/svg11.dtd">
<svg version="1.1" id="Layer_1" xmlns="http://www.w3.org/2000/svg" xmlns:xlink="http://www.w3.org/1999/xlink" x="0px" y="0px"
	 width="42px" height="42px" viewBox="0 0 42 42" enable-background="new 0 0 42 42" xml:space="preserve">
<path d="M21,0C9.402,0,0,9.402,0,21c0,11.598,9.402,21,21,21c11.599,0,21-9.402,21-21C42,9.402,32.599,0,21,0z M27.656,22.385
	L17.38,32.661c-0.4,0.397-0.93,0.616-1.492,0.616s-1.092-0.219-1.491-0.615c-0.82-0.824-0.82-2.162-0.002-2.984L23.057,21
	l-8.662-8.677c-0.819-0.822-0.819-2.161,0-2.983c0.802-0.797,2.187-0.795,2.984-0.002l10.275,10.275
	C28.412,20.378,28.412,21.621,27.656,22.385z"/>
</svg>
