<?xml version="1.0" encoding="utf-8"?>
<!-- Generator: Adobe Illustrator 15.0.0, SVG Export Plug-In . SVG Version: 6.00 Build 0)  -->
<!DOCTYPE svg PUBLIC "-//W3C//DTD SVG 1.1//EN" "http://www.w3.org/Graphics/SVG/1.1/DTD/svg11.dtd">
<svg version="1.1" id="Layer_1" xmlns="http://www.w3.org/2000/svg" xmlns:xlink="http://www.w3.org/1999/xlink" x="0px" y="0px"
	 width="72px" height="60px" viewBox="0 0 72 60" enable-background="new 0 0 72 60" xml:space="preserve">
<path fill="#020202" d="M63.265,43.535c-2.489-2.556-9.563-7.348-14.198-7.348c-1.073,0-2.012,0.238-2.779,0.734
	c-2.267,1.448-4.073,2.573-4.942,2.573c-0.477,0-0.989-0.427-2.113-1.397l-0.188-0.171c-3.118-2.709-3.782-3.409-4.993-4.67
	l-0.307-0.326c-0.222-0.221-0.409-0.426-0.596-0.613c-1.057-1.093-1.824-1.876-4.535-4.944l-0.118-0.136
	c-1.296-1.466-2.147-2.42-2.2-3.121c-0.051-0.683,0.545-1.789,2.063-3.852c1.842-2.488,1.909-5.558,0.222-9.119
	c-1.347-2.813-3.545-5.505-5.489-7.876l-0.17-0.205C21.248,1.022,19.305,0,17.139,0c-2.402,0-4.398,1.296-5.454,1.977
	c-0.085,0.052-0.17,0.12-0.256,0.172C9.06,3.648,7.338,5.71,6.691,7.807c-0.971,3.153-1.62,7.245,3.034,15.751
	c4.022,7.363,7.671,12.305,13.466,18.256c5.454,5.589,7.875,7.396,13.295,11.316C42.518,57.494,48.314,60,52.371,60
	c3.769,0,6.732,0,10.96-5.095C67.763,49.551,65.922,46.278,63.265,43.535z"/>
</svg>
