<?xml version="1.0" encoding="utf-8"?>
<!-- Generator: Adobe Illustrator 15.0.0, SVG Export Plug-In . SVG Version: 6.00 Build 0)  -->
<!DOCTYPE svg PUBLIC "-//W3C//DTD SVG 1.1//EN" "http://www.w3.org/Graphics/SVG/1.1/DTD/svg11.dtd">
<svg version="1.1" id="Layer_1" xmlns="http://www.w3.org/2000/svg" xmlns:xlink="http://www.w3.org/1999/xlink" x="0px" y="0px"
	 width="72px" height="60px" viewBox="0 0 72 60" enable-background="new 0 0 72 60" xml:space="preserve">
<g id="Page-1">
	<g id="Core" transform="translate(-128.000000, -86.000000)">
		<g id="check-circle-outline" transform="translate(128.000000, 86.000000)">
			<path id="Shape" fill="#010101" d="M23.7,24.3L19.5,28.5l13.5,13.5L63.001,12l-4.202-4.2L33,33.6L23.7,24.3L23.7,24.3z M60,30
				c0,13.202-10.798,24-24,24c-13.2,0-24-10.798-24-24C12,16.8,22.8,6,36,6c2.398,0,4.501,0.3,6.601,0.899L47.4,2.1
				C43.799,0.899,39.9,0,36,0C19.5,0,6,13.5,6,30c0,16.5,13.5,30,30,30c16.5,0,30-13.5,30-30H60L60,30z"/>
		</g>
	</g>
</g>
</svg>
