<?xml version="1.0" encoding="utf-8"?>
<!-- Generator: Adobe Illustrator 15.0.0, SVG Export Plug-In . SVG Version: 6.00 Build 0)  -->
<!DOCTYPE svg PUBLIC "-//W3C//DTD SVG 1.1//EN" "http://www.w3.org/Graphics/SVG/1.1/DTD/svg11.dtd">
<svg version="1.1" id="Layer_1" xmlns="http://www.w3.org/2000/svg" xmlns:xlink="http://www.w3.org/1999/xlink" x="0px" y="0px"
	 width="60px" height="60px" viewBox="0 0 60 60" enable-background="new 0 0 60 60" xml:space="preserve">
<path d="M30,0C15.158,0,3.083,12.075,3.083,26.917v6.606c0,6.45,5.052,11.503,11.502,11.503c1.586,0,2.694-1.108,2.694-2.694V24.715
	c0-1.586-1.108-2.694-2.694-2.694c-2.011,0-3.982,0.576-5.762,1.674C10.395,13.345,19.495,5.388,30,5.388
	c10.708,0,19.633,7.798,21.181,18.31c-1.78-1.1-3.753-1.676-5.766-1.676c-1.587,0-2.694,1.108-2.694,2.694v17.617
	c0,1.586,1.107,2.694,2.694,2.694c0.668,0,1.737-0.057,2.788-0.354c-2.286,3.593-5.519,6.459-9.263,8.194
	c-0.723-2.724-3.098-4.641-5.857-4.641c-3.131,0-5.776,2.646-5.776,5.776c0,1.756,0.786,3.419,2.166,4.567
	c1.219,0.976,2.436,1.43,3.831,1.43h0.915l0.033-0.005c12.921-1.813,22.665-13.194,22.665-26.472v-6.606
	C56.917,12.075,44.842,0,30,0z"/>
</svg>
