<?xml version="1.0" encoding="utf-8"?>
<!-- Generator: Adobe Illustrator 15.0.0, SVG Export Plug-In . SVG Version: 6.00 Build 0)  -->
<!DOCTYPE svg PUBLIC "-//W3C//DTD SVG 1.1//EN" "http://www.w3.org/Graphics/SVG/1.1/DTD/svg11.dtd">
<svg version="1.1" id="Layer_1" xmlns="http://www.w3.org/2000/svg" xmlns:xlink="http://www.w3.org/1999/xlink" x="0px" y="0px"
	 width="60px" height="60px" viewBox="0 0 60 60" enable-background="new 0 0 60 60" xml:space="preserve">
<g>
	<path fill="#010101" d="M30,39.23c5.735,0,10.385-4.648,10.385-10.384V10.385C40.385,4.648,35.735,0,30,0
		c-5.736,0-10.385,4.648-10.385,10.385v18.461C19.615,34.582,24.264,39.23,30,39.23z M25.385,10.385c0-2.545,2.07-4.615,4.615-4.615
		c2.546,0,4.615,2.07,4.615,4.615v18.461c0,2.545-2.069,4.616-4.615,4.616c-2.545,0-4.615-2.07-4.615-4.616V10.385z"/>
	<path fill="#010101" d="M51.923,28.846h-5.769C46.154,37.755,38.908,45,30,45s-16.154-7.245-16.154-16.154H8.077
		c0,11.108,8.313,20.292,19.038,21.71v3.674h-9.808V60h25.385v-5.77h-9.808v-3.674C43.61,49.138,51.923,39.954,51.923,28.846z"/>
</g>
</svg>
