<?xml version="1.0" encoding="utf-8"?>
<!-- Generator: Adobe Illustrator 15.0.0, SVG Export Plug-In . SVG Version: 6.00 Build 0)  -->
<!DOCTYPE svg PUBLIC "-//W3C//DTD SVG 1.1//EN" "http://www.w3.org/Graphics/SVG/1.1/DTD/svg11.dtd">
<svg version="1.1" id="Layer_1" xmlns="http://www.w3.org/2000/svg" xmlns:xlink="http://www.w3.org/1999/xlink" x="0px" y="0px"
	 width="72px" height="60px" viewBox="0 0 72 60" enable-background="new 0 0 72 60" xml:space="preserve">
<g id="icons">
	<path id="email" fill="#020202" d="M60,3H12C5.4,3,0,8.4,0,15v30C0,51.6,5.4,57,12,57h48C66.6,57,72,51.6,72,45V15
		C72,8.4,66.6,3,60,3z M64.801,20.4l-23.7,15.901C39.6,37.199,37.801,37.8,36,37.8c-1.8,0-3.6-0.601-5.1-1.499L7.2,20.4
		c-1.201-0.9-1.5-2.7-0.601-4.201c0.9-1.2,2.7-1.499,4.201-0.6l23.701,15.9c0.9,0.601,2.4,0.601,3.3,0L61.5,15.6
		c1.5-0.899,3.301-0.6,4.199,0.9C66.3,17.7,66,19.5,64.801,20.4z"/>
</g>
</svg>
