<?xml version="1.0" encoding="utf-8"?>
<!-- Generator: Adobe Illustrator 15.0.0, SVG Export Plug-In . SVG Version: 6.00 Build 0)  -->
<!DOCTYPE svg PUBLIC "-//W3C//DTD SVG 1.1//EN" "http://www.w3.org/Graphics/SVG/1.1/DTD/svg11.dtd">
<svg version="1.1" id="Layer_1" xmlns="http://www.w3.org/2000/svg" xmlns:xlink="http://www.w3.org/1999/xlink" x="0px" y="0px"
	 width="60px" height="60px" viewBox="0 0 60 60" enable-background="new 0 0 60 60" xml:space="preserve">
<g>
	<path fill="#010101" d="M0,26.175v2.175c0,5.374,4.158,9.786,9.53,10.171v15.288c0,1.086,0.832,1.918,1.92,1.918h6.78
		c1.087,0,1.918-0.832,1.918-1.918V38.584h1.088V15.941H10.234C4.605,15.941,0,20.546,0,26.175z"/>
	<path fill="#010101" d="M59.167,4.619c-0.511-0.384-1.213-0.448-1.79-0.192L25.778,17.86v18.741l31.599,13.433
		c0.96,0.385,2.111-0.063,2.494-1.022C60,48.754,60,48.498,60,48.242V6.218C60,5.579,59.68,5.002,59.167,4.619z"/>
</g>
</svg>
