<?xml version="1.0" encoding="utf-8"?>
<!-- Generator: Adobe Illustrator 15.0.0, SVG Export Plug-In . SVG Version: 6.00 Build 0)  -->
<!DOCTYPE svg PUBLIC "-//W3C//DTD SVG 1.1//EN" "http://www.w3.org/Graphics/SVG/1.1/DTD/svg11.dtd">
<svg version="1.1" id="Layer_1" xmlns="http://www.w3.org/2000/svg" xmlns:xlink="http://www.w3.org/1999/xlink" x="0px" y="0px"
	 width="60px" height="60px" viewBox="0 0 60 60" enable-background="new 0 0 60 60" xml:space="preserve">
<g>
	<path fill="#010101" d="M49.355,7.684h-2.885V5.806c0-1.587-1.297-2.903-2.903-2.903c-1.605,0-2.903,1.316-2.903,2.903v1.878
		h-7.761V5.806c0-1.587-1.296-2.903-2.903-2.903c-1.606,0-2.903,1.316-2.903,2.903v1.878h-7.761V5.806
		c0-1.587-1.297-2.903-2.903-2.903c-1.607,0-2.903,1.316-2.903,2.903v1.878h-2.884C4.781,7.684,0,12.445,0,18.329v28.122
		c0,5.866,4.781,10.646,10.645,10.646h38.71C55.22,57.097,60,52.317,60,46.451V18.329C60,12.445,55.22,7.684,49.355,7.684z
		 M54.194,21.522H5.806v-3.193c0-2.671,2.168-4.839,4.839-4.839h2.884v1.761c0,1.606,1.296,2.903,2.903,2.903
		c1.606,0,2.903-1.297,2.903-2.903V13.49h7.761v1.761c0,1.606,1.297,2.903,2.903,2.903c1.607,0,2.903-1.297,2.903-2.903V13.49h7.761
		v1.761c0,1.606,1.298,2.903,2.903,2.903c1.606,0,2.903-1.297,2.903-2.903V13.49h2.885c2.671,0,4.839,2.168,4.839,4.839V21.522z"/>
</g>
</svg>
