<?xml version="1.0" encoding="utf-8"?>
<!-- Generator: Adobe Illustrator 15.0.0, SVG Export Plug-In . SVG Version: 6.00 Build 0)  -->
<!DOCTYPE svg PUBLIC "-//W3C//DTD SVG 1.1//EN" "http://www.w3.org/Graphics/SVG/1.1/DTD/svg11.dtd">
<svg version="1.1" id="Layer_1" xmlns="http://www.w3.org/2000/svg" xmlns:xlink="http://www.w3.org/1999/xlink" x="0px" y="0px"
	 width="72px" height="60px" viewBox="0 0 72 60" enable-background="new 0 0 72 60" xml:space="preserve">
<g>
	<path fill="#010101" d="M66.718,43.207H25.096c-2.914,0-5.283,2.369-5.283,5.285c0,2.914,2.369,5.283,5.283,5.283h41.622
		c2.914,0,5.282-2.369,5.282-5.283C72,45.576,69.632,43.207,66.718,43.207z"/>
	<path fill="#010101" d="M66.718,24.717H25.096c-2.914,0-5.283,2.369-5.283,5.283c0,2.916,2.369,5.283,5.283,5.283h41.622
		C69.632,35.283,72,32.916,72,30C72,27.086,69.632,24.717,66.718,24.717z"/>
	<path fill="#010101" d="M66.718,6.226H25.096c-2.914,0-5.283,2.369-5.283,5.283c0,2.913,2.369,5.282,5.283,5.282h41.622
		c2.914,0,5.282-2.369,5.282-5.282C72,8.595,69.632,6.226,66.718,6.226z"/>
	<circle fill="#010101" cx="6.604" cy="48.492" r="6.604"/>
	<circle fill="#010101" cx="6.604" cy="30" r="6.604"/>
	<circle fill="#010101" cx="6.604" cy="11.508" r="6.604"/>
</g>
</svg>
