<?xml version="1.0" encoding="utf-8"?>
<!-- Generator: Adobe Illustrator 15.0.0, SVG Export Plug-In . SVG Version: 6.00 Build 0)  -->
<!DOCTYPE svg PUBLIC "-//W3C//DTD SVG 1.1//EN" "http://www.w3.org/Graphics/SVG/1.1/DTD/svg11.dtd">
<svg version="1.1" id="Layer_1" xmlns="http://www.w3.org/2000/svg" xmlns:xlink="http://www.w3.org/1999/xlink" x="0px" y="0px"
	 width="48px" height="48px" viewBox="0 0 48 48" enable-background="new 0 0 48 48" xml:space="preserve">
<g id="Page-1">
	<g id="Core" transform="translate(-380.000000, -44.000000)">
		<g id="cancel" transform="translate(380.000000, 44.000000)">
			<path id="Shape" fill="#C1BFBF" d="M24,0.753c-12.785,0-23.246,10.46-23.246,23.246c0,12.787,10.46,23.248,23.246,23.248
				c12.786,0,23.247-10.461,23.247-23.248C47.246,11.213,36.785,0.753,24,0.753L24,0.753z M35.623,32.368l-3.254,3.254L24,27.255
				l-8.369,8.367l-3.254-3.254l8.369-8.37l-8.369-8.369l3.254-3.254L24,20.744l8.37-8.369l3.254,3.254l-8.367,8.369L35.623,32.368
				L35.623,32.368z"/>
		</g>
	</g>
</g>
<rect fill="none" width="48" height="48"/>
</svg>
