<?xml version="1.0" encoding="utf-8"?>
<!-- Generator: Adobe Illustrator 15.0.0, SVG Export Plug-In . SVG Version: 6.00 Build 0)  -->
<!DOCTYPE svg PUBLIC "-//W3C//DTD SVG 1.1//EN" "http://www.w3.org/Graphics/SVG/1.1/DTD/svg11.dtd">
<svg version="1.1" id="Layer_1" xmlns="http://www.w3.org/2000/svg" xmlns:xlink="http://www.w3.org/1999/xlink" x="0px" y="0px"
	 width="72px" height="72px" viewBox="0 0 72 72" enable-background="new 0 0 72 72" xml:space="preserve">
<g>
	<path fill="#212121" d="M70.637,31.999l-9.688-7.471V12.69c0-1.859-1.508-3.366-3.366-3.366c-1.859,0-3.366,1.507-3.366,3.366
		v6.646L38.096,6.903c-0.104-0.081-0.219-0.138-0.329-0.204c-0.046-0.028-0.089-0.059-0.136-0.085
		c-0.143-0.077-0.288-0.138-0.437-0.193c-0.063-0.024-0.123-0.05-0.187-0.069c-0.136-0.042-0.272-0.069-0.41-0.093
		c-0.086-0.016-0.169-0.032-0.257-0.042C36.227,6.206,36.114,6.206,36,6.206c-0.114,0-0.227,0-0.341,0.011
		c-0.087,0.009-0.171,0.026-0.257,0.041c-0.138,0.024-0.274,0.052-0.41,0.094c-0.063,0.02-0.124,0.045-0.185,0.068
		c-0.149,0.056-0.296,0.117-0.439,0.194C34.323,6.64,34.28,6.67,34.235,6.698c-0.111,0.067-0.226,0.125-0.331,0.206L1.363,31.999
		c-1.495,1.152-1.772,3.299-0.619,4.793l0.121,0.157c1.153,1.494,3.299,1.772,4.794,0.619L36,14.169l30.342,23.399
		c1.494,1.153,3.641,0.875,4.793-0.619l0.121-0.157C72.408,35.298,72.131,33.151,70.637,31.999z"/>
	<path fill="#212121" d="M35.899,21.181L9.373,41.178v21.198c0,1.888,1.529,3.418,3.417,3.418h16.277V49.317
		c0-1.888,1.53-3.418,3.418-3.418h7.03c1.888,0,3.418,1.53,3.418,3.418v16.477H59.21c1.888,0,3.417-1.53,3.417-3.418V41.178
		L35.899,21.181z"/>
</g>
</svg>
