<?xml version="1.0" encoding="utf-8"?>
<!-- Generator: Adobe Illustrator 15.0.0, SVG Export Plug-In . SVG Version: 6.00 Build 0)  -->
<!DOCTYPE svg PUBLIC "-//W3C//DTD SVG 1.1//EN" "http://www.w3.org/Graphics/SVG/1.1/DTD/svg11.dtd">
<svg version="1.1" id="Layer_1" xmlns="http://www.w3.org/2000/svg" xmlns:xlink="http://www.w3.org/1999/xlink" x="0px" y="0px"
	 width="54px" height="54px" viewBox="0 0 54 54" enable-background="new 0 0 54 54" xml:space="preserve">
<g>
	<g>
		<polygon points="45.446,29.012 45.446,49.645 4.539,49.645 4.539,8.737 25.171,8.737 25.171,4.432 0.232,4.432 0.232,53.951 
			49.752,53.951 49.752,29.012 		"/>
	</g>
	<g>
		<path d="M49.076,16.452l3.921-3.921c1.027-1.03,1.027-2.697,0-3.724L45.01,0.82c-1.028-1.028-2.695-1.028-3.723,0l-3.921,3.921
			L49.076,16.452z"/>
		<path d="M34.515,7.593l-13.11,13.108c-1.027,1.027-3.084,13.673-3.084,13.673s-0.135,0.571,0.137,0.842
			c0.271,0.271,0.843,0.137,0.843,0.137s12.788-1.914,13.815-2.941l13.108-13.109L34.515,7.593z"/>
	</g>
</g>
</svg>
