<?xml version="1.0" encoding="utf-8"?>
<!-- Generator: Adobe Illustrator 15.0.0, SVG Export Plug-In . SVG Version: 6.00 Build 0)  -->
<!DOCTYPE svg PUBLIC "-//W3C//DTD SVG 1.1//EN" "http://www.w3.org/Graphics/SVG/1.1/DTD/svg11.dtd">
<svg version="1.1" id="Layer_1" xmlns="http://www.w3.org/2000/svg" xmlns:xlink="http://www.w3.org/1999/xlink" x="0px" y="0px"
	 width="48px" height="48px" viewBox="0 0 48 48" enable-background="new 0 0 48 48" xml:space="preserve">
<rect x="0" y="0" fill="none" width="48" height="48"/>
<g>
	<path fill="#212121" d="M8.463,15.685c0,8.544,6.99,15.534,15.535,15.534c8.544,0,15.535-6.99,15.535-15.534
		c0-8.545-6.99-15.535-15.535-15.535C15.455,0.15,8.463,7.14,8.463,15.685z M35.879,15.685c0,6.533-5.346,11.879-11.879,11.879
		c-6.534,0-11.88-5.346-11.88-11.879c0-6.534,5.346-11.88,11.88-11.88C30.533,3.805,35.879,9.151,35.879,15.685z"/>
	<path fill="#212121" d="M5.906,47.85c4.843-4.842,11.239-7.492,18.094-7.492c6.854,0,13.25,2.65,18.094,7.492l2.604-2.604
		C39.17,39.764,31.813,36.703,24,36.703c-7.813,0-15.17,3.061-20.698,8.543L5.906,47.85z"/>
</g>
</svg>
