<?xml version="1.0" encoding="utf-8"?>
<!-- Generator: Adobe Illustrator 15.0.0, SVG Export Plug-In . SVG Version: 6.00 Build 0)  -->
<!DOCTYPE svg PUBLIC "-//W3C//DTD SVG 1.1//EN" "http://www.w3.org/Graphics/SVG/1.1/DTD/svg11.dtd">
<svg version="1.1" id="Layer_1" xmlns="http://www.w3.org/2000/svg" xmlns:xlink="http://www.w3.org/1999/xlink" x="0px" y="0px"
	 width="72px" height="72px" viewBox="0 0 72 72" enable-background="new 0 0 72 72" xml:space="preserve">
<path fill="#212121" d="M67.976,41.602l-2.616-2.808c0.004-0.027,0.003-0.048-0.001-0.084c0.057-0.629,0.094-1.26,0.119-1.891
	c0.007-0.181-0.001-0.378,0.003-0.559c0.005-0.484-0.003-0.953-0.025-1.42c-0.008-0.205-0.02-0.396-0.032-0.599
	c-0.013-0.313-0.026-0.621-0.05-0.947l2.623-2.79c1.25-1.332,3.522-3.102,2.826-4.786l-2.873-6.968
	c-0.695-1.688-3.549-1.333-5.376-1.397l-3.827-0.139c-0.293-0.346-0.604-0.675-0.901-1.009c-0.012-0.013-0.027-0.032-0.038-0.05
	c-0.108-0.111-0.198-0.233-0.306-0.344c-0.16-0.176-0.349-0.346-0.515-0.518c-0.243-0.244-0.485-0.491-0.733-0.728
	c-0.407-0.393-0.837-0.763-1.261-1.13c-0.02-0.018-0.046-0.032-0.061-0.045c-0.024-0.022-0.044-0.048-0.067-0.071l-0.125-3.836
	c-0.057-1.816,0.302-4.677-1.374-5.373l-6.972-2.902c-1.678-0.698-3.457,1.574-4.787,2.814l-2.808,2.623
	c-0.63-0.063-1.255-0.096-1.879-0.12c-0.175-0.006-0.351-0.002-0.538-0.002c-0.404-0.002-0.81-0.016-1.224,0
	c-0.524,0.017-1.047,0.049-1.568,0.094c-0.067,0.003-0.133,0.003-0.187,0.008c-0.038,0.007-0.065,0.001-0.104,0.009l-2.792-2.627
	c-1.332-1.244-3.104-3.523-4.787-2.83l-6.969,2.872c-1.686,0.695-1.33,3.558-1.397,5.378l-0.136,3.835
	c-0.041,0.031-0.084,0.075-0.123,0.113c-0.459,0.382-0.909,0.775-1.345,1.187c-0.161,0.158-0.316,0.317-0.475,0.478
	c-0.309,0.303-0.621,0.615-0.918,0.935c-0.153,0.166-0.294,0.333-0.44,0.504c-0.203,0.219-0.4,0.436-0.592,0.666l-3.839,0.117
	c-1.817,0.057-4.678-0.301-5.374,1.376l-2.902,6.969c-0.699,1.678,1.571,3.453,2.811,4.782l2.621,2.808
	c-0.042,0.434-0.061,0.866-0.085,1.307c0,0.041-0.006,0.084-0.005,0.124c-0.035,0.746-0.053,1.49-0.027,2.231
	c0.011,0.325,0.036,0.646,0.056,0.971c0.02,0.264,0.026,0.53,0.05,0.791c-0.001,0.029,0,0.056,0.003,0.076l-2.625,2.799
	c-1.245,1.328-3.525,3.097-2.831,4.78l2.871,6.967c0.696,1.688,3.56,1.336,5.38,1.402l3.833,0.132
	c0.026,0.035,0.056,0.06,0.084,0.099c0.389,0.466,0.796,0.923,1.222,1.38c0.149,0.161,0.307,0.298,0.458,0.457
	c0.313,0.319,0.627,0.63,0.952,0.938c0.161,0.138,0.329,0.284,0.491,0.433c0.227,0.202,0.447,0.404,0.674,0.588l0.117,3.839
	c0.057,1.815-0.298,4.683,1.377,5.379l6.97,2.902c1.678,0.699,3.453-1.572,4.781-2.812l2.809-2.616c0.031,0,0.061-0.004,0.092-0.004
	c0.361,0.039,0.72,0.054,1.079,0.073c0.108,0.009,0.212,0.012,0.314,0.021c0.168,0.006,0.331,0.018,0.492,0.025
	c0.193,0.004,0.385-0.003,0.577-0.001c0.469,0.01,0.938,0.001,1.404-0.021c0.202-0.008,0.41-0.022,0.607-0.034
	c0.316-0.014,0.621-0.026,0.933-0.046l2.796,2.618c1.33,1.253,3.095,3.528,4.778,2.832l6.971-2.872
	c1.686-0.696,1.336-3.553,1.399-5.381l0.135-3.826c0.328-0.273,0.643-0.56,0.948-0.836c0.043-0.051,0.094-0.085,0.139-0.126
	c0.107-0.102,0.222-0.187,0.313-0.283c0.186-0.165,0.347-0.346,0.514-0.511c0.243-0.243,0.499-0.489,0.746-0.745
	c0.354-0.383,0.717-0.784,1.061-1.204c0.041-0.036,0.072-0.068,0.106-0.117c0.027-0.026,0.046-0.041,0.063-0.063l3.835-0.125
	c1.816-0.056,4.683,0.3,5.382-1.376l2.9-6.969C71.491,44.712,69.216,42.933,67.976,41.602z M51.335,35.998
	c0,8.469-6.865,15.333-15.333,15.333s-15.333-6.864-15.333-15.333s6.866-15.333,15.333-15.333S51.335,27.529,51.335,35.998z"/>
</svg>
