<?xml version="1.0" encoding="utf-8"?>
<!-- Generator: Adobe Illustrator 15.0.0, SVG Export Plug-In . SVG Version: 6.00 Build 0)  -->
<!DOCTYPE svg PUBLIC "-//W3C//DTD SVG 1.1//EN" "http://www.w3.org/Graphics/SVG/1.1/DTD/svg11.dtd">
<svg version="1.1" id="Layer_1" xmlns="http://www.w3.org/2000/svg" xmlns:xlink="http://www.w3.org/1999/xlink" x="0px" y="0px"
	 width="50px" height="50px" viewBox="0 0 50 50" enable-background="new 0 0 50 50" xml:space="preserve">
<g>
	<path fill="#2B343E" d="M37.533,0H12.467C6.721,0,2.065,4.657,2.065,10.402v29.195C2.065,45.343,6.721,50,12.467,50h25.066
		c5.746,0,10.401-4.657,10.401-10.402V10.402C47.935,4.657,43.279,0,37.533,0z M43.35,39.598c0,3.207-2.609,5.816-5.815,5.816
		H12.467c-3.207,0-5.815-2.609-5.815-5.816V10.402c0-3.207,2.608-5.816,5.815-5.816h25.066c3.207,0,5.816,2.609,5.816,5.816V39.598
		L43.35,39.598z"/>
	<circle fill="#2B343E" cx="13.609" cy="15.979" r="2.37"/>
	<path fill="#2B343E" d="M38.762,15.979c0,1.31-1.06,2.37-2.37,2.37H20.795c-1.309,0-2.371-1.061-2.371-2.37l0,0
		c0-1.309,1.062-2.37,2.371-2.37h15.597C37.7,13.609,38.762,14.67,38.762,15.979L38.762,15.979z"/>
	<circle fill="#2B343E" cx="13.609" cy="25.21" r="2.37"/>
	<path fill="#2B343E" d="M38.762,25.21c0,1.31-1.06,2.37-2.37,2.37H20.795c-1.309,0-2.371-1.06-2.371-2.37l0,0
		c0-1.308,1.062-2.37,2.371-2.37h15.597C37.7,22.84,38.762,23.902,38.762,25.21L38.762,25.21z"/>
	<path fill="#2B343E" d="M38.762,34.441c0,1.309-1.06,2.37-2.37,2.37H20.795c-1.309,0-2.371-1.06-2.371-2.37l0,0
		c0-1.309,1.062-2.369,2.371-2.369h15.597C37.7,32.072,38.762,33.133,38.762,34.441L38.762,34.441z"/>
</g>
</svg>
