<?xml version="1.0" encoding="utf-8"?>
<!-- Generator: Adobe Illustrator 15.0.0, SVG Export Plug-In . SVG Version: 6.00 Build 0)  -->
<!DOCTYPE svg PUBLIC "-//W3C//DTD SVG 1.1//EN" "http://www.w3.org/Graphics/SVG/1.1/DTD/svg11.dtd">
<svg version="1.1" id="Layer_1" xmlns="http://www.w3.org/2000/svg" xmlns:xlink="http://www.w3.org/1999/xlink" x="0px" y="0px"
	 width="72px" height="72px" viewBox="0 0 72 72" enable-background="new 0 0 72 72" xml:space="preserve">
<g>
	<path fill="#212121" d="M64.137,50.739C59.602,46.905,57,41.301,57,35.364V27c0-10.557-7.842-19.296-18-20.76V3
		c0-1.659-1.344-3-3-3c-1.655,0-3,1.341-3,3v3.24C22.839,7.704,15,16.443,15,27v8.364c0,5.937-2.601,11.542-7.164,15.399
		C6.669,51.762,6,53.214,6,54.75C6,57.646,8.355,60,11.25,60h49.5c2.896,0,5.25-2.354,5.25-5.25
		C66,53.214,65.331,51.762,64.137,50.739z"/>
	<path fill="#212121" d="M36,72c5.433,0,9.979-3.873,11.022-9H24.978C26.022,68.127,30.567,72,36,72z"/>
</g>
</svg>
