<?xml version="1.0" encoding="utf-8"?>
<!-- Generator: Adobe Illustrator 15.0.0, SVG Export Plug-In . SVG Version: 6.00 Build 0)  -->
<!DOCTYPE svg PUBLIC "-//W3C//DTD SVG 1.1//EN" "http://www.w3.org/Graphics/SVG/1.1/DTD/svg11.dtd">
<svg version="1.1" id="Layer_1" xmlns="http://www.w3.org/2000/svg" xmlns:xlink="http://www.w3.org/1999/xlink" x="0px" y="0px"
	 width="72px" height="72px" viewBox="0 0 72 72" enable-background="new 0 0 72 72" xml:space="preserve">
<g>
	<path fill="#212121" d="M65.753,17.405H54.237l-6.892-6.961c0,0-0.035-0.034-0.052-0.034l-0.034-0.034l0,0
		c-1.023-1.024-2.405-1.672-3.975-1.672H28.955c-1.672,0-3.157,0.716-4.198,1.859v0.017l-6.739,6.825H6.248
		c-3.174,0-5.733,2.49-5.733,5.664v34.479c0,3.174,2.559,5.75,5.733,5.75h59.505c3.156,0,5.732-2.576,5.732-5.75V23.068
		C71.485,19.895,68.909,17.405,65.753,17.405z M36,54.682c-8.684,0-15.764-7.098-15.764-15.799c0-8.718,7.08-15.798,15.764-15.798
		c8.701,0,15.763,7.08,15.763,15.798C51.763,47.584,44.701,54.682,36,54.682z M64.679,26.532c-1.313,0-2.389-1.075-2.389-2.406
		s1.075-2.406,2.389-2.406s2.388,1.075,2.388,2.406S65.992,26.532,64.679,26.532z"/>
	<path fill="#212121" d="M36,26.941c-6.585,0-11.908,5.34-11.908,11.942c0,6.585,5.322,11.942,11.908,11.942
		c6.568,0,11.908-5.34,11.908-11.942C47.908,32.281,42.568,26.941,36,26.941z"/>
</g>
</svg>
