<?xml version="1.0" encoding="utf-8"?>
<!-- Generator: Adobe Illustrator 15.0.0, SVG Export Plug-In . SVG Version: 6.00 Build 0)  -->
<!DOCTYPE svg PUBLIC "-//W3C//DTD SVG 1.1//EN" "http://www.w3.org/Graphics/SVG/1.1/DTD/svg11.dtd">
<svg version="1.1" id="Layer_1" xmlns="http://www.w3.org/2000/svg" xmlns:xlink="http://www.w3.org/1999/xlink" x="0px" y="0px"
	 width="72px" height="72px" viewBox="0 0 72 72" enable-background="new 0 0 72 72" xml:space="preserve">
<g>
	<path fill="#292929" d="M42.808,12.249l4.868,7.302C48.696,21.081,50.413,22,52.252,22h13c0.552,0,1,0.449,1,1v35.751
		c0,0.552-0.448,1-1,1H6.749c-0.552,0-1-0.448-1-1V23c0-0.551,0.449-1,1-1h13c1.839,0,3.556-0.919,4.576-2.449l4.868-7.302H42.808
		 M45.751,6.749H26.25l-6.501,9.75h-13c-3.59,0-6.5,2.911-6.5,6.5v35.751c0,3.591,2.911,6.5,6.5,6.5h58.503
		c3.589,0,6.5-2.909,6.5-6.5V23c0-3.589-2.911-6.5-6.5-6.5h-13L45.751,6.749L45.751,6.749z"/>
	<path fill="#292929" d="M36,27.568c5.656,0,10.241,4.585,10.241,10.241c0,5.656-4.585,10.242-10.241,10.242
		c-5.656,0-10.241-4.586-10.241-10.242C25.759,32.153,30.344,27.568,36,27.568 M36,22.068c-8.68,0-15.741,7.061-15.741,15.741
		c0,8.681,7.062,15.742,15.741,15.742s15.741-7.062,15.741-15.742C51.741,29.129,44.68,22.068,36,22.068L36,22.068z"/>
</g>
</svg>
