<?xml version="1.0" encoding="utf-8"?>
<!-- Generator: Adobe Illustrator 15.0.0, SVG Export Plug-In . SVG Version: 6.00 Build 0)  -->
<!DOCTYPE svg PUBLIC "-//W3C//DTD SVG 1.1//EN" "http://www.w3.org/Graphics/SVG/1.1/DTD/svg11.dtd">
<svg version="1.1" id="Layer_1" xmlns="http://www.w3.org/2000/svg" xmlns:xlink="http://www.w3.org/1999/xlink" x="0px" y="0px"
	 width="72px" height="72px" viewBox="0 0 72 72" enable-background="new 0 0 72 72" xml:space="preserve">
<g id="Page-1">
	<g id="Core" transform="translate(-380.000000, -44.000000)">
		<g id="cancel" transform="translate(380.000000, 44.000000)">
			<path id="Shape" fill="#212121" d="M35.999,0.566c-19.487,0-35.432,15.943-35.432,35.432c0,19.49,15.942,35.435,35.432,35.435
				c19.488,0,35.434-15.945,35.434-35.435C71.431,16.51,55.486,0.566,35.999,0.566L35.999,0.566z M53.715,48.755l-4.96,4.96
				L35.999,40.961L23.242,53.715l-4.959-4.96l12.756-12.758L18.283,23.241l4.959-4.96l12.757,12.756l12.758-12.756l4.959,4.96
				L40.963,35.997L53.715,48.755L53.715,48.755z"/>
		</g>
	</g>
</g>
</svg>
