<?xml version="1.0" encoding="utf-8"?>
<!-- Generator: Adobe Illustrator 15.0.0, SVG Export Plug-In . SVG Version: 6.00 Build 0)  -->
<!DOCTYPE svg PUBLIC "-//W3C//DTD SVG 1.1//EN" "http://www.w3.org/Graphics/SVG/1.1/DTD/svg11.dtd">
<svg version="1.1" id="Layer_1" xmlns="http://www.w3.org/2000/svg" xmlns:xlink="http://www.w3.org/1999/xlink" x="0px" y="0px"
	 width="72px" height="72px" viewBox="0 0 72 72" enable-background="new 0 0 72 72" xml:space="preserve">
<path fill="#212121" d="M36,0C16.149,0,0,16.149,0,36c0,19.852,16.149,36,36,36c19.852,0,36-16.148,36-36C72,16.149,55.852,0,36,0z
	 M53.121,54.621C52.536,55.206,51.769,55.5,51,55.5c-0.768,0-1.536-0.294-2.121-0.879l-15-15C33.315,39.061,33,38.298,33,37.5V18
	c0-1.659,1.344-3,3-3s3,1.341,3,3v18.258l14.121,14.121C54.294,51.553,54.294,53.448,53.121,54.621z"/>
</svg>
