<?xml version="1.0" encoding="utf-8"?>
<!-- Generator: Adobe Illustrator 15.0.0, SVG Export Plug-In . SVG Version: 6.00 Build 0)  -->
<!DOCTYPE svg PUBLIC "-//W3C//DTD SVG 1.1//EN" "http://www.w3.org/Graphics/SVG/1.1/DTD/svg11.dtd">
<svg version="1.1" id="Layer_1" xmlns="http://www.w3.org/2000/svg" xmlns:xlink="http://www.w3.org/1999/xlink" x="0px" y="0px"
	 width="72px" height="72px" viewBox="0 0 72 72" enable-background="new 0 0 72 72" xml:space="preserve">
<g>
	<path fill="#292929" d="M59.792,1.122H12.205c-6.11,0-11.083,4.972-11.083,11.083v47.588c0,6.112,4.972,11.086,11.083,11.086h47.59
		c6.11,0,11.083-4.974,11.083-11.086V12.205C70.875,6.094,65.902,1.122,59.792,1.122z M43.843,56.034l11.984-9.987l8.75,7.286
		l-0.005,6.459c0,2.636-2.145,4.781-4.78,4.781H12.205c-2.636,0-4.78-2.146-4.78-4.781v-6.724l14.917-16.576L43.843,56.034z
		 M21.895,27.57L7.425,43.648V12.205c0-2.636,2.144-4.781,4.78-4.781h47.59c2.636,0,4.782,2.145,4.782,4.781v32.931l-8.752-7.29
		l-11.81,9.839L21.895,27.57z"/>
	<path fill="#292929" d="M49.881,11.034c-6.112,0-11.085,4.972-11.085,11.083S43.769,33.2,49.881,33.2
		c6.11,0,11.082-4.972,11.082-11.083S55.991,11.034,49.881,11.034z M49.881,26.902c-2.636,0-4.781-2.146-4.781-4.782
		c0-2.636,2.146-4.78,4.781-4.78c2.635,0,4.779,2.145,4.779,4.78C54.66,24.756,52.516,26.902,49.881,26.902z"/>
</g>
</svg>
