<?xml version="1.0" encoding="utf-8"?>
<!-- Generator: Adobe Illustrator 15.0.0, SVG Export Plug-In . SVG Version: 6.00 Build 0)  -->
<!DOCTYPE svg PUBLIC "-//W3C//DTD SVG 1.1//EN" "http://www.w3.org/Graphics/SVG/1.1/DTD/svg11.dtd">
<svg version="1.1" id="Layer_1" xmlns="http://www.w3.org/2000/svg" xmlns:xlink="http://www.w3.org/1999/xlink" x="0px" y="0px"
	 width="72px" height="72px" viewBox="0 0 72 72" enable-background="new 0 0 72 72" xml:space="preserve">
<g>
	<circle fill="#383A39" cx="36" cy="3.484" r="3.484"/>
	<circle fill="#ECEEEE" cx="36" cy="68.516" r="3.484"/>
	<circle fill="#77807F" cx="19.742" cy="7.781" r="3.484"/>
	<path fill="#F2F4F4" d="M55.277,62.478c0.93,1.626,0.349,3.716-1.277,4.761c-1.626,0.93-3.717,0.349-4.762-1.277
		c-0.929-1.625-0.348-3.716,1.277-4.761C52.143,60.271,54.349,60.852,55.277,62.478z"/>
	<path fill="#9FAAA9" d="M9.522,16.723c1.626,0.929,2.207,3.02,1.277,4.762c-0.929,1.625-3.019,2.206-4.761,1.277
		c-1.625-0.93-2.207-3.02-1.277-4.762S7.897,15.793,9.522,16.723z"/>
	<path fill="#F2F7F7" d="M65.961,49.238c1.626,0.93,2.207,3.02,1.277,4.762c-0.929,1.626-3.02,2.207-4.761,1.277
		c-1.626-0.929-2.206-3.02-1.277-4.762C62.129,48.891,64.219,48.31,65.961,49.238z"/>
	<circle fill="#B2BBBA" cx="3.484" cy="36" r="3.484"/>
	<circle fill="#FFFFFF" cx="68.516" cy="36" r="3.484"/>
	<path fill="#C5CCCB" d="M6.039,49.238c1.626-0.929,3.716-0.348,4.761,1.277c0.929,1.627,0.349,3.717-1.277,4.762
		C7.897,56.207,5.807,55.626,4.761,54C3.716,52.374,4.413,50.283,6.039,49.238z"/>
	<path d="M62.478,16.723c1.626-0.929,3.716-0.349,4.761,1.277c0.93,1.626,0.349,3.717-1.277,4.762
		c-1.625,0.929-3.716,0.348-4.761-1.277C60.271,19.857,60.852,17.651,62.478,16.723z"/>
	<path fill="#D9DDDD" d="M16.723,62.478c0.929-1.626,3.019-2.206,4.761-1.277c1.626,0.929,2.207,3.019,1.277,4.761
		c-0.929,1.626-3.02,2.207-4.761,1.277C16.374,66.193,15.793,64.104,16.723,62.478z"/>
	<path fill="#111111" d="M49.238,6.039c0.93-1.625,3.02-2.207,4.762-1.277c1.626,0.929,2.207,3.02,1.277,4.761
		c-0.929,1.626-3.02,2.207-4.762,1.277C48.891,9.871,48.31,7.781,49.238,6.039z"/>
</g>
</svg>
