<?xml version="1.0" encoding="utf-8"?>
<!-- Generator: Adobe Illustrator 15.0.0, SVG Export Plug-In . SVG Version: 6.00 Build 0)  -->
<!DOCTYPE svg PUBLIC "-//W3C//DTD SVG 1.1//EN" "http://www.w3.org/Graphics/SVG/1.1/DTD/svg11.dtd">
<svg version="1.1" id="Layer_1" xmlns="http://www.w3.org/2000/svg" xmlns:xlink="http://www.w3.org/1999/xlink" x="0px" y="0px"
	 width="72px" height="72px" viewBox="0 0 72 72" enable-background="new 0 0 72 72" xml:space="preserve">
<g>
	<g>
		<path fill="#212121" d="M36,0C21.622,0,9.924,11.697,9.924,26.075c0,17.844,23.335,44.039,24.329,45.146
			c0.933,1.039,2.561,1.038,3.493,0c0.994-1.106,24.33-27.302,24.33-45.146C62.076,11.697,50.379,0,36,0z M36,39.195
			c-7.234,0-13.12-5.886-13.12-13.12c0-7.233,5.886-13.119,13.12-13.119s13.119,5.886,13.119,13.12
			C49.119,33.31,43.234,39.195,36,39.195z"/>
	</g>
</g>
</svg>
