<?xml version="1.0" encoding="utf-8"?>
<!-- Generator: Adobe Illustrator 15.0.0, SVG Export Plug-In . SVG Version: 6.00 Build 0)  -->
<!DOCTYPE svg PUBLIC "-//W3C//DTD SVG 1.1//EN" "http://www.w3.org/Graphics/SVG/1.1/DTD/svg11.dtd">
<svg version="1.1" id="Layer_1" xmlns="http://www.w3.org/2000/svg" xmlns:xlink="http://www.w3.org/1999/xlink" x="0px" y="0px"
	 width="324px" height="324px" viewBox="0 0 324 324" enable-background="new 0 0 324 324" xml:space="preserve">
<g>
	<g opacity="0.2">
		<g>
			<defs>
				<rect id="SVGID_1_" x="139.903" y="232.189" width="28.054" height="28.053"/>
			</defs>
			<clipPath id="SVGID_2_">
				<use xlink:href="#SVGID_1_"  overflow="visible"/>
			</clipPath>
			<path clip-path="url(#SVGID_2_)" fill="#FFFFFF" d="M153.931,260.242c-7.733,0-14.027-6.293-14.027-14.027
				c0-7.733,6.294-14.025,14.027-14.025s14.026,6.292,14.026,14.025C167.957,253.949,161.664,260.242,153.931,260.242
				 M153.931,236.733c-5.229,0-9.483,4.254-9.483,9.481c0,5.229,4.254,9.484,9.483,9.484c5.229,0,9.482-4.255,9.482-9.484
				C163.413,240.987,159.159,236.733,153.931,236.733"/>
		</g>
	</g>
	<path fill="#FAE1D6" d="M138.819,47.919c2.034,7.557,9.809,12.034,17.364,10c7.558-2.034,12.034-9.808,10.002-17.363l-8.092-30.065
		c-2.032-7.556-9.807-12.034-17.363-10c-7.557,2.034-12.034,9.808-10.001,17.363L138.819,47.919z"/>
	<path fill="#F4CEBD" d="M109.485,105.241c0.458,7.811,7.162,13.773,14.973,13.316c7.813-0.458,13.774-7.16,13.317-14.972
		l-1.82-31.082c-0.458-7.812-7.162-13.773-14.975-13.316c-7.812,0.458-13.773,7.162-13.315,14.973L109.485,105.241z"/>
	<path fill="#F4CEBD" d="M91.452,140.93c0.458,7.811,7.161,13.773,14.973,13.315c7.812-0.458,13.774-7.161,13.316-14.972
		l-1.82-31.082c-0.458-7.813-7.161-13.774-14.974-13.316c-7.812,0.457-13.773,7.161-13.315,14.972L91.452,140.93z"/>
	<path fill="#F1B39C" d="M78.339,174.092c2.14,7.527,9.976,11.896,17.502,9.757c7.527-2.139,11.896-9.976,9.757-17.502
		l-8.511-29.949c-2.138-7.528-9.975-11.896-17.502-9.756c-7.527,2.138-11.896,9.975-9.756,17.501L78.339,174.092z"/>
	<g>
		<defs>
			<path id="SVGID_3_" d="M217.999,160.839l-7.982,2.401L85.002,182.527l1.363,11.805l0.612,5.31c0,0,2.211,27.519,10.802,37.825
				c11.163,13.396,20.36,17.884,22.966,18.959l1.705,14.761c9.821-2.744,25.341-6.491,48.769-10.789
				c23.621-4.334,39.29-6.291,49.188-7.156l-1.658-14.37l-0.633-5.468l-0.72-6.251c3.479-4.291,7.923-10.746,13.217-20.441
				c3.893-7.128,10.008-21.189,14.64-32.195l-27.881-14.805C217.575,160.093,217.782,160.471,217.999,160.839"/>
		</defs>
		<use xlink:href="#SVGID_3_"  overflow="visible" fill="#FAE1D6"/>
		<clipPath id="SVGID_4_">
			<use xlink:href="#SVGID_3_"  overflow="visible"/>
		</clipPath>
		
			<rect x="68.69" y="119.797" transform="matrix(0.7231 -0.6908 0.6908 0.7231 -103.0976 173.7331)" clip-path="url(#SVGID_4_)" fill="#FAE1D6" width="192.878" height="191.302"/>
	</g>
	<path fill="#EDEDED" d="M225.258,245.873c0,0-3.423-0.328-12.577,0.602c-8.528,0.865-22.029,2.822-42.381,7.156
		c-20.185,4.299-33.557,8.047-42.02,10.788c-9.229,2.991-12.617,4.785-12.617,4.785l1.419,14.27
		c8.17-2.899,24.85-8.036,55.005-14.455c29.432-6.267,46.129-8.311,54.582-8.959L225.258,245.873z"/>
	<path fill="#EBF0F0" d="M150.137,254.081c-5.986,8.354-17.611,10.271-25.964,4.285l-70.748-50.704
		c-8.354-5.986-10.271-17.61-4.284-25.963L173.793,7.77c5.986-8.353,17.609-10.271,25.963-4.285l70.748,50.704
		c8.353,5.986,10.271,17.61,4.285,25.964L150.137,254.081z"/>
	<defs>
		<filter id="Adobe_OpacityMaskFilter" filterUnits="userSpaceOnUse" x="45.655" y="0" width="232.618" height="261.851">
			
				<feColorMatrix  type="matrix" values="-1 0 0 0 1  0 -1 0 0 1  0 0 -1 0 1  0 0 0 1 0" color-interpolation-filters="sRGB" result="source"/>
		</filter>
	</defs>
	<mask maskUnits="userSpaceOnUse" x="45.655" y="0" width="232.618" height="261.851" id="SVGID_5_">
		<g filter="url(#Adobe_OpacityMaskFilter)">
			<g enable-background="new    ">
				<g>
					<defs>
						<rect id="SVGID_6_" x="44.756" y="-0.893" width="234.411" height="263.591"/>
					</defs>
					<clipPath id="SVGID_7_">
						<use xlink:href="#SVGID_6_"  overflow="visible"/>
					</clipPath>
					<g transform="matrix(1 0 0 1 -8.479037e-008 -1.153410e-008)" clip-path="url(#SVGID_7_)">
						
							<image overflow="visible" width="2426" height="2728" xlink:href="E7FC003.jpg"  transform="matrix(0.0966 0 0 0.0966 44.7559 -0.8931)">
						</image>
					</g>
				</g>
			</g>
		</g>
	</mask>
	<g opacity="0.4" mask="url(#SVGID_5_)">
		<g>
			<defs>
				<rect id="SVGID_8_" x="45.655" y="0" width="232.617" height="261.85"/>
			</defs>
			<clipPath id="SVGID_9_">
				<use xlink:href="#SVGID_8_"  overflow="visible"/>
			</clipPath>
			<path clip-path="url(#SVGID_9_)" fill="#595A5A" d="M150.137,254.081c-5.986,8.354-17.611,10.271-25.964,4.285l-70.748-50.704
				c-8.354-5.986-10.271-17.61-4.284-25.963L173.793,7.77c5.986-8.353,17.609-10.271,25.963-4.285l70.748,50.704
				c8.353,5.986,10.271,17.61,4.285,25.964L150.137,254.081z"/>
		</g>
	</g>
	<path fill="#FFFFFF" d="M263.748,57.374l-6.083-4.36c-0.898-0.644-2.147-0.437-2.791,0.46c-2.217,3.093-6.521,3.803-9.613,1.586
		l-38.22-27.391c-3.092-2.217-3.803-6.521-1.586-9.613c0.644-0.897,0.438-2.148-0.462-2.791l-6.082-4.359
		c-6.597-4.729-15.779-3.214-20.508,3.384L57.627,182.813c-4.729,6.598-3.214,15.778,3.384,20.506l64.836,46.469
		c6.599,4.729,15.779,3.212,20.509-3.386L267.132,77.881C271.859,71.283,270.346,62.102,263.748,57.374"/>
	<g>
		<defs>
			<path id="SVGID_10_" d="M164.666,19.2c-0.339,0.035-0.491,0.304-0.672,0.558c-1.418,1.977-2.834,3.953-4.25,5.929
				c-0.232,0.324-0.435,0.595-0.364,1.014c0.025,0.156,0.08,0.289,0.162,0.405c0.069,0.1,0.159,0.186,0.268,0.264
				c0,0,0.084-0.117,0.23-0.322c0.942-1.315,4.487-6.259,5.275-7.358c0.099-0.14,0.155-0.218,0.155-0.218
				c-0.109-0.078-0.225-0.149-0.348-0.199c-0.116-0.048-0.239-0.077-0.368-0.077C164.725,19.195,164.696,19.197,164.666,19.2"/>
		</defs>
		<clipPath id="SVGID_11_">
			<use xlink:href="#SVGID_10_"  overflow="visible"/>
		</clipPath>
		<g clip-path="url(#SVGID_11_)">
			<g>
				<defs>
					<rect id="SVGID_12_" x="159.309" y="19.194" width="6.16" height="8.175"/>
				</defs>
				<clipPath id="SVGID_13_">
					<use xlink:href="#SVGID_12_"  overflow="visible"/>
				</clipPath>
				<g clip-path="url(#SVGID_13_)">
					<defs>
						<rect id="SVGID_14_" x="159.309" y="19.194" width="6.16" height="8.175"/>
					</defs>
					<clipPath id="SVGID_15_">
						<use xlink:href="#SVGID_14_"  overflow="visible"/>
					</clipPath>
					<g transform="matrix(1 0 0 1 3.435271e-006 4.579888e-007)" clip-path="url(#SVGID_15_)">
						
							<image overflow="visible" width="13" height="18" xlink:href="E7FC001.jpg"  transform="matrix(0.48 0 0 0.48 159.3086 19.1943)">
						</image>
					</g>
				</g>
			</g>
		</g>
	</g>
	<g>
		<defs>
			<path id="SVGID_16_" d="M252.455,111.225c-0.787,1.099-15.856,22.125-16.799,23.44c-0.147,0.205-0.23,0.321-0.23,0.321
				c0.107,0.078,0.219,0.134,0.335,0.168c0.137,0.041,0.281,0.049,0.436,0.024c0.42-0.069,0.612-0.348,0.844-0.671
				c1.416-1.977,14.358-20.034,15.775-22.01c0.181-0.254,0.387-0.483,0.313-0.817c-0.036-0.158-0.115-0.293-0.216-0.41
				c-0.088-0.1-0.191-0.186-0.301-0.264C252.611,111.007,252.557,111.084,252.455,111.225"/>
		</defs>
		<clipPath id="SVGID_17_">
			<use xlink:href="#SVGID_16_"  overflow="visible"/>
		</clipPath>
		<g clip-path="url(#SVGID_17_)">
			<g>
				<defs>
					<rect id="SVGID_18_" x="235.424" y="111.006" width="17.777" height="24.197"/>
				</defs>
				<clipPath id="SVGID_19_">
					<use xlink:href="#SVGID_18_"  overflow="visible"/>
				</clipPath>
				<g clip-path="url(#SVGID_19_)">
					<defs>
						<rect id="SVGID_20_" x="235.424" y="111.006" width="17.777" height="24.197"/>
					</defs>
					<clipPath id="SVGID_21_">
						<use xlink:href="#SVGID_20_"  overflow="visible"/>
					</clipPath>
					<g transform="matrix(1 0 0 1 5.293536e-006 2.913242e-006)" clip-path="url(#SVGID_21_)">
						
							<image overflow="visible" width="38" height="51" xlink:href="E7FC007.jpg"  transform="matrix(0.48 0 0 0.48 235.4238 111.0059)">
						</image>
					</g>
				</g>
			</g>
		</g>
	</g>
	<g>
		<defs>
			<path id="SVGID_22_" d="M154.333,33.797c-0.341,0.036-0.49,0.304-0.673,0.558c-1.415,1.977-7.77,10.842-9.187,12.819
				c-0.232,0.323-0.436,0.594-0.364,1.014c0.025,0.156,0.081,0.29,0.162,0.406c0.07,0.099,0.159,0.186,0.268,0.264
				c0,0,0.084-0.117,0.23-0.323c0.942-1.314,9.425-13.149,10.212-14.249c0.101-0.14,0.156-0.217,0.156-0.217
				c-0.109-0.078-0.225-0.148-0.347-0.199c-0.116-0.047-0.24-0.077-0.369-0.077C154.394,33.793,154.363,33.794,154.333,33.797"/>
		</defs>
		<clipPath id="SVGID_23_">
			<use xlink:href="#SVGID_22_"  overflow="visible"/>
		</clipPath>
		<g clip-path="url(#SVGID_23_)">
			<g>
				<defs>
					<rect id="SVGID_24_" x="144.038" y="33.792" width="11.098" height="15.064"/>
				</defs>
				<clipPath id="SVGID_25_">
					<use xlink:href="#SVGID_24_"  overflow="visible"/>
				</clipPath>
				<g clip-path="url(#SVGID_25_)">
					<defs>
						<rect id="SVGID_26_" x="144.038" y="33.792" width="11.098" height="15.064"/>
					</defs>
					<clipPath id="SVGID_27_">
						<use xlink:href="#SVGID_26_"  overflow="visible"/>
					</clipPath>
					<g transform="matrix(1 0 0 1 -5.723559e-006 1.098633e-006)" clip-path="url(#SVGID_27_)">
						
							<image overflow="visible" width="24" height="32" xlink:href="E7FC000.jpg"  transform="matrix(0.48 0 0 0.48 144.0381 33.792)">
						</image>
					</g>
				</g>
			</g>
		</g>
	</g>
	<g>
		<defs>
			<path id="SVGID_28_" d="M140.965,52.45c-0.341,0.036-0.49,0.305-0.672,0.559c-1.417,1.976-7.771,10.842-9.188,12.819
				c-0.232,0.323-0.435,0.594-0.365,1.014c0.026,0.156,0.081,0.29,0.163,0.405c0.07,0.1,0.16,0.186,0.268,0.264
				c0,0,0.083-0.117,0.23-0.322c0.942-1.315,9.425-13.15,10.212-14.249c0.1-0.14,0.156-0.217,0.156-0.217
				c-0.11-0.078-0.225-0.148-0.348-0.2c-0.116-0.047-0.239-0.077-0.368-0.077C141.024,52.446,140.995,52.447,140.965,52.45"/>
		</defs>
		<clipPath id="SVGID_29_">
			<use xlink:href="#SVGID_28_"  overflow="visible"/>
		</clipPath>
		<g clip-path="url(#SVGID_29_)">
			<g>
				<defs>
					<rect id="SVGID_30_" x="130.67" y="52.445" width="11.099" height="15.064"/>
				</defs>
				<clipPath id="SVGID_31_">
					<use xlink:href="#SVGID_30_"  overflow="visible"/>
				</clipPath>
				<g clip-path="url(#SVGID_31_)">
					<defs>
						<rect id="SVGID_32_" x="130.67" y="52.445" width="11.099" height="15.064"/>
					</defs>
					<clipPath id="SVGID_33_">
						<use xlink:href="#SVGID_32_"  overflow="visible"/>
					</clipPath>
					<g transform="matrix(1 0 0 1 -5.192356e-006 3.574169e-007)" clip-path="url(#SVGID_33_)">
						
							<image overflow="visible" width="24" height="32" xlink:href="E7FC00E.jpg"  transform="matrix(0.48 0 0 0.48 130.6699 52.4453)">
						</image>
					</g>
				</g>
			</g>
		</g>
	</g>
	<g>
		<defs>
			<path id="SVGID_34_" d="M78.391,126.833c-7.309,2.798-10.963,10.991-8.164,18.298l11.137,29.075
				c2.8,7.308,10.992,10.963,18.299,8.164c7.309-2.8,10.963-10.993,8.164-18.3l-11.137-29.076c-2.16-5.64-7.534-9.104-13.233-9.104
				C81.771,125.892,80.058,126.194,78.391,126.833"/>
		</defs>
		<use xlink:href="#SVGID_34_"  overflow="visible" fill="#FAE1D6"/>
		<clipPath id="SVGID_35_">
			<use xlink:href="#SVGID_34_"  overflow="visible"/>
		</clipPath>
		
			<rect x="53.372" y="124.218" transform="matrix(-0.3835 -0.9236 0.9236 -0.3835 -20.477 297.3927)" clip-path="url(#SVGID_35_)" fill="#FAE1D6" width="71.311" height="62.626"/>
	</g>
	<g>
		<defs>
			<path id="SVGID_36_" d="M98.793,95.574c-7.308,2.799-10.962,10.992-8.163,18.299l11.137,29.075
				c2.799,7.308,10.991,10.963,18.299,8.164c7.308-2.8,10.963-10.993,8.164-18.3l-11.137-29.075
				c-2.16-5.639-7.533-9.104-13.233-9.104C102.174,94.632,100.461,94.936,98.793,95.574"/>
		</defs>
		<use xlink:href="#SVGID_36_"  overflow="visible" fill="#FAE1D6"/>
		<clipPath id="SVGID_37_">
			<use xlink:href="#SVGID_36_"  overflow="visible"/>
		</clipPath>
		
			<rect x="73.674" y="92.731" transform="matrix(-0.3945 -0.9189 0.9189 -0.3945 38.4081 273.8516)" clip-path="url(#SVGID_37_)" fill="#FAE1D6" width="71.512" height="63.08"/>
	</g>
	<g>
		<defs>
			<path id="SVGID_38_" d="M116.608,60.413c-7.308,2.798-10.963,10.991-8.163,18.3l11.136,29.074
				c2.8,7.308,10.993,10.962,18.299,8.164c7.309-2.799,10.964-10.992,8.165-18.299l-11.137-29.076
				c-2.16-5.639-7.534-9.104-13.234-9.104C119.988,59.471,118.275,59.774,116.608,60.413"/>
		</defs>
		<use xlink:href="#SVGID_38_"  overflow="visible" fill="#FAE1D6"/>
		<clipPath id="SVGID_39_">
			<use xlink:href="#SVGID_38_"  overflow="visible"/>
		</clipPath>
		
			<rect x="91.478" y="57.544" transform="matrix(-0.3958 -0.9183 0.9183 -0.3958 95.7713 241.2332)" clip-path="url(#SVGID_39_)" fill="#FAE1D6" width="71.534" height="63.132"/>
	</g>
	<path fill="#FEEEE9" d="M144.344,99.699c2.248,5.529-0.227,11.757-5.526,13.911l-0.255,0.104c-5.3,2.154-11.418-0.581-13.665-6.109
		l-4.07-10.01c0,0,0.457-2.767,8.479-6.028c7.866-3.197,10.969-1.876,10.969-1.876L144.344,99.699z"/>
	<path fill="#FEEEE9" d="M126.331,135.396c2.248,5.529-0.228,11.757-5.528,13.911l-0.254,0.104c-5.3,2.154-11.418-0.581-13.665-6.11
		l-4.07-10.011c0,0,0.457-2.766,8.48-6.026c7.865-3.197,10.968-1.878,10.968-1.878L126.331,135.396z"/>
	<path fill="#FEEEE9" d="M105.586,165.997c2.249,5.529-0.227,11.757-5.527,13.911l-0.255,0.104
		c-5.3,2.153-11.418-0.582-13.665-6.111l-4.069-10.012c0,0,0.457-2.766,8.48-6.027c7.865-3.196,10.968-1.877,10.968-1.877
		L105.586,165.997z"/>
	<path fill-rule="evenodd" clip-rule="evenodd" fill="#BFBFBF" d="M266.757,68.269c-0.171,0.24-0.442,0.339-0.683,0.168l0.622-0.866
		C266.936,67.741,266.929,68.029,266.757,68.269 M266.84,67.11l-1.154,1.609l-0.002,0.002c-0.147,0.206-0.432,0.25-0.636,0.103
		l-4.83-3.46c-0.206-0.147-0.254-0.43-0.106-0.636l0.001-0.002l1.154-1.608c0.146-0.206,0.432-0.253,0.638-0.106l4.828,3.461
		C266.938,66.619,266.985,66.905,266.84,67.11 M261.816,63.135c-0.139-0.098-0.328-0.066-0.427,0.07l-1.152,1.61
		c-0.099,0.137-0.067,0.327,0.07,0.425l4.828,3.46c0.136,0.098,0.327,0.067,0.425-0.069l1.154-1.61
		c0.098-0.136,0.067-0.328-0.07-0.425L261.816,63.135z M261.514,63.293l-1.152,1.61c-0.05,0.068-0.034,0.164,0.035,0.212
		l3.715,2.662l1.33-1.857l-3.715-2.662C261.659,63.21,261.563,63.226,261.514,63.293"/>
	<path fill="#BFBFBF" d="M257.136,59.594c0.551,0.395,0.952,1.009,1.132,1.735l-0.376,0.082c-0.15-0.594-0.507-1.115-1.004-1.472
		c-0.497-0.357-1.104-0.526-1.714-0.479l-0.042-0.382C255.875,59.018,256.586,59.199,257.136,59.594 M256.553,60.406
		c0.373,0.267,0.643,0.667,0.765,1.131l-0.402,0.088c-0.097-0.353-0.312-0.662-0.608-0.875c-0.297-0.212-0.657-0.316-1.022-0.296
		l-0.046-0.408C255.717,60.013,256.184,60.14,256.553,60.406 M255.98,61.206c0.175,0.125,0.305,0.317,0.373,0.542l-0.903,0.197
		l-0.103-0.919C255.582,61.018,255.807,61.082,255.98,61.206"/>
	<g opacity="0.4">
		<g>
			<defs>
				<rect id="SVGID_40_" x="269.807" y="82.475" width="2.891" height="2.725"/>
			</defs>
			<clipPath id="SVGID_41_">
				<use xlink:href="#SVGID_40_"  overflow="visible"/>
			</clipPath>
			
				<rect x="270.067" y="83.009" transform="matrix(0.8129 0.5824 -0.5824 0.8129 99.5902 -142.3012)" clip-path="url(#SVGID_41_)" fill-rule="evenodd" clip-rule="evenodd" fill="#979798" width="2.369" height="1.655"/>
		</g>
	</g>
	<g opacity="0.15">
		<g>
			<defs>
				<rect id="SVGID_42_" x="238.117" y="42.854" width="4.106" height="4.107"/>
			</defs>
			<clipPath id="SVGID_43_">
				<use xlink:href="#SVGID_42_"  overflow="visible"/>
			</clipPath>
			<path clip-path="url(#SVGID_43_)" fill="#070606" d="M241.839,46.105c-0.66,0.921-1.943,1.133-2.865,0.473
				c-0.921-0.66-1.133-1.943-0.472-2.865c0.661-0.921,1.943-1.133,2.864-0.472C242.288,43.899,242.5,45.183,241.839,46.105"/>
		</g>
	</g>
	<g opacity="0.15">
		<g>
			<defs>
				<rect id="SVGID_44_" x="212.677" y="24.905" width="23.076" height="17.135"/>
			</defs>
			<clipPath id="SVGID_45_">
				<use xlink:href="#SVGID_44_"  overflow="visible"/>
			</clipPath>
			<path clip-path="url(#SVGID_45_)" fill="#070606" d="M235.574,41.614c-0.397,0.555-1.334,0.57-2.082,0.035l-20.001-14.334
				c-0.748-0.536-1.034-1.427-0.635-1.982c0.396-0.555,1.333-0.571,2.079-0.036l20.002,14.335
				C235.686,40.168,235.972,41.06,235.574,41.614"/>
		</g>
	</g>
	<path fill="#FEEEE9" d="M231.728,141.079c-0.895-7.76,3.115-14.92,8.957-15.992c0.58-0.104,1.154-0.129,1.724-0.113
		c0.507,0.244,1.01,0.503,1.501,0.791l1.925,16.672c0,0,0.803,4.19,1.554,9.271c-1.054,0.731-2.211,1.251-3.46,1.482
		C238.086,154.26,233.295,154.646,231.728,141.079"/>
	<path fill="#FAE1D6" d="M214.867,153.281c-3.091-13.096,3.43-26.297,14.562-29.486c4.454-1.278,8.964-0.745,12.979,1.179
		c-0.569-0.016-1.144,0.009-1.724,0.113c-5.842,1.072-9.852,8.232-8.957,15.992c1.566,13.567,6.358,13.181,12.2,12.109
		c1.249-0.23,2.406-0.75,3.46-1.481c0.756,5.14,1.459,11.194,1.218,14.748c-0.001,0.023,0.011,0.097,0.011,0.097
		c-0.026,0.029-0.054,0.053-0.084,0.081c-0.958,2.319-2.094,5.054-3.337,8.006l-27.882-14.805
		C216.258,157.838,215.423,155.643,214.867,153.281"/>
	<path fill="#2D2C2C" d="M298.865,87.097c-0.462,0-0.928-0.145-1.326-0.442c-0.978-0.734-1.177-2.122-0.442-3.1
		c4.782-6.382,6.349-15.106,4.086-22.77c-1.969-6.665-6.557-11.626-12.919-13.97c-1.147-0.423-1.734-1.695-1.312-2.843
		c0.423-1.147,1.695-1.735,2.843-1.312c7.708,2.839,13.259,8.831,15.635,16.871c2.65,8.978,0.816,19.201-4.791,26.68
		C300.205,86.791,299.538,87.097,298.865,87.097z"/>
	<path fill="#2D2C2C" d="M314.668,91.379c-0.366,0-0.735-0.09-1.077-0.281c-1.068-0.596-1.452-1.945-0.854-3.013
		c6.478-11.611,7.634-25.319,3.091-36.667c-3.42-8.542-9.58-14.572-17.349-16.978c-1.168-0.362-1.823-1.602-1.46-2.771
		c0.362-1.168,1.602-1.82,2.77-1.459c9.069,2.809,16.226,9.756,20.15,19.562c5.034,12.576,3.787,27.706-3.336,40.472
		C316.197,90.97,315.444,91.379,314.668,91.379z"/>
	<path fill="#2D2C2C" d="M22.918,183.641c0.46-0.051,0.939,0.04,1.368,0.291c1.056,0.619,1.408,1.977,0.788,3.032
		c-4.037,6.878-4.614,15.724-1.506,23.082c2.704,6.403,7.819,10.817,14.403,12.434c1.188,0.292,1.914,1.49,1.623,2.679
		c-0.292,1.187-1.49,1.915-2.679,1.621c-7.976-1.956-14.165-7.287-17.426-15.008c-3.645-8.627-2.967-18.989,1.766-27.051
		C21.623,184.096,22.25,183.717,22.918,183.641z"/>
	<path fill="#2D2C2C" d="M6.736,181.159c0.363-0.04,0.741,0.007,1.102,0.158c1.128,0.472,1.66,1.77,1.187,2.897
		c-5.134,12.266-4.745,26.017,1.042,36.783c4.356,8.104,11.155,13.406,19.145,14.926c1.201,0.228,1.99,1.387,1.762,2.588
		c-0.229,1.202-1.388,1.989-2.588,1.762c-9.328-1.773-17.219-7.874-22.219-17.179c-6.413-11.932-6.871-27.105-1.226-40.59
		C5.262,181.737,5.965,181.246,6.736,181.159z"/>
	<path fill="#808080" d="M233.95,259.789c0,0-2.081-0.129-7.281,0.271c-8.453,0.647-25.15,2.692-54.582,8.959
		c-30.155,6.419-46.835,11.556-55.005,14.455c-4.71,1.671-6.594,2.599-6.594,2.599L112.303,324h128.024L233.95,259.789z"/>
</g>
</svg>
