<?xml version="1.0" encoding="utf-8"?>
<!-- Generator: Adobe Illustrator 15.0.0, SVG Export Plug-In . SVG Version: 6.00 Build 0)  -->
<!DOCTYPE svg PUBLIC "-//W3C//DTD SVG 1.1//EN" "http://www.w3.org/Graphics/SVG/1.1/DTD/svg11.dtd">
<svg version="1.1" id="Layer_1" xmlns="http://www.w3.org/2000/svg" xmlns:xlink="http://www.w3.org/1999/xlink" x="0px" y="0px"
	 width="72px" height="72px" viewBox="0 0 72 72" enable-background="new 0 0 72 72" xml:space="preserve">
<circle fill="#212121" cx="36" cy="36" r="14.273"/>
<path fill="#212121" d="M63.116,33.032C61.741,20.336,51.663,10.258,38.969,8.884V0h-5.937v8.884
	C20.336,10.258,10.258,20.336,8.884,33.032H0v5.937h8.884c1.375,12.694,11.452,22.772,24.148,24.147V72h5.937v-8.884
	c12.694-1.375,22.772-11.453,24.147-24.147H72v-5.937H63.116z M38.969,56.988c-0.974,0.138-1.958,0.232-2.969,0.232
	c-1.01,0-1.996-0.095-2.968-0.232c-9.325-1.314-16.707-8.694-18.02-18.02c-0.137-0.974-0.233-1.958-0.233-2.969
	c0-1.01,0.096-1.996,0.233-2.968c1.314-9.325,8.695-16.706,18.02-18.02c0.973-0.137,1.958-0.233,2.968-0.233
	c1.011,0,1.995,0.096,2.969,0.233c9.325,1.313,16.705,8.695,18.02,18.02c0.138,0.973,0.232,1.958,0.232,2.968
	c0,1.011-0.095,1.995-0.232,2.969C55.674,48.294,48.294,55.674,38.969,56.988z"/>
</svg>
