<?xml version="1.0" encoding="utf-8"?>
<!-- Generator: Adobe Illustrator 15.0.0, SVG Export Plug-In . SVG Version: 6.00 Build 0)  -->
<!DOCTYPE svg PUBLIC "-//W3C//DTD SVG 1.1//EN" "http://www.w3.org/Graphics/SVG/1.1/DTD/svg11.dtd">
<svg version="1.1" id="Layer_1" xmlns="http://www.w3.org/2000/svg" xmlns:xlink="http://www.w3.org/1999/xlink" x="0px" y="0px"
	 width="72px" height="72px" viewBox="0 0 72 72" enable-background="new 0 0 72 72" xml:space="preserve">
<circle fill="#2ABCB6" cx="36" cy="36" r="36"/>
<g>
	<path fill="#FFFFFF" d="M36.051,57.032c-2.532,0-4.638-2.104-4.638-4.637c0-2.533,2.105-4.639,4.638-4.639s4.638,2.105,4.534,4.758
		C40.706,54.928,38.481,57.032,36.051,57.032z"/>
	<path fill="#FFFFFF" d="M40.278,27.048c-0.205,3.594-0.429,7.17-0.634,10.766c-0.102,1.164-0.102,2.224-0.102,3.37
		c-0.104,1.9-1.592,3.372-3.492,3.372c-1.899,0-3.371-1.369-3.491-3.27c-0.308-5.596-0.633-11.09-0.94-16.686
		c-0.103-1.472-0.206-2.961-0.325-4.433c0-2.43,1.368-4.432,3.594-5.065c2.225-0.531,4.432,0.53,5.391,2.635
		c0.325,0.735,0.428,1.472,0.428,2.327C40.604,22.411,40.38,24.738,40.278,27.048z"/>
</g>
</svg>
