<?xml version="1.0" encoding="utf-8"?>
<!-- Generator: Adobe Illustrator 15.0.0, SVG Export Plug-In . SVG Version: 6.00 Build 0)  -->
<!DOCTYPE svg PUBLIC "-//W3C//DTD SVG 1.1//EN" "http://www.w3.org/Graphics/SVG/1.1/DTD/svg11.dtd">
<svg version="1.1" id="Layer_1" xmlns="http://www.w3.org/2000/svg" xmlns:xlink="http://www.w3.org/1999/xlink" x="0px" y="0px"
	 width="72px" height="72px" viewBox="0 0 72 72" enable-background="new 0 0 72 72" xml:space="preserve">
<g>
	<g id="_x38__12_">
		<g>
			<path fill="#212121" d="M25.714,0h-7.285c-2.839,0-5.144,2.304-5.144,5.143v61.714c0,2.839,2.305,5.144,5.144,5.144h7.285
				c2.842,0,5.143-2.302,5.143-5.144V5.143C30.856,2.304,28.556,0,25.714,0z M53.572,0h-7.287c-2.84,0-5.143,2.304-5.143,5.143
				v61.714c0,2.839,2.303,5.144,5.143,5.144h7.287c2.842,0,5.143-2.302,5.143-5.144V5.143C58.715,2.304,56.412,0,53.572,0z"/>
		</g>
	</g>
</g>
</svg>
