<?xml version="1.0" encoding="utf-8"?>
<!-- Generator: Adobe Illustrator 15.0.0, SVG Export Plug-In . SVG Version: 6.00 Build 0)  -->
<!DOCTYPE svg PUBLIC "-//W3C//DTD SVG 1.1//EN" "http://www.w3.org/Graphics/SVG/1.1/DTD/svg11.dtd">
<svg version="1.1" id="Layer_1" xmlns="http://www.w3.org/2000/svg" xmlns:xlink="http://www.w3.org/1999/xlink" x="0px" y="0px"
	 width="72px" height="72px" viewBox="0 0 72 72" enable-background="new 0 0 72 72" xml:space="preserve">
<g>
	<path fill="#FFFFFF" d="M36,70.5C16.977,70.5,1.5,55.023,1.5,36S16.977,1.5,36,1.5S70.5,16.977,70.5,36S55.023,70.5,36,70.5z"/>
	<path fill="#BFBFBF" d="M36,3c18.196,0,33,14.804,33,33S54.196,69,36,69S3,54.196,3,36S17.804,3,36,3 M36,0C16.118,0,0,16.118,0,36
		c0,19.882,16.118,36,36,36c19.882,0,36-16.118,36-36C72,16.118,55.882,0,36,0L36,0z"/>
</g>
<g>
	<path d="M45.6,34.53c0,2.701-0.551,4.851-1.65,6.451s-2.619,2.689-4.559,3.27l6.869,1.561l-0.811,3.209l-12.33-3.57
		c-1.14-0.32-2.17-0.77-3.09-1.35s-1.694-1.305-2.325-2.174c-0.63-0.871-1.114-1.906-1.454-3.105
		c-0.341-1.201-0.511-2.6-0.511-4.201V33.93c0-1.76,0.24-3.32,0.721-4.681c0.479-1.359,1.159-2.505,2.04-3.435
		c0.879-0.93,1.935-1.635,3.164-2.115c1.23-0.479,2.596-0.72,4.096-0.72c1.458,0,2.794,0.225,4.005,0.675
		c1.209,0.45,2.244,1.13,3.104,2.04c0.861,0.91,1.531,2.045,2.012,3.405c0.479,1.36,0.719,2.95,0.719,4.77V34.53z M35.7,42.6
		c0.96,0,1.794-0.184,2.505-0.555c0.709-0.369,1.305-0.885,1.785-1.545s0.834-1.449,1.064-2.369S41.4,36.19,41.4,35.07V33.96
		c0-1.22-0.105-2.32-0.314-3.301c-0.211-0.979-0.547-1.81-1.006-2.489c-0.461-0.68-1.061-1.205-1.801-1.575s-1.639-0.556-2.7-0.556
		c-0.96,0-1.795,0.181-2.505,0.54c-0.71,0.36-1.3,0.865-1.77,1.516c-0.471,0.65-0.82,1.436-1.05,2.354
		c-0.23,0.921-0.346,1.931-0.346,3.03v1.11c0,1.24,0.105,2.355,0.315,3.345s0.545,1.83,1.005,2.52s1.055,1.221,1.785,1.59
		C33.745,42.416,34.64,42.6,35.7,42.6z"/>
</g>
</svg>
