<?xml version="1.0" encoding="utf-8"?>
<!-- Generator: Adobe Illustrator 15.0.0, SVG Export Plug-In . SVG Version: 6.00 Build 0)  -->
<!DOCTYPE svg PUBLIC "-//W3C//DTD SVG 1.1//EN" "http://www.w3.org/Graphics/SVG/1.1/DTD/svg11.dtd">
<svg version="1.1" id="Layer_1" xmlns="http://www.w3.org/2000/svg" xmlns:xlink="http://www.w3.org/1999/xlink" x="0px" y="0px"
	 width="72px" height="72px" viewBox="0 0 72 72" enable-background="new 0 0 72 72" xml:space="preserve">
<g>
	<path fill="#212121" d="M59.725,18.075h-1.58v12.277c0,9.096-7.399,16.496-16.496,16.496H18.075v1.579
		c0,6.771,5.507,12.276,12.277,12.276H55.57l12.97,10.808C68.928,71.833,69.406,72,69.893,72C71.051,72,72,71.059,72,69.891V30.352
		C72,23.572,66.516,18.075,59.725,18.075z"/>
	<path fill="#2ABCB6" d="M41.648,0H12.277C5.485,0,0,5.497,0,12.277v39.54c0,1.168,0.949,2.109,2.109,2.109
		c0.484,0,0.964-0.168,1.351-0.49l12.97-10.808h25.218c6.771,0,12.277-5.507,12.277-12.276V12.277C53.926,5.485,48.43,0,41.648,0z"
		/>
</g>
</svg>
