<?xml version="1.0" encoding="utf-8"?>
<!-- Generator: Adobe Illustrator 15.0.0, SVG Export Plug-In . SVG Version: 6.00 Build 0)  -->
<!DOCTYPE svg PUBLIC "-//W3C//DTD SVG 1.1//EN" "http://www.w3.org/Graphics/SVG/1.1/DTD/svg11.dtd">
<svg version="1.1" id="Layer_1" xmlns="http://www.w3.org/2000/svg" xmlns:xlink="http://www.w3.org/1999/xlink" x="0px" y="0px"
	 width="72px" height="72px" viewBox="0 0 72 72" enable-background="new 0 0 72 72" xml:space="preserve">
<path fill="#292929" d="M69.142,33.141c-1.577,0-2.859,1.283-2.859,2.859c0,16.696-13.585,30.281-30.282,30.281
	C19.302,66.281,5.718,52.696,5.718,36C5.718,19.303,19.302,5.719,36,5.719c9.053,0,17.544,3.983,23.297,10.929l0.205,0.247H48.778
	c-1.577,0-2.859,1.283-2.859,2.859s1.282,2.859,2.859,2.859h16.91c1.577,0,2.858-1.283,2.858-2.859V2.858
	C68.547,1.282,67.266,0,65.688,0s-2.859,1.282-2.859,2.858v9.094l-0.262-0.285C55.772,4.252,46.089,0,36,0C16.149,0,0,16.149,0,36
	s16.149,36,36,36s36-16.149,36-36C72,34.424,70.719,33.141,69.142,33.141z"/>
</svg>
