<?xml version="1.0" encoding="utf-8"?>
<!-- Generator: Adobe Illustrator 15.0.0, SVG Export Plug-In . SVG Version: 6.00 Build 0)  -->
<!DOCTYPE svg PUBLIC "-//W3C//DTD SVG 1.1//EN" "http://www.w3.org/Graphics/SVG/1.1/DTD/svg11.dtd">
<svg version="1.1" id="Layer_1" xmlns="http://www.w3.org/2000/svg" xmlns:xlink="http://www.w3.org/1999/xlink" x="0px" y="0px"
	 width="72px" height="72px" viewBox="0 0 72 72" enable-background="new 0 0 72 72" xml:space="preserve">
<g>
	<path fill="#212121" d="M59.611,31.497c-6.823,0.007-12.37,5.597-12.363,12.463c0.003,3.751,1.872,8.026,5.556,12.709
		c2.628,3.344,5.232,5.667,5.343,5.764c0.854,0.759,2.141,0.754,2.989-0.003c0.11-0.097,2.71-2.426,5.333-5.773
		C69.283,53.064,72,48.481,72,43.936C71.994,37.083,66.49,31.497,59.611,31.497L59.611,31.497z M59.637,57.633
		c-3.074-3.122-7.884-8.998-7.889-13.678c-0.004-4.385,3.526-7.954,7.868-7.958c4.365,0,7.878,3.555,7.884,7.943
		C67.504,48.619,62.704,54.506,59.637,57.633L59.637,57.633z"/>
	<path fill="#212121" d="M59.624,40.497c-2.979,0-4.521,3.629-2.385,5.765c1.693,1.69,4.581,1.13,5.506-1.1
		C63.66,42.955,62.028,40.497,59.624,40.497z"/>
	<path fill="#212121" d="M10.882,30.928c0.853,0.758,2.136,0.759,2.989,0c0.11-0.097,2.713-2.423,5.339-5.768
		c3.678-4.688,5.543-8.964,5.543-12.716c0-6.864-5.553-12.451-12.377-12.451C5.553-0.006,0,5.58,0,12.444
		c0,3.752,1.865,8.029,5.543,12.716C8.169,28.505,10.771,30.832,10.882,30.928z M12.376,4.494c4.344,0,7.876,3.567,7.876,7.95
		c0,4.681-4.807,10.564-7.877,13.687c-3.071-3.118-7.874-8.992-7.874-13.687C4.501,8.061,8.033,4.494,12.376,4.494z"/>
	<circle fill="#212121" cx="12.376" cy="12.37" r="3.375"/>
	<path fill="#212121" d="M63.022,68.622c0.002,3.076-3.82,4.561-5.889,2.253H10.126C4.543,70.875,0,66.333,0,60.749
		c0-5.583,4.543-10.126,10.126-10.126h22.573c3.063,0,5.555-2.492,5.555-5.555c0-3.063-2.492-5.556-5.555-5.556H14.893
		c-2.086,2.302-5.889,0.834-5.892-2.247c-0.005-3.084,3.794-4.553,5.892-2.252h17.807c5.545,0,10.056,4.509,10.056,10.055
		c0,5.545-4.511,10.056-10.056,10.056H10.126c-3.103,0-5.625,2.522-5.625,5.625s2.522,5.626,5.625,5.626h47.006
		C59.226,64.064,63.018,65.558,63.022,68.622L63.022,68.622z"/>
</g>
</svg>
