<?xml version="1.0" encoding="utf-8"?>
<!-- Generator: Adobe Illustrator 15.0.0, SVG Export Plug-In . SVG Version: 6.00 Build 0)  -->
<!DOCTYPE svg PUBLIC "-//W3C//DTD SVG 1.1//EN" "http://www.w3.org/Graphics/SVG/1.1/DTD/svg11.dtd">
<svg version="1.1" id="Layer_1" xmlns="http://www.w3.org/2000/svg" xmlns:xlink="http://www.w3.org/1999/xlink" x="0px" y="0px"
	 width="72px" height="72px" viewBox="0 0 72 72" enable-background="new 0 0 72 72" xml:space="preserve">
<path fill="#212121" d="M68.052,28.182l-5.641-0.717c-0.465-1.432-1.037-2.812-1.707-4.123l3.483-4.484
	c1.41-1.815,1.245-4.378-0.366-5.938l-4.725-4.726c-1.575-1.626-4.138-1.788-5.955-0.381l-4.479,3.483
	c-1.312-0.669-2.691-1.242-4.125-1.707l-0.718-5.632c-0.27-2.259-2.187-3.96-4.458-3.96h-6.72c-2.271,0-4.188,1.701-4.458,3.951
	L27.466,9.59c-1.434,0.465-2.813,1.035-4.125,1.707l-4.482-3.483c-1.812-1.407-4.374-1.245-5.937,0.366l-4.726,4.722
	c-1.626,1.578-1.791,4.141-0.381,5.959l3.483,4.481c-0.673,1.312-1.242,2.691-1.707,4.123L3.96,28.182
	C1.701,28.451,0,30.369,0,32.64v6.721c0,2.271,1.701,4.188,3.951,4.458l5.641,0.717c0.465,1.432,1.038,2.812,1.707,4.122
	l-3.483,4.485c-1.41,1.815-1.245,4.377,0.366,5.938l4.725,4.726c1.578,1.623,4.138,1.784,5.955,0.378l4.482-3.483
	c1.312,0.672,2.691,1.245,4.122,1.707l0.718,5.628c0.27,2.266,2.187,3.967,4.458,3.967h6.72c2.271,0,4.188-1.701,4.458-3.951
	l0.718-5.641c1.431-0.465,2.811-1.038,4.122-1.707l4.485,3.483c1.814,1.41,4.377,1.245,5.937-0.366l4.726-4.726
	c1.626-1.578,1.791-4.137,0.381-5.955l-3.483-4.482c0.673-1.311,1.245-2.69,1.707-4.122l5.629-0.717
	C70.299,43.548,72,41.631,72,39.36V32.64C72.003,30.369,70.302,28.451,68.052,28.182L68.052,28.182z M36.002,51.001
	c-8.271,0-15.001-6.729-15.001-15.001s6.729-15.001,15.001-15.001c8.271,0,15,6.729,15,15.001S44.272,51.001,36.002,51.001
	L36.002,51.001z"/>
</svg>
