<?xml version="1.0" encoding="utf-8"?>
<!-- Generator: Adobe Illustrator 15.0.0, SVG Export Plug-In . SVG Version: 6.00 Build 0)  -->
<!DOCTYPE svg PUBLIC "-//W3C//DTD SVG 1.1//EN" "http://www.w3.org/Graphics/SVG/1.1/DTD/svg11.dtd">
<svg version="1.1" id="Layer_1" xmlns="http://www.w3.org/2000/svg" xmlns:xlink="http://www.w3.org/1999/xlink" x="0px" y="0px"
	 width="72px" height="72px" viewBox="0 0 72 72" enable-background="new 0 0 72 72" xml:space="preserve">
<g>
	<g>
		<path fill="#212121" d="M59.053,29.314L19.059,1.935C17.212,0.669,15.351,0,13.804,0c-2.991,0-4.84,2.4-4.84,6.417v59.174
			c0,4.013,1.848,6.408,4.831,6.408c1.549,0,3.38-0.67,5.231-1.939l40.012-27.379c2.573-1.763,3.998-4.137,3.998-6.685
			C63.037,33.45,61.628,31.077,59.053,29.314z"/>
	</g>
</g>
<path fill="#212121" d="M72,66.331C72,69.462,69.462,72,66.331,72H5.669C2.538,72,0,69.462,0,66.331V5.669C0,2.538,2.538,0,5.669,0
	h60.662C69.462,0,72,2.538,72,5.669V66.331z"/>
</svg>
