<?xml version="1.0" encoding="utf-8"?>
<!-- Generator: Adobe Illustrator 15.0.0, SVG Export Plug-In . SVG Version: 6.00 Build 0)  -->
<!DOCTYPE svg PUBLIC "-//W3C//DTD SVG 1.1//EN" "http://www.w3.org/Graphics/SVG/1.1/DTD/svg11.dtd">
<svg version="1.1" id="bbec7ac2-a6d2-4bc0-afbf-bf375d87a7ee"
	 xmlns="http://www.w3.org/2000/svg" xmlns:xlink="http://www.w3.org/1999/xlink" x="0px" y="0px" width="741.846px"
	 height="522.418px" viewBox="0 0 741.846 522.418" enable-background="new 0 0 741.846 522.418" xml:space="preserve">
<path fill="#FFD6BB" d="M291.716,327.856c0.863-5.87-3.195-11.328-9.065-12.191c-0.626-0.093-1.259-0.129-1.891-0.109
	l-68.804-69.567l-13.592,19.001l71.906,62.406c0.576,5.938,5.856,10.284,11.793,9.708
	C287.031,336.623,291.022,332.799,291.716,327.856L291.716,327.856z"/>
<path fill="#00BFA6" d="M259.124,287.687l-17.562,17.542c-1.75,1.738-4.571,1.749-6.335,0.025l-47.987-47.178
	c-6.933-6.816-7.026-17.961-0.21-24.894c6.816-6.932,17.961-7.026,24.894-0.21c0.085,0.084,0.17,0.169,0.254,0.254l46.986,48.133
	C260.877,283.127,260.859,285.941,259.124,287.687z"/>
<circle fill="#FFD6BB" cx="197.534" cy="177.02" r="24.561"/>
<polygon fill="#FFD6BB" points="114.543,471.345 120.762,481.91 164.474,462.951 155.295,447.357 "/>
<path fill="#2F2E41" d="M116.406,466.62l12.248,20.807l0,0.001c4.311,7.323,1.868,16.754-5.455,21.064c0,0,0,0,0,0l-0.431,0.254
	l-20.053-34.067L116.406,466.62z"/>
<polygon fill="#FFD6BB" points="186.6,509.407 198.86,509.407 204.692,462.119 186.598,462.12 "/>
<path fill="#2F2E41" d="M183.473,505.405l24.144-0.002h0.001c8.498,0,15.386,6.889,15.387,15.386c0,0.001,0,0.001,0,0.001v0.5
	l-39.531,0.002L183.473,505.405z"/>
<path fill="#2F2E41" d="M137.312,480.758c-1.431,0.001-2.777-0.681-3.624-1.833l-11.824-16.059
	c-1.474-2.002-1.046-4.818,0.955-6.292c0.056-0.041,0.112-0.08,0.169-0.118l52.614-35.142l-31.747-83.475l67.889,5.602l2.287,71.734
	c0.438,13.312-6.501,25.779-18.045,32.424l-56.427,32.554C138.876,480.549,138.101,480.757,137.312,480.758z"/>
<path fill="#2F2E41" d="M186.97,499.808c-2.42-0.005-4.403-1.922-4.489-4.34l-2.488-69.882l30.809-1.623l-2.453,70.384
	c-0.075,2.311-1.893,4.186-4.2,4.333l-16.873,1.118C187.174,499.805,187.072,499.808,186.97,499.808z"/>
<path fill="#00BFA6" d="M219.602,357.318c-7.838,0-35.216-8.816-44.721-11.959c-1.422,1.139-9.233,6.979-18.351,5.912
	c-5.626-0.66-10.579-3.846-14.721-9.467c-9.147-12.414,2.15-65.65,13.239-108.125c4.62-17.843,22.526-28.836,40.529-24.88l0,0
	c12.805,2.827,22.909,12.656,26.087,25.378c2.088,8.498,0.292,18.494-1.02,25.794c-0.616,3.431-1.104,6.142-0.937,7.474
	c0.644,5.148,4.219,85.893,1.92,89.34C221.382,357.152,220.674,357.318,219.602,357.318z"/>
<path fill="#FFD6BB" d="M130.255,358.096c5.833-1.079,9.688-6.683,8.609-12.518c-0.114-0.623-0.284-1.232-0.507-1.825l43.61-87.588
	l-22.373-6.725l-35.833,88.211c-5.433,2.463-7.841,8.863-5.377,14.298C120.445,356.495,125.353,359.036,130.255,358.096
	L130.255,358.096z"/>
<path fill="#00BFA6" d="M157.743,314.273l-22.275-10.952c-2.21-1.095-3.132-3.761-2.071-5.987l29.146-60.655
	c4.21-8.763,14.728-12.453,23.49-8.243c8.763,4.21,12.454,14.728,8.243,23.49c-0.053,0.109-0.106,0.218-0.161,0.326l-30.373,60.017
	C162.624,314.461,159.955,315.354,157.743,314.273z"/>
<path fill="#2F2E41" d="M191.28,201.479c-11.246,0.021-21.854-8.868-23.803-19.943c-0.698-4.351-0.383-8.804,0.919-13.014
	c5.463-18.515,24.902-29.096,43.417-23.632c1.542,0.455,3.052,1.016,4.518,1.68c3.008,1.361,5.971,3.316,7.349,6.317
	s0.516,7.195-2.498,8.545c-1.969,0.882-4.44,0.449-6.187,1.716c-2.509,1.819-1.863,5.691-0.743,8.581
	c1.12,2.89,2.388,6.387,0.509,8.853c-1.75,2.297-5.249,2.226-8.004,1.361s-5.476-2.313-8.349-2.019
	c-4.19,0.43-7.202,4.598-7.759,8.773c-0.557,4.175,0.755,8.349,2.05,12.357L191.28,201.479z"/>
</svg>
