<?xml version="1.0" encoding="utf-8"?>
<!-- Generator: Adobe Illustrator 15.0.0, SVG Export Plug-In . SVG Version: 6.00 Build 0)  -->
<!DOCTYPE svg PUBLIC "-//W3C//DTD SVG 1.1//EN" "http://www.w3.org/Graphics/SVG/1.1/DTD/svg11.dtd">
<svg version="1.1" id="Layer_1" xmlns="http://www.w3.org/2000/svg" xmlns:xlink="http://www.w3.org/1999/xlink" x="0px" y="0px"
	 width="72px" height="72px" viewBox="0 0 72 72" enable-background="new 0 0 72 72" xml:space="preserve">
<g>
	<g>
		<rect x="17.341" y="29.658" fill="#D98C21" width="22.248" height="30.859"/>
		<rect x="32.411" y="26.788" fill="#CC751F" width="22.248" height="33.729"/>
		<path fill="#E6C19C" d="M45.33,51.834c0,2.87,3.373,3.731,5.095,4.163c5.454,1.435,16.363,4.232,16.363,4.232
			c2.295,0.79,4.09,2.512,5.096,4.737V72H0.116v-7.033c0.933-2.226,2.799-3.947,5.096-4.737c0,0,10.908-2.798,16.363-4.232
			c1.722-0.432,5.096-1.293,5.096-4.163s0-7.823,0-7.823h18.66C45.33,44.011,45.33,48.964,45.33,51.834z"/>
		<g>
			<g>
				<defs>
					<path id="SVGID_1_" d="M45.33,51.834c0,2.87,3.373,3.731,5.095,4.163c5.454,1.435,16.363,4.232,16.363,4.232
						c2.295,0.79,4.09,2.512,5.096,4.737V72H0.116v-7.033c0.933-2.226,2.799-3.947,5.096-4.737c0,0,10.908-2.798,16.363-4.232
						c1.722-0.432,5.096-1.293,5.096-4.163s0-7.823,0-7.823h18.66C45.33,44.011,45.33,48.964,45.33,51.834z"/>
				</defs>
				<defs>
					<path id="SVGID_2_" d="M45.33,51.834c0,2.87,3.373,3.731,5.095,4.163c5.454,1.435,16.363,4.232,16.363,4.232
						c2.295,0.79,4.09,2.512,5.096,4.737V72H0.116v-7.033c0.933-2.226,2.799-3.947,5.096-4.737c0,0,10.908-2.798,16.363-4.232
						c1.722-0.432,5.096-1.293,5.096-4.163s0-7.823,0-7.823h18.66C45.33,44.011,45.33,48.964,45.33,51.834z"/>
				</defs>
				<defs>
					<path id="SVGID_3_" d="M45.33,51.834c0,2.87,3.373,3.731,5.095,4.163c5.454,1.435,16.363,4.232,16.363,4.232
						c2.295,0.79,4.09,2.512,5.096,4.737V72H0.116v-7.033c0.933-2.226,2.799-3.947,5.096-4.737c0,0,10.908-2.798,16.363-4.232
						c1.722-0.432,5.096-1.293,5.096-4.163s0-7.823,0-7.823h18.66C45.33,44.011,45.33,48.964,45.33,51.834z"/>
				</defs>
				<clipPath id="SVGID_4_">
					<use xlink:href="#SVGID_1_"  overflow="visible"/>
				</clipPath>
				<clipPath id="SVGID_5_" clip-path="url(#SVGID_4_)">
					<use xlink:href="#SVGID_2_"  overflow="visible"/>
				</clipPath>
				<clipPath id="SVGID_6_" clip-path="url(#SVGID_5_)">
					<use xlink:href="#SVGID_3_"  overflow="visible"/>
				</clipPath>
				<path clip-path="url(#SVGID_6_)" fill="#D4B08C" d="M36.144,8.128h0.143l0,0c2.368,0,5.884,0.144,8.182,1.435
					c2.367,1.364,5.238,4.019,6.1,8.685c1.723,9.832-1.507,25.405-4.521,30.428c-2.87,4.809-7.033,6.603-9.688,6.747h-0.071h-0.143
					H36h-0.072c-2.656-0.145-6.818-1.938-9.688-6.747c-3.015-5.023-6.244-20.597-4.521-30.428c0.861-4.666,3.732-7.321,6.1-8.685
					C30.115,8.271,33.631,8.128,36,8.128l0,0H36.144z"/>
				<path clip-path="url(#SVGID_6_)" fill="#6B363E" d="M0.116,41.858h71.768V72H0.116V41.858z M36,64.105
					c8.683,0,14.927-10.119,14.927-10.119S43.823,42.575,36,42.575S21.072,53.986,21.072,53.986S27.316,64.105,36,64.105z"/>
				<g clip-path="url(#SVGID_6_)">
					<g>
						<defs>
							<path id="SVGID_7_" d="M0.116,41.858h71.768V72H0.116V41.858z M36,64.105c8.683,0,14.927-10.119,14.927-10.119
								S43.823,42.575,36,42.575S21.072,53.986,21.072,53.986S27.316,64.105,36,64.105z"/>
						</defs>
						<clipPath id="SVGID_8_">
							<use xlink:href="#SVGID_7_"  overflow="visible"/>
						</clipPath>
						<path clip-path="url(#SVGID_8_)" fill="#FFFFFF" d="M52.076,55.997c-0.935,7.176-6.675,12.414-6.675,12.414
							s-5.885-5.022-7.32-5.453c9.114-5.455,12.271-8.612,12.271-8.612S52.936,48.819,52.076,55.997z M19.996,55.997
							c0.933,7.247,6.674,12.414,6.674,12.414s5.885-5.022,7.321-5.453c-9.115-5.455-12.273-8.612-12.273-8.612
							S19.134,48.819,19.996,55.997z"/>
					</g>
				</g>
			</g>
		</g>
		<path fill="#F2CEA5" d="M36,11.716c13.707,0,14.855,9.904,14.927,10.837c0.79,8.54-2.152,20.167-4.88,24.185
			c-2.87,4.234-7.033,5.813-9.688,5.956c-0.143,0-0.143,0-0.214,0L36,52.622c-2.728-0.143-6.89-1.721-9.76-5.955
			c-2.728-4.021-5.669-15.645-4.88-24.258C21.432,21.549,22.292,11.716,36,11.716z"/>
		<path fill="#A3705F" d="M32.985,44.011c-0.144,0-0.287,0.287-0.216,0.503c0.647,1.507,1.651,2.368,3.015,2.44
			c1.436,0.143,2.942-0.862,3.732-2.44c0.072-0.216,0-0.503-0.215-0.503H32.985z"/>
		<circle fill="#262626" cx="42.459" cy="32.528" r="1.435"/>
		<circle fill="#262626" cx="29.541" cy="32.528" r="1.435"/>
		<path fill="none" stroke="#CC9872" stroke-width="2" d="M25.594,29.083c0,0,1.004-0.861,3.516-0.861
			c1.794,0,3.517,0.502,4.593,1.866"/>
		<path fill="none" stroke="#BB8660" stroke-width="2" d="M46.334,29.083c0,0-1.004-0.861-3.517-0.861
			c-2.512,0-4.952,1.077-5.526,4.091c-0.574,3.014,0.216,5.525,1.508,7.247"/>
		<path fill="#E6A422" d="M17.341,32.744c1.722-0.646,5.167-2.512,8.612-8.541c4.88-8.611,12.344-4.664,14.711-1.866
			c0.287,0.287,0.647,0.145,0.647,0.145s6.171-2.656,8.611,2.726c1.794,3.947,2.799,5.096,4.664,6.316v-5.669
			c0.072-11.124-6.745-11.267-7.032-11.267s-0.503,0-0.646-0.432c-0.646-2.081-7.319-8.971-18.516-4.593
			c-11.196,4.378-11.052,20.095-11.052,20.095V32.744z"/>
		<g>
			<g>
				<defs>
					<path id="SVGID_9_" d="M17.341,32.744c1.722-0.646,5.167-2.512,8.612-8.541c4.88-8.611,12.344-4.664,14.711-1.866
						c0.287,0.287,0.647,0.145,0.647,0.145s6.171-2.656,8.611,2.726c1.794,3.947,2.799,5.096,4.664,6.316v-5.669
						c0.072-11.124-6.745-11.267-7.032-11.267s-0.503,0-0.646-0.432c-0.646-2.081-7.319-8.971-18.516-4.593
						c-11.196,4.378-11.052,20.095-11.052,20.095V32.744z"/>
				</defs>
				<clipPath id="SVGID_10_">
					<use xlink:href="#SVGID_9_"  overflow="visible"/>
				</clipPath>
				<path clip-path="url(#SVGID_10_)" fill="#D98C21" d="M40.88,22.912c0,0,2.153-5.383,6.459-8.684
					c4.306-3.301,8.038,5.312,8.038,5.312l0.215,14.066L40.88,22.912z"/>
			</g>
		</g>
	</g>
</g>
</svg>
