<?xml version="1.0" encoding="utf-8"?>
<!-- Generator: Adobe Illustrator 15.0.0, SVG Export Plug-In . SVG Version: 6.00 Build 0)  -->
<!DOCTYPE svg PUBLIC "-//W3C//DTD SVG 1.1//EN" "http://www.w3.org/Graphics/SVG/1.1/DTD/svg11.dtd">
<svg version="1.1" id="Layer_1" xmlns="http://www.w3.org/2000/svg" xmlns:xlink="http://www.w3.org/1999/xlink" x="0px" y="0px"
	 width="72px" height="72px" viewBox="0 0 72 72" enable-background="new 0 0 72 72" xml:space="preserve">
<g>
	<path fill="#212121" d="M70.445,32.021l-9.634-7.43V12.819c0-1.849-1.5-3.347-3.348-3.347c-1.849,0-3.348,1.499-3.348,3.347v6.609
		L38.084,7.063c-0.103-0.081-0.218-0.137-0.326-0.203c-0.047-0.028-0.089-0.059-0.136-0.084C37.48,6.7,37.335,6.639,37.187,6.584
		c-0.062-0.024-0.122-0.05-0.186-0.069c-0.134-0.042-0.27-0.068-0.406-0.093c-0.085-0.015-0.168-0.031-0.256-0.042
		C36.226,6.371,36.114,6.371,36,6.371s-0.226,0-0.339,0.011c-0.087,0.009-0.17,0.026-0.256,0.041
		c-0.137,0.024-0.272,0.052-0.408,0.094c-0.063,0.02-0.123,0.045-0.184,0.068C34.666,6.639,34.52,6.7,34.377,6.776
		c-0.044,0.026-0.088,0.056-0.132,0.083c-0.11,0.067-0.225,0.125-0.329,0.205L1.555,32.021c-1.486,1.146-1.762,3.281-0.615,4.767
		l0.12,0.156c1.146,1.486,3.281,1.762,4.768,0.616L36,14.29l30.173,23.27c1.486,1.146,3.621,0.87,4.767-0.616l0.121-0.156
		C72.207,35.302,71.932,33.167,70.445,32.021z"/>
	<path fill="#212121" d="M35.9,21.263L9.521,41.149V62.23c0,1.877,1.521,3.398,3.398,3.398h16.187V49.243
		c0-1.877,1.522-3.399,3.399-3.399h6.991c1.876,0,3.399,1.522,3.399,3.399v16.386h16.187c1.877,0,3.397-1.521,3.397-3.398V41.149
		L35.9,21.263z"/>
</g>
</svg>
