<?xml version="1.0" encoding="utf-8"?>
<!-- Generator: Adobe Illustrator 15.0.0, SVG Export Plug-In . SVG Version: 6.00 Build 0)  -->
<!DOCTYPE svg PUBLIC "-//W3C//DTD SVG 1.1//EN" "http://www.w3.org/Graphics/SVG/1.1/DTD/svg11.dtd">
<svg version="1.1" id="Layer_1" xmlns="http://www.w3.org/2000/svg" xmlns:xlink="http://www.w3.org/1999/xlink" x="0px" y="0px"
	 width="72px" height="72px" viewBox="0 0 72 72" enable-background="new 0 0 72 72" xml:space="preserve">
<g>
	<g>
		<path fill="#E6C19C" d="M46.7,54.809l19.901,5.492c2.282,0.785,4.065,2.497,5.064,4.709V72H0.333v-6.99
			c0.927-2.212,2.782-3.924,5.065-4.709L25.3,54.809V44.18h21.4V54.809z"/>
		<g>
			<g>
				<g>
					<g>
						<defs>
							<path id="SVGID_1_" d="M46.7,54.809l19.901,5.492c2.282,0.785,4.065,2.497,5.064,4.709V72H0.333v-6.99
								c0.927-2.212,2.782-3.924,5.065-4.709L25.3,54.809V44.18h21.4V54.809z"/>
						</defs>
						<clipPath id="SVGID_2_">
							<use xlink:href="#SVGID_1_"  overflow="visible"/>
						</clipPath>
					</g>
					<g>
						<defs>
							<path id="SVGID_3_" d="M46.7,54.809l19.901,5.492c2.282,0.785,4.065,2.497,5.064,4.709V72H0.333v-6.99
								c0.927-2.212,2.782-3.924,5.065-4.709L25.3,54.809V44.18h21.4V54.809z"/>
						</defs>
						<defs>
							<path id="SVGID_4_" d="M46.7,54.809l19.901,5.492c2.282,0.785,4.065,2.497,5.064,4.709V72H0.333v-6.99
								c0.927-2.212,2.782-3.924,5.065-4.709L25.3,54.809V44.18h21.4V54.809z"/>
						</defs>
						<clipPath id="SVGID_5_">
							<use xlink:href="#SVGID_3_"  overflow="visible"/>
						</clipPath>
						<clipPath id="SVGID_6_" clip-path="url(#SVGID_5_)">
							<use xlink:href="#SVGID_4_"  overflow="visible"/>
						</clipPath>
					</g>
					<g>
						<defs>
							<path id="SVGID_7_" d="M46.7,54.809l19.901,5.492c2.282,0.785,4.065,2.497,5.064,4.709V72H0.333v-6.99
								c0.927-2.212,2.782-3.924,5.065-4.709L25.3,54.809V44.18h21.4V54.809z"/>
						</defs>
						<defs>
							<path id="SVGID_8_" d="M46.7,54.809l19.901,5.492c2.282,0.785,4.065,2.497,5.064,4.709V72H0.333v-6.99
								c0.927-2.212,2.782-3.924,5.065-4.709L25.3,54.809V44.18h21.4V54.809z"/>
						</defs>
						<defs>
							<path id="SVGID_9_" d="M46.7,54.809l19.901,5.492c2.282,0.785,4.065,2.497,5.064,4.709V72H0.333v-6.99
								c0.927-2.212,2.782-3.924,5.065-4.709L25.3,54.809V44.18h21.4V54.809z"/>
						</defs>
						<clipPath id="SVGID_10_">
							<use xlink:href="#SVGID_7_"  overflow="visible"/>
						</clipPath>
						<clipPath id="SVGID_11_" clip-path="url(#SVGID_10_)">
							<use xlink:href="#SVGID_8_"  overflow="visible"/>
						</clipPath>
						<clipPath id="SVGID_12_" clip-path="url(#SVGID_11_)">
							<use xlink:href="#SVGID_9_"  overflow="visible"/>
						</clipPath>
						<path clip-path="url(#SVGID_12_)" fill="#E6A422" d="M0.333,42.04h71.334V72H0.333V42.04z M36,63.439
							c7.848,0,14.268-4.494,14.268-9.986c0-5.493-6.42-9.986-14.268-9.986c-7.847,0-14.267,4.493-14.267,9.986
							C21.733,58.945,28.153,63.439,36,63.439z"/>
					</g>
					<g>
						<defs>
							<path id="SVGID_13_" d="M46.7,54.809l19.901,5.492c2.282,0.785,4.065,2.497,5.064,4.709V72H0.333v-6.99
								c0.927-2.212,2.782-3.924,5.065-4.709L25.3,54.809V44.18h21.4V54.809z"/>
						</defs>
						<defs>
							<path id="SVGID_14_" d="M46.7,54.809l19.901,5.492c2.282,0.785,4.065,2.497,5.064,4.709V72H0.333v-6.99
								c0.927-2.212,2.782-3.924,5.065-4.709L25.3,54.809V44.18h21.4V54.809z"/>
						</defs>
						<defs>
							<path id="SVGID_15_" d="M46.7,54.809l19.901,5.492c2.282,0.785,4.065,2.497,5.064,4.709V72H0.333v-6.99
								c0.927-2.212,2.782-3.924,5.065-4.709L25.3,54.809V44.18h21.4V54.809z"/>
						</defs>
						<clipPath id="SVGID_16_">
							<use xlink:href="#SVGID_13_"  overflow="visible"/>
						</clipPath>
						<clipPath id="SVGID_17_" clip-path="url(#SVGID_16_)">
							<use xlink:href="#SVGID_14_"  overflow="visible"/>
						</clipPath>
						<clipPath id="SVGID_18_" clip-path="url(#SVGID_17_)">
							<use xlink:href="#SVGID_15_"  overflow="visible"/>
						</clipPath>
						<path clip-path="url(#SVGID_18_)" fill="#D4B08C" d="M36,56.307c-1.213,0-2.782-0.285-3.852-0.783
							c-1.213-0.644-5.707-4.354-7.276-5.922c-1.998-2.141-2.996-4.852-3.282-9.487c-0.285-4.636-1.498-21.187-1.498-24.967
							c0-5.35,4.066-13.696,15.765-13.696h0.071l0,0l0,0H36c11.771,0.071,15.766,8.346,15.766,13.696
							c0,3.781-1.213,20.331-1.498,24.967c-0.285,4.637-1.285,7.276-3.281,9.487c-1.498,1.642-5.992,5.278-7.275,5.922
							C38.782,56.021,37.213,56.307,36,56.307L36,56.307z"/>
					</g>
					<g>
						<defs>
							<path id="SVGID_19_" d="M46.7,54.809l19.901,5.492c2.282,0.785,4.065,2.497,5.064,4.709V72H0.333v-6.99
								c0.927-2.212,2.782-3.924,5.065-4.709L25.3,54.809V44.18h21.4V54.809z"/>
						</defs>
						<defs>
							<path id="SVGID_20_" d="M46.7,54.809l19.901,5.492c2.282,0.785,4.065,2.497,5.064,4.709V72H0.333v-6.99
								c0.927-2.212,2.782-3.924,5.065-4.709L25.3,54.809V44.18h21.4V54.809z"/>
						</defs>
						<defs>
							<path id="SVGID_21_" d="M46.7,54.809l19.901,5.492c2.282,0.785,4.065,2.497,5.064,4.709V72H0.333v-6.99
								c0.927-2.212,2.782-3.924,5.065-4.709L25.3,54.809V44.18h21.4V54.809z"/>
						</defs>
						<clipPath id="SVGID_22_">
							<use xlink:href="#SVGID_19_"  overflow="visible"/>
						</clipPath>
						<clipPath id="SVGID_23_" clip-path="url(#SVGID_22_)">
							<use xlink:href="#SVGID_20_"  overflow="visible"/>
						</clipPath>
						<clipPath id="SVGID_24_" clip-path="url(#SVGID_23_)">
							<use xlink:href="#SVGID_21_"  overflow="visible"/>
						</clipPath>
						<path clip-path="url(#SVGID_24_)" fill="#D98C21" d="M36,42.04c-9.06,0-16.407,5.278-16.407,11.771
							c0,6.491,7.347,11.77,16.407,11.77c9.061,0,16.407-5.279,16.407-11.771S45.061,42.04,36,42.04z M36,62.727
							c-7.49,0-13.554-4.279-13.554-9.629c0-5.352,6.063-9.631,13.554-9.631s13.555,4.279,13.555,9.631
							C49.555,58.445,43.49,62.727,36,62.727z"/>
					</g>
				</g>
			</g>
			<path fill="#F2CEA5" d="M36,53.453c-1.07,0-2.497-0.214-3.424-0.643c-1.142-0.498-5.136-3.28-6.492-4.494
				c-1.783-1.641-2.711-3.637-2.996-7.133c-0.285-3.496-1.355-15.908-1.355-18.762c0-4.066,3.638-10.343,14.267-10.343l0,0l0,0l0,0
				l0,0c10.629,0,14.268,6.277,14.268,10.343c0,2.854-1.07,15.337-1.355,18.832s-1.141,5.492-2.995,7.135
				c-1.354,1.211-5.422,3.993-6.492,4.493C38.497,53.239,37.07,53.453,36,53.453L36,53.453z"/>
			<path fill="#A3705F" d="M40.916,43.875c-1.15,1.598-3.387,2.62-5.494,2.477c-1.966-0.166-3.515-0.963-4.443-2.492L40.916,43.875z
				"/>
			<path fill="none" stroke="#A3705F" stroke-linecap="round" stroke-linejoin="round" d="M40.916,43.875
				c-1.15,1.598-3.387,2.62-5.494,2.477c-1.966-0.166-3.515-0.963-4.443-2.492L40.916,43.875z"/>
			<g>
				<g>
					<g>
						<defs>
							<rect id="SVGID_25_" x="24.586" y="29.913" width="22.114" height="3.566"/>
						</defs>
						<clipPath id="SVGID_26_">
							<use xlink:href="#SVGID_25_"  overflow="visible"/>
						</clipPath>
						<circle clip-path="url(#SVGID_26_)" fill="#291F21" cx="42.42" cy="32.766" r="1.427"/>
					</g>
				</g>
				<g>
					<g>
						<defs>
							<rect id="SVGID_27_" x="24.586" y="29.913" width="22.114" height="3.566"/>
						</defs>
						<clipPath id="SVGID_28_">
							<use xlink:href="#SVGID_27_"  overflow="visible"/>
						</clipPath>
						<circle clip-path="url(#SVGID_28_)" fill="#291F21" cx="29.58" cy="32.766" r="1.427"/>
					</g>
				</g>
			</g>
			<path fill="none" stroke="#CC9872" stroke-width="2" d="M25.3,30.626c0,0,0.785-2.14,4.352-2.14c2.425,0,3.852,1.07,4.565,2.14"
				/>
			<path fill="none" stroke="#BB8660" stroke-width="2" d="M46.771,30.626c0,0-0.785-2.14-4.353-2.14
				c-3.424,0-4.993,2.14-4.993,3.566c0,1.356,0,6.421,0,6.421"/>
			<path fill="#452228" d="M49.41,35.049c0,0,0.57-4.494,2.64-5.136c0.286-1.284,1.07-4.994,1.07-7.063
				c0-2.068-0.214-4.066-1.354-5.778c-1.285-1.854-3.994-2.925-5.422-2.925c-1.641,0.999-5.492,3.282-6.705,4.637
				c-0.643,0.713,0.285,1.284,0.285,1.284s0.855-0.356,1.213-0.428c1.783-0.499,5.706-0.856,6.92,0.928
				c1.498,2.14,1.498,8.417,1.498,9.345C49.555,30.769,49.41,35.049,49.41,35.049z"/>
			<path fill="#6B363E" d="M19.95,29.913c2.069,0.713,2.64,5.136,2.64,5.136s-0.143-4.28-0.143-5.136
				c0-1.141,0.143-6.491,2.426-9.06c2.568-2.854,5.992-3.781,7.918-2.497c0.999,0.643,4.352,3.924,7.918,1.213
				c2.141-1.64,6.063-5.35,6.063-5.35S44.704,7.87,35.287,8.583C31.292,8.94,26.87,7.941,26.87,7.941s-0.071,1.783,0.642,2.71
				c-5.921,1.712-7.847,5.992-8.417,9.273c-0.143,0.642-0.214,1.284-0.214,1.926c0,0.356,0,0.713,0,0.998
				C18.88,24.919,19.665,28.557,19.95,29.913z"/>
		</g>
	</g>
</g>
</svg>
