<?xml version="1.0" encoding="utf-8"?>
<!-- Generator: Adobe Illustrator 15.0.0, SVG Export Plug-In . SVG Version: 6.00 Build 0)  -->
<!DOCTYPE svg PUBLIC "-//W3C//DTD SVG 1.1//EN" "http://www.w3.org/Graphics/SVG/1.1/DTD/svg11.dtd">
<svg version="1.1" id="Layer_1" xmlns="http://www.w3.org/2000/svg" xmlns:xlink="http://www.w3.org/1999/xlink" x="0px" y="0px"
	 width="72px" height="72px" viewBox="0 0 72 72" enable-background="new 0 0 72 72" xml:space="preserve">
<g>
	<g>
		<path fill="#C1BFBF" d="M36,72C16.149,72,0,55.851,0,36S16.149,0,36,0s36,16.149,36,36S55.851,72,36,72z M36,5.539
			C19.204,5.539,5.539,19.204,5.539,36c0,16.797,13.665,30.462,30.461,30.462c16.797,0,30.462-13.665,30.462-30.462
			C66.462,19.204,52.797,5.539,36,5.539z"/>
	</g>
	<polygon fill="#C1BFBF" points="50.342,21.624 29.796,42.168 21.655,34.028 17.553,38.131 29.796,50.375 54.447,25.727 	"/>
</g>
</svg>
