<?xml version="1.0" encoding="utf-8"?>
<!-- Generator: Adobe Illustrator 15.0.0, SVG Export Plug-In . SVG Version: 6.00 Build 0)  -->
<!DOCTYPE svg PUBLIC "-//W3C//DTD SVG 1.1//EN" "http://www.w3.org/Graphics/SVG/1.1/DTD/svg11.dtd">
<svg version="1.1" id="Layer_1" xmlns="http://www.w3.org/2000/svg" xmlns:xlink="http://www.w3.org/1999/xlink" x="0px" y="0px"
	 width="72px" height="72px" viewBox="0 0 72 72" enable-background="new 0 0 72 72" xml:space="preserve">
<g>
	<path fill="#292929" d="M16.183,65.048c-3.109,0-5.631-2.52-5.631-5.629V6.952H9.23c-3.109,0-5.631,2.521-5.631,5.631v53.789
		C3.6,69.48,6.121,72,9.23,72h46.589c3.109,0,5.629-2.52,5.629-5.629v-1.323H16.183z"/>
	<path fill="#292929" d="M62.771,0h-3.973v3.973h3.973V0L62.771,0L62.771,0z M54.826,0h-3.973v3.973h3.973V0L54.826,0z M46.882,0
		h-3.973v3.973h3.973V0L46.882,0z M38.937,0h-3.973v3.973h3.973V0L38.937,0z M30.991,0H27.02v3.973h3.972V0L30.991,0z M23.047,0
		h-3.973v3.973h3.973V0L23.047,0z M15.108,0.103c-1.142,0.22-2.159,0.785-2.943,1.583l0,0c-0.016,0.016-0.031,0.032-0.046,0.048
		c-0.001,0-0.001,0-0.001,0.001c-0.002,0.001-0.003,0.003-0.005,0.005l-0.001,0c-0.002,0.002-0.003,0.003-0.005,0.005
		c0,0-0.001,0-0.001,0.001c-0.002,0.002-0.003,0.003-0.005,0.005l-0.001,0c-0.002,0.002-0.004,0.004-0.005,0.006h-0.001
		c-0.008,0.008-0.015,0.017-0.022,0.025l-0.001,0c-0.002,0.001-0.003,0.003-0.005,0.005c0,0-0.001,0.001-0.001,0.001
		c-0.002,0.002-0.003,0.003-0.005,0.004c0,0-0.001,0.001-0.001,0.001c-0.002,0.002-0.003,0.003-0.005,0.005
		c0,0-0.001,0.001-0.001,0.001c-0.001,0.001-0.003,0.003-0.004,0.004c-0.001,0-0.001,0.001-0.002,0.002
		c-0.001,0.001-0.003,0.003-0.004,0.004c-0.001,0-0.001,0.001-0.002,0.001c-0.001,0.001-0.002,0.003-0.004,0.004
		c0,0-0.001,0.001-0.001,0.002c-0.002,0.001-0.003,0.003-0.005,0.004c0,0-0.001,0.001-0.001,0.001
		c-0.002,0.002-0.004,0.003-0.005,0.005c-0.001,0-0.001,0-0.001,0c-0.002,0.002-0.004,0.004-0.006,0.006c0,0,0,0,0,0.001
		c-0.002,0.001-0.003,0.003-0.005,0.005c-0.001,0.001-0.002,0.001-0.002,0.002c-0.001,0.001-0.003,0.002-0.004,0.003
		s-0.001,0.002-0.002,0.003s-0.002,0.002-0.003,0.003s-0.002,0.001-0.003,0.002C12,1.86,11.999,1.861,11.998,1.862
		s-0.002,0.001-0.002,0.002c-0.001,0.001-0.002,0.002-0.003,0.003S11.991,1.87,11.99,1.871c-0.001,0-0.002,0.002-0.002,0.003
		c-0.001,0.001-0.002,0.002-0.003,0.003s-0.002,0.002-0.002,0.003c-0.001,0.001-0.002,0.002-0.003,0.003s-0.002,0.002-0.003,0.003
		s-0.002,0.002-0.003,0.003c0,0-0.001,0.001-0.001,0.001c-0.005,0.005-0.009,0.01-0.013,0.015c-0.001,0-0.001,0.001-0.002,0.001
		c-0.001,0.001-0.002,0.003-0.004,0.004c0,0-0.001,0.001-0.001,0.002c-0.002,0.001-0.003,0.002-0.004,0.004
		c-0.001,0-0.001,0.001-0.002,0.002c-0.001,0.001-0.002,0.002-0.003,0.004c-0.001,0.001-0.002,0.001-0.002,0.002
		c-0.001,0.001-0.003,0.003-0.004,0.004c0,0.001-0.001,0.001-0.002,0.002s-0.002,0.002-0.003,0.003
		c-0.001,0-0.001,0.001-0.002,0.001c-0.001,0.002-0.002,0.003-0.004,0.005c0,0,0,0-0.001,0.001C11.878,2,11.829,2.059,11.781,2.119
		l3.104,2.48c0.247-0.311,0.595-0.522,0.977-0.596L15.108,0.103L15.108,0.103z M14.523,5.81h-3.972v3.973h3.972V5.81L14.523,5.81z
		 M14.523,13.755h-3.972v3.973h3.972V13.755L14.523,13.755z M14.523,21.7h-3.972v3.973h3.972V21.7L14.523,21.7z M14.523,29.645
		h-3.972v3.973h3.972V29.645L14.523,29.645z M14.523,37.59h-3.972v3.972h3.972V37.59L14.523,37.59z M14.523,45.534h-3.972v3.973
		h3.972V45.534L14.523,45.534z M14.523,53.479h-3.972v3.972h3.972V53.479L14.523,53.479z M14.626,59.996l-3.723,1.387
		c0.116,0.313,0.261,0.615,0.431,0.9l0,0c0.016,0.027,0.032,0.054,0.048,0.08v0.001c0.017,0.025,0.033,0.052,0.049,0.078l0,0
		c0.048,0.073,0.098,0.146,0.147,0.218l0,0c0.02,0.028,0.039,0.056,0.059,0.083l0,0c0.015,0.019,0.028,0.037,0.042,0.055l0,0
		c0.002,0.002,0.003,0.004,0.005,0.007l0,0c0.002,0.002,0.003,0.004,0.005,0.006l0,0c0.016,0.021,0.03,0.041,0.046,0.062l0,0
		c0.002,0.002,0.004,0.004,0.005,0.007l0,0c0.002,0.002,0.003,0.004,0.005,0.006l0,0c0.017,0.021,0.032,0.041,0.049,0.06l0,0
		c0.039,0.049,0.077,0.097,0.118,0.143c0,0,0,0,0,0.001c0.002,0.002,0.004,0.003,0.005,0.005c0,0,0,0,0,0.001
		c0.019,0.021,0.038,0.042,0.057,0.063l0,0c0.002,0.002,0.004,0.004,0.005,0.006l0,0c0.019,0.021,0.037,0.043,0.057,0.063l0,0
		c0.404,0.44,0.878,0.816,1.402,1.11l1.939-3.468C15.029,60.675,14.764,60.365,14.626,59.996L14.626,59.996z M21.26,61.076h-3.973
		v3.972h3.973V61.076L21.26,61.076z M29.204,61.076h-3.973v3.972h3.973V61.076L29.204,61.076z M37.149,61.076h-3.973v3.972h3.973
		V61.076L37.149,61.076z M45.094,61.076h-3.972v3.972h3.972V61.076L45.094,61.076z M53.039,61.076h-3.973v3.972h3.973V61.076
		L53.039,61.076z M60.983,61.076h-3.972v3.972h3.972V61.076L60.983,61.076z M64.245,60.178c-0.183,0.353-0.482,0.628-0.848,0.777
		l1.505,3.676c0.001-0.001,0.002-0.001,0.003-0.002c0.001,0,0.001,0,0.002,0c0.002-0.001,0.004-0.002,0.007-0.003
		c0,0,0-0.001,0.001-0.001c0.002-0.001,0.005-0.002,0.007-0.003h0.001c0.011-0.005,0.021-0.008,0.031-0.013h0.001
		c0.002-0.001,0.005-0.002,0.007-0.003h0.001c0.002-0.001,0.005-0.002,0.007-0.003l0.001-0.001c0.003-0.001,0.005-0.002,0.007-0.003
		c0.001,0,0.001,0,0.001,0c0.003-0.001,0.005-0.002,0.007-0.003c0.001,0,0.001,0,0.001-0.001c0.003-0.001,0.005-0.002,0.007-0.003
		c0.001,0,0.001,0,0.001,0c0.021-0.009,0.042-0.019,0.063-0.027l0,0c0.592-0.263,1.129-0.626,1.592-1.065v-0.001
		c0.002-0.001,0.004-0.003,0.006-0.005c0.001,0,0.001-0.001,0.001-0.001c0.002-0.001,0.004-0.003,0.006-0.004v-0.001
		c0.002-0.002,0.004-0.003,0.006-0.005c0,0,0,0,0-0.001c0.015-0.014,0.028-0.027,0.043-0.041l0,0
		c0.002-0.002,0.004-0.004,0.006-0.006c0,0,0,0,0.001,0c0.001-0.002,0.003-0.004,0.005-0.006c0,0,0.001,0,0.001-0.001
		c0.002-0.001,0.003-0.003,0.004-0.005c0,0,0.001,0,0.001-0.001c0.002-0.001,0.004-0.003,0.005-0.005c0.001,0,0.001,0,0.001-0.001
		c0.002-0.001,0.004-0.003,0.006-0.005c0,0,0,0,0-0.001c0.01-0.01,0.02-0.02,0.03-0.029c0,0,0,0,0-0.001
		c0.002-0.001,0.004-0.003,0.005-0.005c0.001,0,0.001-0.001,0.002-0.001c0.001-0.002,0.003-0.003,0.004-0.005
		c0.001-0.001,0.001-0.001,0.002-0.001c0.001-0.002,0.003-0.004,0.004-0.005s0.001-0.001,0.002-0.002s0.003-0.003,0.004-0.004
		s0.001-0.001,0.002-0.002s0.003-0.003,0.004-0.004s0.001-0.001,0.002-0.001c0.001-0.001,0.003-0.003,0.005-0.005c0,0,0,0,0-0.001
		c0.002-0.002,0.004-0.003,0.006-0.006l0,0c0.006-0.006,0.012-0.012,0.018-0.018c0.001-0.001,0.001-0.001,0.001-0.001
		c0.002-0.002,0.003-0.004,0.005-0.005c0.001-0.001,0.001-0.001,0.001-0.002c0.002-0.001,0.003-0.003,0.005-0.005
		c0.001,0,0.001-0.001,0.002-0.001c0.001-0.002,0.002-0.003,0.004-0.004c0-0.001,0.001-0.002,0.002-0.003s0.002-0.002,0.004-0.004
		c0,0,0.001-0.001,0.001-0.002c0.002-0.001,0.003-0.002,0.004-0.004c0.001-0.001,0.002-0.001,0.002-0.002
		c0.002-0.001,0.003-0.003,0.004-0.004s0.001-0.001,0.002-0.002c0.002-0.001,0.003-0.003,0.003-0.004
		c0.001-0.001,0.001-0.002,0.002-0.002c0.002-0.002,0.003-0.004,0.005-0.005c0-0.001,0-0.001,0.001-0.001
		c0.003-0.004,0.007-0.008,0.011-0.013h0.001c0.001-0.002,0.003-0.004,0.005-0.006c0.001,0,0.001-0.001,0.002-0.002
		s0.002-0.002,0.004-0.004c0,0,0.001-0.001,0.001-0.002c0.002-0.001,0.003-0.003,0.004-0.004s0.002-0.001,0.002-0.002
		c0.002-0.002,0.003-0.003,0.004-0.004s0.001-0.002,0.002-0.002c0.001-0.002,0.003-0.003,0.004-0.004s0.001-0.002,0.002-0.003
		s0.002-0.002,0.004-0.004c0,0,0.001-0.001,0.001-0.002c0.002-0.001,0.003-0.003,0.004-0.004s0.002-0.001,0.002-0.002
		c0.001-0.001,0.003-0.003,0.004-0.004s0.001-0.001,0.002-0.001c0.001-0.002,0.003-0.003,0.004-0.005
		c0.001,0,0.001-0.001,0.002-0.002c0.003-0.004,0.007-0.008,0.011-0.012c0.001-0.001,0.001-0.001,0.002-0.002
		c0.001-0.002,0.002-0.003,0.003-0.004s0.002-0.002,0.003-0.003s0.002-0.002,0.003-0.003s0.002-0.002,0.002-0.003
		c0.002-0.001,0.003-0.002,0.004-0.004c0-0.001,0.001-0.001,0.002-0.002c0.001-0.002,0.002-0.003,0.003-0.004
		s0.002-0.002,0.003-0.003s0.002-0.002,0.003-0.003s0.001-0.002,0.002-0.003s0.002-0.002,0.003-0.003s0.002-0.002,0.003-0.003
		s0.002-0.002,0.003-0.004c0.001-0.001,0.002-0.001,0.002-0.002c0.001-0.002,0.002-0.003,0.003-0.004s0.002-0.002,0.003-0.003
		s0.002-0.002,0.003-0.003S67,63.136,67,63.135c0.002-0.002,0.004-0.003,0.005-0.005c0.001-0.001,0.002-0.003,0.003-0.004
		c0-0.001,0.001-0.002,0.002-0.003s0.002-0.003,0.003-0.004s0.002-0.002,0.003-0.003s0.002-0.002,0.003-0.003
		s0.002-0.002,0.002-0.003c0.001-0.001,0.002-0.002,0.003-0.003s0.002-0.002,0.003-0.003s0.002-0.003,0.003-0.004
		s0.001-0.001,0.002-0.002c0.001-0.002,0.002-0.003,0.003-0.004s0.002-0.002,0.002-0.003c0.001-0.001,0.003-0.002,0.004-0.003
		c0-0.001,0.001-0.002,0.002-0.003s0.002-0.002,0.003-0.003s0.001-0.002,0.002-0.003s0.002-0.003,0.003-0.004
		s0.002-0.001,0.002-0.002c0.001-0.001,0.003-0.003,0.004-0.004c0,0,0.001,0,0.001-0.001c0.006-0.007,0.012-0.014,0.018-0.021
		c0.001-0.001,0.001-0.001,0.002-0.002s0.002-0.003,0.003-0.004s0.002-0.002,0.002-0.002c0.001-0.002,0.002-0.003,0.003-0.004
		s0.002-0.002,0.003-0.003s0.002-0.002,0.003-0.004c0.001,0,0.001-0.001,0.002-0.002s0.002-0.003,0.003-0.004
		s0.002-0.002,0.002-0.002c0.001-0.002,0.002-0.003,0.004-0.005c0,0,0.001-0.001,0.001-0.002c0.002-0.001,0.003-0.002,0.004-0.004
		c0-0.001,0.001-0.001,0.001-0.002c0.002-0.001,0.003-0.003,0.004-0.004c0-0.001,0.001-0.001,0.001-0.001
		c0.008-0.01,0.016-0.02,0.023-0.029c0.001,0,0.001,0,0.001,0c0.001-0.002,0.003-0.004,0.004-0.006c0,0,0.001,0,0.001-0.001
		c0.001-0.001,0.003-0.003,0.004-0.005l0.001-0.001c0.002-0.002,0.003-0.003,0.003-0.005c0.001-0.001,0.001-0.001,0.001-0.002
		c0.002-0.001,0.003-0.003,0.004-0.004s0.001-0.002,0.001-0.002c0.002-0.002,0.003-0.003,0.005-0.005v-0.001
		c0.002-0.002,0.003-0.004,0.005-0.005c0-0.001,0-0.001,0.001-0.002s0.002-0.003,0.004-0.005l0,0
		c0.008-0.009,0.016-0.02,0.024-0.029l0,0c0.001-0.002,0.003-0.004,0.004-0.006h0.001c0.001-0.002,0.003-0.004,0.004-0.006
		l0.001-0.001c0.001-0.002,0.003-0.004,0.004-0.005c0-0.001,0.001-0.001,0.001-0.001c0.001-0.002,0.003-0.004,0.004-0.006
		c0,0,0.001,0,0.001-0.001c0.001-0.002,0.003-0.003,0.004-0.005c0,0,0-0.001,0.001-0.001c0.001-0.002,0.003-0.004,0.004-0.006l0,0
		c0.01-0.013,0.02-0.024,0.028-0.036v-0.001c0.002-0.002,0.003-0.004,0.005-0.006l0,0c0.002-0.002,0.003-0.004,0.005-0.006
		c0,0,0,0,0-0.001c0.002-0.002,0.003-0.004,0.005-0.005c0-0.001,0-0.001,0-0.001c0.001-0.002,0.003-0.004,0.004-0.006
		c0.001,0,0.001,0,0.001,0c0.016-0.02,0.029-0.041,0.045-0.062l0,0c0.002-0.002,0.003-0.005,0.005-0.007l0,0
		c0.169-0.23,0.321-0.477,0.453-0.732L64.245,60.178L64.245,60.178z M68.4,54.16h-3.973v3.973H68.4V54.16L68.4,54.16z M68.4,46.215
		h-3.973v3.973H68.4V46.215L68.4,46.215z M68.4,38.271h-3.973v3.973H68.4V38.271L68.4,38.271z M68.4,30.326h-3.973v3.972H68.4
		V30.326L68.4,30.326z M68.4,22.381h-3.973v3.972H68.4V22.381L68.4,22.381z M68.4,14.436h-3.973v3.972H68.4V14.436L68.4,14.436z
		 M68.4,6.491h-3.973v3.972H68.4V6.491L68.4,6.491z M64.502,0.271l-1.22,3.78c0.372,0.121,0.692,0.373,0.901,0.711l3.38-2.088
		c-0.169-0.272-0.36-0.53-0.571-0.769l0,0c-0.014-0.016-0.027-0.031-0.041-0.046l0,0c-0.002-0.002-0.003-0.004-0.005-0.005
		c0,0,0,0-0.001,0c-0.001-0.002-0.003-0.004-0.005-0.005c0,0,0,0,0,0c-0.002-0.002-0.003-0.003-0.005-0.005c0,0,0,0,0,0
		c-0.002-0.002-0.004-0.003-0.005-0.005c-0.001,0-0.001,0-0.001,0c-0.002-0.002-0.003-0.004-0.005-0.005l0,0
		c-0.011-0.011-0.021-0.023-0.031-0.034l0,0c-0.002-0.002-0.003-0.003-0.005-0.004c0,0-0.001-0.001-0.001-0.001
		c-0.001-0.001-0.003-0.003-0.004-0.004c-0.001,0-0.001-0.001-0.002-0.001c-0.001-0.001-0.002-0.003-0.004-0.004
		c0,0-0.001,0-0.001-0.001c-0.002-0.001-0.003-0.003-0.005-0.004c0,0,0,0-0.001-0.001c-0.001-0.001-0.003-0.003-0.004-0.005
		c0,0,0,0,0-0.001c-0.002-0.001-0.003-0.003-0.005-0.005c0,0,0,0,0,0c-0.009-0.009-0.018-0.018-0.026-0.027c0,0,0,0,0,0
		c-0.002-0.001-0.004-0.003-0.005-0.005c0,0-0.001,0-0.001-0.001c-0.002-0.001-0.003-0.003-0.004-0.004
		c-0.001,0-0.001-0.001-0.002-0.001s-0.003-0.002-0.004-0.003c-0.001-0.001-0.001-0.001-0.002-0.001
		c-0.001-0.001-0.002-0.003-0.004-0.004c0,0-0.001-0.001-0.001-0.001c-0.002-0.001-0.003-0.003-0.004-0.004
		c-0.001,0-0.001-0.001-0.002-0.001c-0.001-0.001-0.003-0.003-0.004-0.004S66.803,1.701,66.802,1.7
		c-0.001-0.001-0.002-0.002-0.004-0.004c0,0-0.001-0.001-0.001-0.001c-0.007-0.007-0.014-0.014-0.021-0.021c0,0,0,0,0,0
		c-0.002-0.001-0.003-0.003-0.005-0.004c0,0-0.001-0.001-0.001-0.001c-0.002-0.001-0.003-0.002-0.004-0.004
		c-0.001,0-0.002-0.001-0.002-0.002c-0.001-0.001-0.003-0.002-0.004-0.003s-0.001-0.001-0.002-0.002s-0.003-0.002-0.004-0.003
		c0,0-0.001-0.001-0.002-0.001c-0.001-0.001-0.002-0.002-0.004-0.004c0,0-0.001-0.001-0.001-0.002
		c-0.002-0.001-0.003-0.002-0.004-0.003s-0.002-0.001-0.002-0.002c-0.002-0.001-0.003-0.002-0.004-0.004
		c-0.001,0-0.001-0.001-0.002-0.002c-0.001-0.001-0.003-0.002-0.004-0.004c-0.001,0-0.001,0-0.001-0.001
		c-0.005-0.005-0.009-0.01-0.014-0.015c-0.001,0-0.001,0-0.001-0.001c-0.002-0.001-0.003-0.002-0.004-0.004
		c-0.001,0-0.002-0.001-0.002-0.001c-0.001-0.001-0.003-0.002-0.004-0.004c-0.001,0-0.001-0.001-0.002-0.002
		c-0.001-0.001-0.003-0.002-0.004-0.003S66.7,1.598,66.699,1.597s-0.002-0.002-0.004-0.003c0-0.001-0.001-0.002-0.002-0.002
		c-0.001-0.001-0.002-0.002-0.004-0.003c0,0-0.001-0.001-0.002-0.002s-0.002-0.002-0.003-0.003c-0.001,0-0.002-0.001-0.003-0.002
		c-0.001-0.001-0.002-0.002-0.003-0.003s-0.002-0.001-0.003-0.002s-0.002-0.002-0.003-0.003S66.671,1.57,66.67,1.569
		s-0.002-0.002-0.003-0.003c-0.001,0-0.002-0.002-0.003-0.002c-0.001-0.001-0.002-0.002-0.003-0.003s-0.002-0.001-0.002-0.002
		c-0.003-0.002-0.005-0.004-0.007-0.006c-0.001-0.001-0.002-0.002-0.003-0.003s-0.002-0.001-0.003-0.002s-0.002-0.002-0.003-0.003
		s-0.002-0.002-0.003-0.003s-0.002-0.002-0.003-0.003s-0.002-0.002-0.003-0.002c-0.001-0.001-0.002-0.002-0.003-0.003
		c-0.001,0-0.002-0.001-0.003-0.002s-0.003-0.002-0.004-0.003s-0.001-0.002-0.002-0.002c-0.001-0.001-0.003-0.002-0.004-0.003
		c-0.001,0-0.002-0.001-0.002-0.002c-0.002-0.001-0.003-0.002-0.004-0.003s-0.002-0.002-0.003-0.002
		c-0.001-0.001-0.002-0.001-0.003-0.002s-0.002-0.002-0.003-0.003s-0.002-0.002-0.003-0.003S66.6,1.503,66.599,1.502
		c-0.001-0.001-0.003-0.002-0.004-0.004c-0.001,0-0.001-0.001-0.002-0.002c-0.002-0.001-0.004-0.003-0.006-0.005
		c-0.001-0.001-0.001-0.001-0.001-0.002c-0.001-0.001-0.003-0.002-0.004-0.004c-0.001,0-0.002-0.001-0.003-0.002
		c-0.001-0.001-0.002-0.002-0.003-0.003s-0.002-0.001-0.003-0.002s-0.002-0.002-0.003-0.003s-0.002-0.002-0.003-0.002
		c-0.001-0.001-0.002-0.002-0.004-0.003c-0.001,0-0.001-0.001-0.002-0.002s-0.003-0.002-0.004-0.003s-0.002-0.001-0.003-0.002
		s-0.002-0.002-0.003-0.003s-0.002-0.001-0.003-0.002s-0.002-0.002-0.003-0.003c-0.001,0-0.002-0.001-0.003-0.002
		c-0.001-0.001-0.003-0.002-0.004-0.004c-0.001,0-0.001-0.001-0.002-0.001c-0.002-0.001-0.003-0.003-0.005-0.004
		c0,0-0.001-0.001-0.001-0.001c-0.005-0.003-0.009-0.007-0.013-0.011c0,0-0.001-0.001-0.001-0.001
		c-0.002-0.001-0.004-0.003-0.005-0.005c-0.001,0-0.001-0.001-0.002-0.001c-0.001-0.001-0.003-0.002-0.004-0.003
		s-0.002-0.001-0.003-0.002S66.502,1.414,66.5,1.413c-0.001,0-0.001-0.001-0.002-0.002s-0.003-0.002-0.004-0.003
		c-0.001,0-0.002-0.001-0.002-0.002c-0.002-0.001-0.003-0.002-0.004-0.003S66.486,1.4,66.485,1.4
		c-0.001-0.001-0.002-0.002-0.004-0.003c0-0.001-0.001-0.001-0.002-0.002c-0.001-0.001-0.003-0.002-0.004-0.004
		c-0.001,0-0.002-0.001-0.002-0.001c-0.002-0.001-0.003-0.003-0.005-0.004c-0.001,0-0.001,0-0.002-0.001
		c-0.004-0.004-0.008-0.007-0.012-0.011c-0.001,0-0.001,0-0.001,0c-0.002-0.001-0.004-0.002-0.006-0.004c0,0-0.001,0-0.001-0.001
		c-0.002-0.001-0.003-0.003-0.004-0.004c-0.001,0-0.001-0.001-0.002-0.001c-0.001-0.001-0.003-0.003-0.005-0.004
		c0,0-0.001-0.001-0.002-0.001c-0.001-0.001-0.002-0.002-0.004-0.003C66.43,1.351,66.43,1.351,66.429,1.35
		c-0.002-0.001-0.003-0.002-0.004-0.004c-0.001,0-0.002-0.001-0.003-0.001c-0.001-0.001-0.002-0.002-0.004-0.003
		c-0.001-0.001-0.001-0.001-0.002-0.002c-0.001-0.001-0.003-0.002-0.004-0.003S66.41,1.334,66.41,1.334
		c-0.002-0.001-0.003-0.002-0.005-0.003c0-0.001-0.001-0.001-0.002-0.002c-0.002-0.001-0.003-0.003-0.005-0.004
		c-0.001,0-0.001,0-0.001-0.001c-0.005-0.003-0.009-0.007-0.013-0.011c-0.001,0-0.001,0-0.001,0
		c-0.002-0.001-0.004-0.003-0.006-0.005l-0.001-0.001c-0.002-0.001-0.004-0.003-0.005-0.004c-0.001,0-0.002-0.001-0.002-0.001
		c-0.002-0.001-0.003-0.002-0.005-0.003c0,0-0.001-0.001-0.002-0.002s-0.003-0.002-0.004-0.003c-0.001,0-0.002-0.001-0.002-0.002
		c-0.002-0.001-0.003-0.002-0.005-0.003c0,0-0.001-0.001-0.002-0.001c-0.001-0.001-0.003-0.002-0.004-0.004
		c-0.001,0-0.002-0.001-0.002-0.001c-0.002-0.001-0.003-0.002-0.005-0.004c-0.001,0-0.001-0.001-0.002-0.001
		c-0.002-0.001-0.003-0.002-0.005-0.004c0,0-0.001,0-0.001-0.001c-0.002-0.002-0.004-0.003-0.006-0.005l-0.001,0
		c-0.004-0.003-0.009-0.007-0.013-0.011c-0.001,0-0.001,0-0.001,0c-0.002-0.001-0.004-0.003-0.006-0.004
		c0,0-0.001-0.001-0.001-0.001c-0.001-0.001-0.003-0.002-0.004-0.004c-0.001,0-0.002-0.001-0.002-0.001
		c-0.002-0.001-0.003-0.002-0.005-0.003c0,0-0.001-0.001-0.002-0.002c-0.002-0.001-0.003-0.002-0.004-0.003
		c-0.001,0-0.002-0.001-0.003-0.001c-0.001-0.001-0.003-0.002-0.004-0.003c-0.001,0-0.001-0.001-0.002-0.001
		c-0.002-0.001-0.003-0.002-0.005-0.003c-0.001,0-0.001-0.001-0.002-0.001c-0.002-0.001-0.003-0.003-0.005-0.004
		c0,0-0.001,0-0.001-0.001c-0.002-0.001-0.004-0.003-0.006-0.004c0,0-0.001,0-0.001,0c-0.007-0.005-0.013-0.01-0.02-0.016
		c0,0-0.001,0-0.001,0c-0.002-0.001-0.004-0.003-0.006-0.004c0,0-0.001-0.001-0.001-0.001c-0.002-0.001-0.004-0.002-0.006-0.004
		c0,0-0.001-0.001-0.001-0.001c-0.002-0.001-0.003-0.003-0.005-0.004c-0.001,0-0.001-0.001-0.002-0.001
		c-0.002-0.001-0.003-0.002-0.005-0.004c0,0-0.001-0.001-0.002-0.001c-0.001-0.001-0.003-0.003-0.005-0.004
		c0,0-0.001-0.001-0.001-0.001c-0.002-0.001-0.004-0.002-0.006-0.004c0,0-0.001,0-0.001-0.001c-0.002-0.001-0.004-0.003-0.006-0.004
		c0,0,0,0-0.001-0.001c-0.002-0.001-0.004-0.003-0.006-0.005l0,0c-0.005-0.003-0.01-0.007-0.014-0.01l0,0
		c-0.003-0.001-0.005-0.003-0.007-0.005c0,0-0.001,0-0.001-0.001c-0.001-0.001-0.003-0.002-0.005-0.004c0,0-0.001-0.001-0.001-0.001
		c-0.002-0.001-0.004-0.003-0.006-0.004c0,0-0.001-0.001-0.001-0.001c-0.002-0.001-0.003-0.002-0.005-0.003
		c-0.001,0-0.002-0.001-0.002-0.001c-0.002-0.001-0.003-0.002-0.005-0.003c-0.001-0.001-0.001-0.001-0.002-0.002
		c-0.002-0.001-0.003-0.002-0.005-0.003c-0.001,0-0.001-0.001-0.002-0.001c-0.002-0.001-0.003-0.002-0.005-0.004
		c-0.001,0-0.001,0-0.002-0.001c-0.002-0.001-0.004-0.003-0.006-0.004c0,0,0,0,0,0c-0.007-0.005-0.014-0.01-0.021-0.014
		c0,0-0.001,0-0.001-0.001c-0.002-0.001-0.004-0.003-0.006-0.004c0,0-0.001-0.001-0.001-0.001c-0.002-0.001-0.004-0.002-0.006-0.003
		c0,0-0.001-0.001-0.002-0.001c-0.001-0.001-0.003-0.002-0.005-0.003c0,0-0.001-0.001-0.001-0.001
		c-0.002-0.001-0.004-0.002-0.005-0.003c-0.001,0-0.002-0.001-0.002-0.001c-0.002-0.001-0.004-0.002-0.005-0.004
		c-0.001,0-0.002,0-0.002-0.001c-0.002-0.001-0.004-0.002-0.006-0.004c0,0-0.001,0-0.001-0.001
		c-0.002-0.001-0.004-0.003-0.006-0.004c0,0-0.001,0-0.001-0.001c-0.002-0.001-0.004-0.003-0.006-0.004c-0.001,0-0.001,0-0.001,0
		c-0.007-0.005-0.014-0.01-0.02-0.015l-0.001,0c-0.002-0.001-0.004-0.003-0.006-0.004c0,0-0.001-0.001-0.001-0.001
		c-0.002-0.001-0.004-0.002-0.006-0.003c0,0-0.001-0.001-0.001-0.001c-0.002-0.001-0.004-0.002-0.005-0.003
		c-0.001,0-0.002,0-0.003-0.001C66,1.018,65.998,1.016,65.997,1.015c-0.001,0-0.002-0.001-0.003-0.001
		c-0.001-0.001-0.003-0.002-0.004-0.003c-0.001,0-0.002-0.001-0.002-0.001c-0.002-0.001-0.004-0.002-0.006-0.004
		c0,0-0.001,0-0.001-0.001C65.979,1.003,65.978,1.002,65.976,1c0,0-0.001,0-0.001-0.001c-0.007-0.004-0.015-0.009-0.021-0.014l0,0
		c-0.002-0.001-0.004-0.003-0.006-0.004c-0.001,0-0.002-0.001-0.002-0.001c-0.002-0.001-0.004-0.002-0.005-0.003
		c-0.001,0-0.002-0.001-0.002-0.001c-0.002-0.001-0.004-0.002-0.005-0.003c-0.001,0-0.002-0.001-0.003-0.001
		c-0.001-0.001-0.003-0.002-0.004-0.003c-0.001,0-0.002-0.001-0.003-0.001c-0.001-0.001-0.003-0.002-0.004-0.003
		c-0.001,0-0.002-0.001-0.003-0.002s-0.003-0.002-0.005-0.003c0,0-0.001-0.001-0.002-0.001c-0.002-0.001-0.003-0.002-0.005-0.003
		c-0.001,0-0.001,0-0.002-0.001c-0.002-0.001-0.004-0.002-0.006-0.004c0,0,0,0-0.001,0c-0.007-0.005-0.014-0.01-0.02-0.014
		c0,0,0,0-0.001,0c-0.002-0.001-0.004-0.003-0.006-0.004c-0.001,0-0.001,0-0.001,0c-0.002-0.001-0.004-0.002-0.006-0.004
		c-0.001,0-0.001,0-0.002-0.001c-0.002-0.001-0.003-0.002-0.005-0.003c-0.001,0-0.001-0.001-0.002-0.001
		c-0.002-0.001-0.004-0.002-0.006-0.004c0,0-0.001,0-0.001-0.001c-0.002-0.001-0.004-0.002-0.006-0.003c0,0-0.001-0.001-0.001-0.001
		c-0.002-0.001-0.004-0.002-0.006-0.003c0,0-0.001-0.001-0.002-0.001c-0.002-0.001-0.004-0.002-0.006-0.003c0,0,0,0-0.001-0.001
		c-0.002-0.001-0.004-0.002-0.006-0.004c0,0-0.001,0-0.001,0c-0.005-0.003-0.009-0.006-0.014-0.009c-0.001,0-0.001,0-0.001,0
		c-0.002-0.001-0.004-0.003-0.007-0.004c0,0,0,0-0.001,0c-0.002-0.001-0.004-0.003-0.006-0.003c0,0-0.001,0-0.001-0.001
		c-0.002-0.001-0.004-0.002-0.006-0.003c-0.001,0-0.001-0.001-0.002-0.001c-0.001-0.001-0.003-0.002-0.005-0.003
		c-0.001,0-0.001-0.001-0.002-0.001c-0.002-0.001-0.003-0.002-0.005-0.003c-0.001,0-0.002-0.001-0.002-0.001
		c-0.002-0.001-0.004-0.002-0.006-0.003c0,0-0.001,0-0.001-0.001c-0.002-0.001-0.004-0.002-0.006-0.003c0,0-0.001,0-0.002-0.001
		c-0.002-0.001-0.004-0.002-0.006-0.004c0,0,0,0-0.001,0c-0.006-0.004-0.013-0.009-0.021-0.013c0,0,0,0-0.001,0
		c-0.002-0.001-0.004-0.002-0.006-0.004c0,0-0.001,0-0.002-0.001c-0.002-0.001-0.003-0.002-0.005-0.003
		c-0.001,0-0.001-0.001-0.002-0.001c-0.002-0.001-0.004-0.002-0.005-0.003c-0.001,0-0.002-0.001-0.003-0.001
		C65.702,0.822,65.7,0.821,65.698,0.82c0,0-0.001,0-0.002-0.001c-0.002-0.001-0.003-0.002-0.005-0.003
		c-0.001,0-0.001-0.001-0.002-0.001c-0.002-0.001-0.003-0.002-0.005-0.003c-0.001,0-0.002-0.001-0.002-0.001
		c-0.002-0.001-0.004-0.001-0.006-0.002c0,0-0.001-0.001-0.002-0.001c-0.002-0.001-0.004-0.002-0.006-0.003c0,0,0,0-0.001,0
		c-0.007-0.004-0.015-0.009-0.021-0.013l-0.001,0c-0.002-0.001-0.004-0.002-0.006-0.004c-0.001,0-0.001,0-0.002,0
		c-0.002-0.001-0.004-0.002-0.005-0.003c-0.001,0-0.002-0.001-0.003-0.001c-0.001-0.001-0.003-0.002-0.005-0.003
		c-0.001,0-0.001-0.001-0.002-0.001c-0.002,0-0.004-0.002-0.005-0.002s-0.002-0.001-0.002-0.001
		c-0.002-0.001-0.004-0.002-0.006-0.003c0,0-0.001-0.001-0.002-0.001c-0.001-0.001-0.003-0.002-0.005-0.003
		c-0.001,0-0.001,0-0.002-0.001c-0.001-0.001-0.003-0.002-0.005-0.003c0,0-0.001,0-0.001-0.001
		c-0.003-0.001-0.005-0.002-0.007-0.004h-0.001c-0.005-0.003-0.01-0.006-0.015-0.009c0,0,0,0-0.001,0
		c-0.002-0.001-0.004-0.002-0.006-0.003c-0.001,0-0.001,0-0.002-0.001c-0.001-0.001-0.004-0.002-0.005-0.003
		c-0.001,0-0.002,0-0.002-0.001c-0.002-0.001-0.004-0.002-0.006-0.003c-0.001,0-0.001,0-0.002-0.001
		c-0.002-0.001-0.003-0.002-0.005-0.003c-0.001,0-0.002-0.001-0.002-0.001c-0.002-0.001-0.004-0.002-0.006-0.003
		c0,0-0.001,0-0.002-0.001c-0.002-0.001-0.003-0.002-0.005-0.003c-0.001,0-0.002-0.001-0.002-0.001
		c-0.002-0.001-0.004-0.002-0.006-0.003c0,0-0.001,0-0.002-0.001c-0.002-0.001-0.003-0.002-0.005-0.003
		c-0.001,0-0.002-0.001-0.002-0.001c-0.008-0.004-0.015-0.008-0.022-0.012c0,0,0,0-0.001-0.001
		c-0.002-0.001-0.004-0.002-0.006-0.003c-0.001,0-0.001-0.001-0.002-0.001c-0.002-0.001-0.004-0.002-0.005-0.003
		c-0.001,0-0.002,0-0.003-0.001c-0.002-0.001-0.003-0.002-0.005-0.003c-0.001,0-0.002-0.001-0.002-0.001
		c-0.002,0-0.003-0.001-0.005-0.002c-0.001,0-0.002-0.001-0.002-0.001c-0.001,0-0.003-0.001-0.005-0.002
		c0,0-0.001-0.001-0.002-0.001c-0.002-0.001-0.004-0.001-0.005-0.002c-0.001,0-0.002-0.001-0.003-0.001
		c-0.002-0.001-0.003-0.002-0.005-0.003c-0.001,0-0.001,0-0.002-0.001c-0.002-0.001-0.004-0.002-0.006-0.003
		c-0.001,0-0.001,0-0.002,0c-0.005-0.002-0.01-0.005-0.015-0.008c0,0,0,0,0,0c-0.002-0.001-0.005-0.002-0.007-0.003
		c-0.001,0-0.001,0-0.002-0.001c-0.002-0.001-0.004-0.002-0.006-0.003c-0.001,0-0.001-0.001-0.002-0.001
		c-0.002,0-0.003-0.001-0.005-0.002c-0.001,0-0.002-0.001-0.003-0.001c-0.001-0.001-0.003-0.001-0.005-0.002
		c-0.001,0-0.001-0.001-0.002-0.001c-0.002,0-0.004-0.001-0.005-0.002c-0.001,0-0.002-0.001-0.003-0.001
		c-0.002,0-0.003-0.001-0.005-0.002c-0.001,0-0.002-0.001-0.002-0.001c-0.002-0.001-0.004-0.002-0.006-0.003
		c0,0-0.001,0-0.002-0.001c-0.002-0.001-0.004-0.002-0.005-0.003c-0.001,0-0.002,0-0.002-0.001
		c-0.002-0.001-0.004-0.002-0.006-0.003c-0.001,0-0.002,0-0.002-0.001c-0.005-0.002-0.01-0.005-0.015-0.007
		c-0.001,0-0.002-0.001-0.002-0.001c-0.002-0.001-0.004-0.001-0.006-0.002c-0.001,0-0.001-0.001-0.002-0.001
		c-0.002,0-0.004-0.001-0.004-0.002c-0.001,0-0.002-0.001-0.003-0.001c-0.002,0-0.003-0.001-0.005-0.002
		c-0.001,0-0.002-0.001-0.003-0.001c-0.001-0.001-0.003-0.002-0.004-0.002S65.304,0.6,65.303,0.6
		c-0.002-0.001-0.003-0.001-0.005-0.002c-0.001,0-0.002-0.001-0.003-0.001s-0.003-0.001-0.005-0.002
		c-0.001,0-0.002-0.001-0.003-0.001c-0.001-0.001-0.003-0.002-0.004-0.002s-0.002-0.001-0.003-0.001
		c-0.002-0.001-0.003-0.001-0.005-0.002c-0.001,0-0.002-0.001-0.003-0.001c-0.002-0.001-0.004-0.002-0.006-0.003
		c-0.001,0-0.001,0-0.001,0c-0.005-0.002-0.01-0.005-0.016-0.007c0,0-0.001-0.001-0.002-0.001c-0.001-0.001-0.003-0.002-0.005-0.003
		c-0.001,0-0.002-0.001-0.003-0.001c-0.002,0-0.003-0.001-0.005-0.002c-0.001,0-0.002-0.001-0.003-0.001s-0.003-0.001-0.004-0.002
		s-0.002-0.001-0.004-0.002c-0.001,0-0.002-0.001-0.004-0.002c-0.001,0-0.002-0.001-0.003-0.001c-0.002,0-0.003-0.001-0.004-0.002
		c-0.002,0-0.003-0.001-0.004-0.001c-0.001-0.001-0.003-0.001-0.004-0.002c-0.001,0-0.002-0.001-0.003-0.001
		c-0.002,0-0.004-0.001-0.005-0.002s-0.002-0.001-0.003-0.001c-0.002-0.001-0.004-0.001-0.005-0.002c-0.001,0-0.002,0-0.003-0.001
		c-0.002-0.001-0.004-0.002-0.006-0.003c-0.001,0-0.001,0-0.001,0c-0.002-0.001-0.004-0.002-0.007-0.003c-0.001,0-0.001,0-0.002,0
		c-0.002-0.001-0.004-0.002-0.006-0.003c-0.001,0-0.002-0.001-0.002-0.001c-0.002,0-0.004-0.001-0.005-0.002
		s-0.002-0.001-0.003-0.001c-0.002-0.001-0.003-0.001-0.005-0.001c-0.001,0-0.002-0.001-0.003-0.001
		c-0.002-0.001-0.003-0.001-0.005-0.002c-0.001,0-0.002-0.001-0.003-0.001c-0.001-0.001-0.003-0.001-0.004-0.002
		c-0.001,0-0.003-0.001-0.004-0.001s-0.003-0.001-0.004-0.002c-0.001,0-0.002-0.001-0.003-0.001c-0.002,0-0.003-0.001-0.005-0.002
		c-0.001,0-0.002-0.001-0.003-0.001c-0.002,0-0.003-0.001-0.005-0.002c-0.001,0-0.002-0.001-0.003-0.001
		c-0.002-0.001-0.003-0.001-0.005-0.002c-0.001,0-0.002,0-0.002-0.001c-0.003-0.001-0.006-0.002-0.008-0.003l-0.001,0
		C65.093,0.5,65.09,0.499,65.088,0.498c-0.001,0-0.002-0.001-0.003-0.001s-0.003-0.001-0.005-0.002
		c-0.001,0-0.002-0.001-0.003-0.001s-0.003-0.001-0.004-0.002s-0.002-0.001-0.004-0.001c-0.001,0-0.003-0.001-0.004-0.002
		s-0.002-0.001-0.003-0.001c-0.002,0-0.003-0.001-0.005-0.002c-0.001,0-0.002-0.001-0.003-0.001c-0.002,0-0.003-0.001-0.005-0.002
		c-0.001,0-0.002-0.001-0.003-0.001s-0.003-0.001-0.004-0.002c-0.001,0-0.003-0.001-0.004-0.001c0,0-0.002-0.001-0.003-0.002
		c-0.001,0-0.002,0-0.003-0.001c-0.002-0.001-0.004-0.001-0.005-0.002c-0.001,0-0.002,0-0.003-0.001
		c-0.002-0.001-0.004-0.001-0.006-0.002c0,0-0.001,0-0.002-0.001c-0.003-0.001-0.005-0.002-0.008-0.003c0,0-0.001,0-0.002,0
		c-0.002-0.001-0.004-0.002-0.006-0.002c0,0-0.001-0.001-0.002-0.001c-0.002,0-0.004-0.001-0.005-0.001s-0.002-0.001-0.003-0.001
		c-0.002,0-0.004-0.001-0.005-0.002s-0.002-0.001-0.003-0.001c-0.002,0-0.003-0.001-0.005-0.002c-0.001,0-0.002,0-0.003-0.001
		c-0.002-0.001-0.003-0.001-0.005-0.002c-0.001,0-0.002-0.001-0.003-0.001c-0.002,0-0.003-0.001-0.004-0.002
		c-0.002,0-0.003-0.001-0.004-0.001c-0.002,0-0.003-0.001-0.004-0.001s-0.003-0.001-0.004-0.001
		c-0.001-0.001-0.003-0.001-0.004-0.002s-0.002-0.001-0.004-0.001c-0.001,0-0.002-0.001-0.004-0.001
		c-0.001,0-0.002-0.001-0.004-0.002c-0.001,0-0.002-0.001-0.003-0.001c-0.003-0.001-0.005-0.002-0.008-0.003
		c-0.001,0-0.003-0.001-0.004-0.001s-0.002-0.001-0.003-0.001c-0.002-0.001-0.003-0.001-0.005-0.002
		c-0.001,0-0.002-0.001-0.003-0.001c-0.002,0-0.003-0.001-0.005-0.001c-0.001,0-0.002-0.001-0.003-0.001
		c-0.002,0-0.003-0.001-0.004-0.002c-0.002,0-0.002-0.001-0.003-0.001c-0.002,0-0.003-0.001-0.004-0.001
		c-0.002,0-0.003-0.001-0.004-0.001s-0.003-0.001-0.004-0.002c-0.001,0-0.003-0.001-0.004-0.001s-0.003-0.001-0.004-0.001
		s-0.003-0.001-0.004-0.001s-0.003-0.001-0.004-0.001s-0.003-0.001-0.004-0.001c-0.001-0.001-0.003-0.001-0.004-0.002
		S64.86,0.4,64.859,0.399c-0.002,0-0.004-0.001-0.006-0.002c-0.001,0-0.002,0-0.002-0.001c-0.003-0.001-0.006-0.002-0.008-0.003
		c-0.001,0-0.002-0.001-0.004-0.001c-0.001,0-0.002-0.001-0.004-0.001c-0.001,0-0.003-0.001-0.004-0.001s-0.003-0.001-0.004-0.001
		s-0.002-0.001-0.004-0.001c-0.001,0-0.002-0.001-0.004-0.002c-0.001,0-0.002-0.001-0.004-0.001c-0.001,0-0.002-0.001-0.004-0.001
		c-0.001,0-0.002-0.001-0.003-0.001c-0.002,0-0.003-0.001-0.005-0.001c-0.001,0-0.002-0.001-0.003-0.001
		c-0.002,0-0.003-0.001-0.005-0.001c-0.001,0-0.002-0.001-0.003-0.001c-0.002,0-0.003-0.001-0.005-0.001
		c-0.001,0-0.002-0.001-0.003-0.001c-0.002,0-0.003-0.001-0.005-0.002c-0.001,0-0.002,0-0.003-0.001
		c-0.002,0-0.003-0.001-0.005-0.002c-0.001,0-0.002,0-0.003-0.001c-0.002-0.001-0.003-0.001-0.005-0.002
		c-0.001,0-0.002-0.001-0.003-0.001c-0.003-0.001-0.005-0.002-0.007-0.003c-0.001,0-0.002-0.001-0.003-0.001
		c-0.002,0-0.003-0.001-0.005-0.001c-0.001,0-0.002-0.001-0.003-0.001c-0.002,0-0.003-0.001-0.005-0.001
		c-0.001,0-0.002-0.001-0.004-0.001c-0.001,0-0.002-0.001-0.004-0.001c-0.001,0-0.002-0.001-0.004-0.001
		c-0.001,0-0.002-0.001-0.004-0.001c-0.001,0-0.002-0.001-0.004-0.001c-0.001,0-0.002-0.001-0.004-0.001
		c-0.001,0-0.002-0.001-0.004-0.001c-0.001,0-0.002-0.001-0.004-0.001c-0.001,0-0.002-0.001-0.004-0.001
		c-0.001,0-0.002-0.001-0.004-0.001c-0.001,0-0.002-0.001-0.004-0.001c-0.001,0-0.002-0.001-0.004-0.001
		c-0.001,0-0.002-0.001-0.004-0.001c-0.001,0-0.003-0.001-0.005-0.002c-0.001,0-0.002,0-0.003-0.001s-0.003-0.001-0.005-0.002
		s-0.004-0.001-0.005-0.002c-0.002,0-0.004-0.001-0.005-0.001c-0.002,0-0.003-0.001-0.004-0.001s-0.003-0.001-0.004-0.001
		c-0.002,0-0.003-0.001-0.004-0.001c-0.002,0-0.003-0.001-0.005-0.001c-0.001,0-0.002-0.001-0.003-0.001
		c-0.002,0-0.003-0.001-0.005-0.001c-0.001,0-0.002-0.001-0.003-0.001c-0.002,0-0.003-0.001-0.005-0.001
		c-0.001,0-0.002-0.001-0.003-0.001c-0.002,0-0.003-0.001-0.005-0.001c-0.001,0-0.002,0-0.003-0.001
		c-0.002,0-0.003-0.001-0.005-0.002c-0.001,0-0.002,0-0.003-0.001s-0.002-0.001-0.004-0.001c-0.001,0-0.002-0.001-0.004-0.001
		c-0.001,0-0.003-0.001-0.004-0.001s-0.002,0-0.004-0.001c-0.001,0-0.003-0.001-0.005-0.002c-0.001,0-0.002,0-0.003-0.001
		c-0.002,0-0.005-0.001-0.008-0.002c-0.001,0-0.002-0.001-0.003-0.001c-0.002-0.001-0.003-0.001-0.005-0.002
		c-0.001,0-0.002,0-0.003-0.001c-0.002,0-0.003-0.001-0.005-0.001c-0.001,0-0.002-0.001-0.003-0.001
		c-0.002,0-0.003-0.001-0.005-0.002c-0.001,0-0.002,0-0.004-0.001c-0.001,0-0.003-0.001-0.004-0.001s-0.003-0.001-0.004-0.001
		c-0.001,0-0.003-0.001-0.004-0.001s-0.003-0.001-0.004-0.001s-0.003-0.001-0.004-0.001s-0.003,0-0.004-0.001
		S64.531,0.281,64.53,0.28c-0.002,0-0.003-0.001-0.004-0.001c-0.002,0-0.003-0.001-0.005-0.001c-0.001,0-0.002,0-0.003-0.001
		c-0.002,0-0.003-0.001-0.005-0.001c-0.001,0-0.002,0-0.003-0.001c-0.003-0.001-0.005-0.001-0.007-0.002
		C64.503,0.271,64.503,0.271,64.502,0.271L64.502,0.271L64.502,0.271z"/>
	<g>
		<path fill="#292929" d="M36.065,23.129h-8.802v-4.885h24.424v4.885h-8.757v23.676h-6.865V23.129z"/>
	</g>
</g>
</svg>
