<?xml version="1.0" encoding="utf-8"?>
<!-- Generator: Adobe Illustrator 15.0.0, SVG Export Plug-In . SVG Version: 6.00 Build 0)  -->
<!DOCTYPE svg PUBLIC "-//W3C//DTD SVG 1.1//EN" "http://www.w3.org/Graphics/SVG/1.1/DTD/svg11.dtd">
<svg version="1.1" id="Layer_1" xmlns="http://www.w3.org/2000/svg" xmlns:xlink="http://www.w3.org/1999/xlink" x="0px" y="0px"
	 width="72px" height="72px" viewBox="0 0 72 72" enable-background="new 0 0 72 72" xml:space="preserve">
<rect x="0.214" y="0.214" fill="none" width="71.572" height="71.572"/>
<g>
	<path fill="#212121" d="M12.833,23.602c0,12.74,10.423,23.162,23.164,23.162c12.74,0,23.164-10.422,23.164-23.162
		c0-12.741-10.423-23.164-23.164-23.164C23.259,0.438,12.833,10.861,12.833,23.602z M53.713,23.602
		c0,9.741-7.972,17.712-17.713,17.712c-9.743,0-17.714-7.971-17.714-17.712c0-9.743,7.971-17.714,17.714-17.714
		C45.741,5.888,53.713,13.859,53.713,23.602z"/>
	<path fill="#212121" d="M9.021,71.563C16.241,64.344,25.778,60.391,36,60.391c10.219,0,19.757,3.953,26.979,11.172l3.884-3.883
		C58.62,59.506,47.649,54.941,36,54.941c-11.65,0-22.62,4.564-30.863,12.738L9.021,71.563z"/>
</g>
</svg>
