<?xml version="1.0" encoding="utf-8"?>
<!-- Generator: Adobe Illustrator 15.0.0, SVG Export Plug-In . SVG Version: 6.00 Build 0)  -->
<!DOCTYPE svg PUBLIC "-//W3C//DTD SVG 1.1//EN" "http://www.w3.org/Graphics/SVG/1.1/DTD/svg11.dtd">
<svg version="1.1" id="Layer_1" xmlns="http://www.w3.org/2000/svg" xmlns:xlink="http://www.w3.org/1999/xlink" x="0px" y="0px"
	 width="72px" height="72px" viewBox="0 0 72 72" enable-background="new 0 0 72 72" xml:space="preserve">
<g>
	<path fill="#292929" d="M63.455,0H53.65c-1.668,0-3.024,1.357-3.024,3.025S51.982,6.05,53.65,6.05h9.805
		c1.375,0,2.494,1.119,2.494,2.494v9.804c0,1.668,1.357,3.025,3.025,3.025s3.024-1.356,3.024-3.024V8.545
		C72,3.833,68.167,0,63.455,0z"/>
	<path fill="#292929" d="M3.025,21.375c1.668,0,3.025-1.357,3.025-3.025V8.545c0-1.375,1.119-2.494,2.494-2.494h9.804
		c1.668,0,3.025-1.357,3.025-3.025C21.373,1.357,20.017,0,18.349,0H8.545C3.833,0,0,3.833,0,8.545v9.804
		C0,20.018,1.357,21.375,3.025,21.375z"/>
	<path fill="#292929" d="M18.349,65.949H8.545c-1.375,0-2.494-1.119-2.494-2.494V53.65c0-1.668-1.357-3.024-3.025-3.024
		C1.357,50.626,0,51.982,0,53.65v9.805C0,68.167,3.833,72,8.545,72h9.804c1.668,0,3.025-1.355,3.025-3.025
		C21.374,67.307,20.017,65.949,18.349,65.949z"/>
	<path fill="#292929" d="M68.975,50.625c-1.668,0-3.023,1.355-3.023,3.025v9.804c0,1.375-1.119,2.493-2.494,2.493H53.65
		c-1.668,0-3.024,1.357-3.024,3.025c0,1.67,1.356,3.026,3.024,3.026h9.805C68.167,72,72,68.167,72,63.455V53.65
		C72,51.98,70.645,50.625,68.975,50.625z"/>
	<g>
		<path fill="#292929" d="M23.652,24.138h6.84l8.424,23.364h-5.688l-2.088-6.156h-8.532l-2.052,6.156h-5.544L23.652,24.138z
			 M29.916,37.602l-2.951-8.784H26.82l-2.952,8.784H29.916z"/>
		<path fill="#292929" d="M42.57,47.412c-0.805-0.3-1.369-0.84-1.693-1.62c-0.322-0.779-0.484-1.949-0.484-3.51
			c0-1.392,0.174-2.484,0.521-3.276s0.912-1.361,1.691-1.71c0.779-0.348,1.854-0.521,3.223-0.521h5.904v-1.188
			c0-0.744-0.104-1.296-0.307-1.656c-0.205-0.36-0.576-0.612-1.115-0.756c-0.541-0.145-1.352-0.216-2.432-0.216
			c-1.488,0-3.527,0.144-6.119,0.432v-3.312c1.896-0.24,4.115-0.36,6.66-0.36c2.232,0,3.953,0.168,5.166,0.504
			c1.211,0.336,2.082,0.912,2.609,1.729c0.527,0.815,0.793,2.004,0.793,3.563v11.988H51.84v-1.584
			c-0.408,0.696-0.961,1.188-1.656,1.476c-0.695,0.313-2.016,0.469-3.959,0.469C44.592,47.862,43.373,47.712,42.57,47.412z
			 M50.543,44.478c0.336-0.048,0.57-0.119,0.703-0.216c0.131-0.096,0.246-0.252,0.342-0.468c0.096-0.168,0.145-0.42,0.145-0.756
			v-3.384h-3.602c-0.814,0-1.391,0.054-1.727,0.162c-0.336,0.107-0.564,0.323-0.684,0.647c-0.121,0.324-0.182,0.895-0.182,1.71
			c0,0.792,0.061,1.345,0.182,1.656c0.119,0.313,0.354,0.517,0.701,0.612s0.965,0.144,1.854,0.144
			C49.332,44.586,50.088,44.55,50.543,44.478z"/>
	</g>
</g>
</svg>
