<?xml version="1.0" encoding="utf-8"?>
<!-- Generator: Adobe Illustrator 15.0.0, SVG Export Plug-In . SVG Version: 6.00 Build 0)  -->
<!DOCTYPE svg PUBLIC "-//W3C//DTD SVG 1.1//EN" "http://www.w3.org/Graphics/SVG/1.1/DTD/svg11.dtd">
<svg version="1.1" id="Layer_1" xmlns="http://www.w3.org/2000/svg" xmlns:xlink="http://www.w3.org/1999/xlink" x="0px" y="0px"
	 width="72px" height="72px" viewBox="0 0 72 72" enable-background="new 0 0 72 72" xml:space="preserve">
<g>
	<rect x="27.087" y="14.055" fill="#212121" width="17.695" height="4.903"/>
	<rect x="19.429" y="23.801" fill="#212121" width="33.011" height="4.903"/>
	<rect x="19.429" y="32.156" fill="#212121" width="33.011" height="4.902"/>
	<rect x="19.429" y="40.511" fill="#212121" width="33.011" height="4.902"/>
	<rect x="19.429" y="51.649" fill="#212121" width="5.098" height="4.903"/>
	<rect x="27.457" y="51.649" fill="#212121" width="8.971" height="4.903"/>
	<path fill="#212121" d="M64.973,7.845C64.973,3.52,61.454,0,57.129,0H14.873c-4.326,0-7.845,3.52-7.845,7.845v56.311
		c0,4.325,3.52,7.844,7.845,7.844h31.843l4.163-4.177h0.002l1.155-1.159l12.937-12.975V7.845z M44.491,51.649l0.002,15.188H14.873
		c-1.479,0-2.681-1.202-2.681-2.681V7.845c0-1.479,1.203-2.681,2.681-2.681h42.256c1.478,0,2.681,1.203,2.681,2.681v43.819
		L44.491,51.649z M55.212,56.553l-5.817,5.815v-5.815H55.212z"/>
</g>
</svg>
