<?xml version="1.0" encoding="utf-8"?>
<!-- Generator: Adobe Illustrator 15.0.0, SVG Export Plug-In . SVG Version: 6.00 Build 0)  -->
<!DOCTYPE svg PUBLIC "-//W3C//DTD SVG 1.1//EN" "http://www.w3.org/Graphics/SVG/1.1/DTD/svg11.dtd">
<svg version="1.1" id="Layer_1" xmlns="http://www.w3.org/2000/svg" xmlns:xlink="http://www.w3.org/1999/xlink" x="0px" y="0px"
	 width="72px" height="60px" viewBox="0 0 72 60" enable-background="new 0 0 72 60" xml:space="preserve">
<path fill="#010101" d="M36,0C19.431,0,6,13.431,6,30c0,16.568,13.431,30,30,30c16.571,0,30-13.432,30-30C66,13.431,52.571,0,36,0z
	 M45.509,31.979l-14.68,14.681c-0.571,0.567-1.328,0.88-2.131,0.88c-0.803,0-1.56-0.313-2.13-0.879
	c-1.171-1.178-1.171-3.089-0.002-4.264L38.938,30L26.564,17.604c-1.17-1.174-1.17-3.087,0-4.262
	c1.145-1.139,3.124-1.136,4.263-0.003l14.679,14.678C46.589,29.111,46.589,30.887,45.509,31.979z"/>
</svg>
