<?xml version="1.0" encoding="utf-8"?>
<!-- Generator: Adobe Illustrator 15.0.0, SVG Export Plug-In . SVG Version: 6.00 Build 0)  -->
<!DOCTYPE svg PUBLIC "-//W3C//DTD SVG 1.1//EN" "http://www.w3.org/Graphics/SVG/1.1/DTD/svg11.dtd">
<svg version="1.1" id="Layer_1" xmlns="http://www.w3.org/2000/svg" xmlns:xlink="http://www.w3.org/1999/xlink" x="0px" y="0px"
	 width="50px" height="50px" viewBox="0 0 50 50" enable-background="new 0 0 50 50" xml:space="preserve">
<path fill="#2A333D" d="M8.879,5.217l7.973,7.188c0,0-4.353,4.191-3.92,6.336c0.409,2.009,5.199,8.121,7.739,10.688
	c2.665,2.432,8.956,6.977,10.984,7.301c0.081,0.016,0.16,0.021,0.245,0.021c2.206,0,5.931-4.188,5.931-4.188l7.5,7.682
	c0,0-2.403,4.507-8.51,4.541c-0.047,0-0.092,0-0.137,0c-6.063,0-12.289-2.37-20.491-10.479c-0.042-0.036-0.074-0.07-0.109-0.106
	c-0.042-0.036-0.077-0.068-0.114-0.104C7.478,26.161,4.887,20.002,4.68,13.9C4.472,7.792,8.879,5.217,8.879,5.217 M8.875,0.547
	c-0.809,0-1.623,0.208-2.357,0.639C3.988,2.668-0.229,7.04,0.01,14.058c0.28,8.229,4.222,15.464,12.775,23.448
	c0.003,0.009,0.007,0.013,0.014,0.018l0.05,0.049l0.069,0.07c8.267,8.164,15.6,11.811,23.766,11.811h0.163
	c7.023-0.036,11.225-4.428,12.604-7.016c0.956-1.793,0.638-4.001-0.784-5.457l-7.497-7.684c-0.88-0.898-2.086-1.406-3.34-1.406
	c-0.036,0-0.074,0-0.11,0.004c-1.296,0.028-2.521,0.594-3.38,1.563c-0.756,0.842-1.78,1.776-2.511,2.319
	c-1.917-1.055-5.734-3.741-7.921-5.718c-2.069-2.11-4.9-5.816-6.035-7.69c0.538-0.793,1.489-1.902,2.215-2.602
	c0.935-0.898,1.452-2.145,1.431-3.438c-0.021-1.297-0.581-2.526-1.545-3.392l-7.973-7.188C11.126,0.956,10.005,0.547,8.875,0.547
	L8.875,0.547z"/>
</svg>
