<?xml version="1.0" encoding="utf-8"?>
<!-- Generator: Adobe Illustrator 15.0.0, SVG Export Plug-In . SVG Version: 6.00 Build 0)  -->
<!DOCTYPE svg PUBLIC "-//W3C//DTD SVG 1.1//EN" "http://www.w3.org/Graphics/SVG/1.1/DTD/svg11.dtd">
<svg version="1.1" id="Layer_1" xmlns="http://www.w3.org/2000/svg" xmlns:xlink="http://www.w3.org/1999/xlink" x="0px" y="0px"
	 width="60px" height="60px" viewBox="0 0 60 60" enable-background="new 0 0 60 60" xml:space="preserve">
<g>
	<path d="M37.412,10l3.472,5.274l1.44,2.226H45h7.5c1.355,0,2.5,1.181,2.5,2.578v27.461c0,1.382-1.098,2.462-2.5,2.462h-45
		c-1.378,0-2.5-1.122-2.5-2.5V20.039C5,18.639,6.122,17.5,7.5,17.5H15h2.676l1.484-2.226L22.676,10H37.5 M40,5H20l-5,7.5H7.5
		c-4.144,0-7.5,3.396-7.5,7.539V47.5C0,51.644,3.356,55,7.5,55h45c4.144,0,7.5-3.318,7.5-7.461V20.077
		c0-4.144-3.356-7.578-7.5-7.578H45L40,5L40,5z"/>
	<path d="M30,22.5c4.136,0,7.5,3.364,7.5,7.5s-3.365,7.5-7.5,7.5c-4.136,0-7.5-3.364-7.5-7.5S25.863,22.5,30,22.5 M30,17.5
		c-6.903,0-12.5,5.598-12.5,12.5S23.097,42.5,30,42.5S42.5,36.903,42.5,30S36.903,17.5,30,17.5L30,17.5z"/>
</g>
</svg>
