<?xml version="1.0" encoding="utf-8"?>
<!-- Generator: Adobe Illustrator 15.0.0, SVG Export Plug-In . SVG Version: 6.00 Build 0)  -->
<!DOCTYPE svg PUBLIC "-//W3C//DTD SVG 1.1//EN" "http://www.w3.org/Graphics/SVG/1.1/DTD/svg11.dtd">
<svg version="1.1" id="Layer_1" xmlns="http://www.w3.org/2000/svg" xmlns:xlink="http://www.w3.org/1999/xlink" x="0px" y="0px"
	 width="50px" height="50px" viewBox="0 0 50 50" enable-background="new 0 0 50 50" xml:space="preserve">
<g>
	<path fill="#2B343E" d="M31.615,28.261"/>
	<path fill="#2B343E" d="M48.125,8.677h-2.903V5.772c0-1.035-0.84-1.874-1.875-1.874c-1.036,0-1.875,0.839-1.875,1.874v2.904h-2.903
		c-1.035,0-1.875,0.839-1.875,1.875c0,1.035,0.84,1.874,1.875,1.874h2.903v2.904c0,1.035,0.839,1.874,1.875,1.874
		c1.035,0,1.875-0.839,1.875-1.874v-2.904h2.903c1.035,0,1.875-0.839,1.875-1.874C50,9.516,49.16,8.677,48.125,8.677z"/>
	<g>
		<path fill="#2B343E" d="M22.433,18.225c-5.521,0-10.011,4.491-10.011,10.012c0,5.52,4.49,10.011,10.011,10.011
			c5.52,0,10.011-4.491,10.011-10.011C32.443,22.716,27.952,18.225,22.433,18.225z M22.433,34.312c-3.351,0-6.076-2.725-6.076-6.075
			s2.726-6.076,6.076-6.076s6.076,2.726,6.076,6.076S25.783,34.312,22.433,34.312z"/>
		<path fill="#2B343E" d="M45.237,23.324c0-0.007-0.002-0.014-0.002-0.021v-0.063h-0.006c-0.044-0.999-0.862-1.799-1.873-1.799
			s-1.829,0.8-1.873,1.799h-0.013v15.38c0,2.049-1.667,3.716-3.716,3.716H7.479c-2.049,0-3.716-1.667-3.716-3.716V22.17
			c0-2.049,1.667-3.716,3.716-3.716h5.109v-2.332c0-2.049,1.667-3.716,3.716-3.716H30.54v-0.005h0.021
			c1.039,0,1.881-0.843,1.881-1.882s-0.842-1.882-1.881-1.882L16.305,8.642c-3.469,0-6.538,2.456-7.299,5.839l-0.047,0.21H7.479
			C3.354,14.69,0,18.046,0,22.17v16.451c0,4.125,3.354,7.48,7.479,7.48h30.275c4.125,0,7.48-3.355,7.48-7.48L45.237,23.324z"/>
	</g>
</g>
</svg>
