<?xml version="1.0" encoding="utf-8"?>
<!-- Generator: Adobe Illustrator 15.0.0, SVG Export Plug-In . SVG Version: 6.00 Build 0)  -->
<!DOCTYPE svg PUBLIC "-//W3C//DTD SVG 1.1//EN" "http://www.w3.org/Graphics/SVG/1.1/DTD/svg11.dtd">
<svg version="1.1" id="Layer_1" xmlns="http://www.w3.org/2000/svg" xmlns:xlink="http://www.w3.org/1999/xlink" x="0px" y="0px"
	 width="50px" height="50px" viewBox="0 0 50 50" enable-background="new 0 0 50 50" xml:space="preserve">
<g>
	<path fill="#2B343E" d="M31.715,7.577c1.812,0,3.285,1.474,3.285,3.284v0.331v3.692h3.692h4.33c1.812,0,3.285,1.474,3.285,3.285
		v20.968c0,1.812-1.474,3.285-3.285,3.285H6.978c-1.812,0-3.285-1.474-3.285-3.285V18.17c0-1.812,1.474-3.285,3.285-3.285h4.1h3.692
		v-3.692v-0.331c0-1.811,1.474-3.284,3.284-3.284H31.715 M31.715,3.885H18.054c-3.853,0-6.977,3.124-6.977,6.977v0.331h-4.1
		C3.124,11.192,0,14.316,0,18.17v20.968c0,3.854,3.124,6.978,6.978,6.978h36.045c3.854,0,6.978-3.124,6.978-6.978V18.17
		c0-3.854-3.124-6.978-6.978-6.978h-4.33v-0.331C38.692,7.009,35.568,3.885,31.715,3.885L31.715,3.885z"/>
	<path fill="#2B343E" d="M24.923,22.962c2.587,0,4.692,2.104,4.692,4.692c0,2.587-2.105,4.691-4.692,4.691s-4.692-2.104-4.692-4.691
		C20.23,25.066,22.336,22.962,24.923,22.962 M24.923,19.27c-4.631,0-8.385,3.754-8.385,8.385c0,4.63,3.754,8.384,8.385,8.384
		s8.385-3.754,8.385-8.384C33.308,23.023,29.554,19.27,24.923,19.27L24.923,19.27z"/>
</g>
</svg>
