<?xml version="1.0" encoding="utf-8"?>
<!-- Generator: Adobe Illustrator 15.0.0, SVG Export Plug-In . SVG Version: 6.00 Build 0)  -->
<!DOCTYPE svg PUBLIC "-//W3C//DTD SVG 1.1//EN" "http://www.w3.org/Graphics/SVG/1.1/DTD/svg11.dtd">
<svg version="1.1" id="Layer_1" xmlns="http://www.w3.org/2000/svg" xmlns:xlink="http://www.w3.org/1999/xlink" x="0px" y="0px"
	 width="50px" height="50px" viewBox="0 0 50 50" enable-background="new 0 0 50 50" xml:space="preserve">
<g id="Page-1">
	<g id="Core" transform="translate(-380.000000, -44.000000)">
		<g id="cancel" transform="translate(380.000000, 44.000000)">
			<path id="Shape" fill="#2B343E" d="M25,0C11.25,0,0,11.248,0,24.999S11.248,50,25,50c13.75,0,25-11.25,25-25.001
				C49.999,11.249,38.749,0,25,0L25,0z M37.499,33.999l-3.5,3.5L25,28.5l-9,8.999l-3.499-3.5l9-9.001l-9-9L16,12.499l9,9l9.001-9
				l3.498,3.499l-8.997,9L37.499,33.999L37.499,33.999z"/>
		</g>
	</g>
</g>
</svg>
