<?xml version="1.0" encoding="utf-8"?>
<!-- Generator: Adobe Illustrator 15.0.0, SVG Export Plug-In . SVG Version: 6.00 Build 0)  -->
<!DOCTYPE svg PUBLIC "-//W3C//DTD SVG 1.1//EN" "http://www.w3.org/Graphics/SVG/1.1/DTD/svg11.dtd">
<svg version="1.1" id="Layer_1" xmlns="http://www.w3.org/2000/svg" xmlns:xlink="http://www.w3.org/1999/xlink" x="0px" y="0px"
	 width="50px" height="50px" viewBox="0 0 50 50" enable-background="new 0 0 50 50" xml:space="preserve">
<g id="Page-1">
	<g id="Core" transform="translate(-128.000000, -86.000000)">
		<g id="check-circle-outline" transform="translate(128.000000, 86.000000)">
			<path id="Shape" fill="#2A333D" d="M14.75,20.25l-3.5,3.5L22.5,35l25-25l-3.501-3.5L22.5,28L14.75,20.25L14.75,20.25z M45,25
				c0,11.001-8.999,20-20,20C14,45,5,36.001,5,25C5,14,14,5,25,5c2,0,3.75,0.25,5.5,0.75l4-3.999C31.499,0.75,28.25,0,25,0
				C11.25,0,0,11.25,0,25s11.25,25,25,25s25-11.25,25-25H45L45,25z"/>
		</g>
	</g>
</g>
</svg>
