<?xml version="1.0" encoding="utf-8"?>
<!-- Generator: Adobe Illustrator 15.0.0, SVG Export Plug-In . SVG Version: 6.00 Build 0)  -->
<!DOCTYPE svg PUBLIC "-//W3C//DTD SVG 1.1//EN" "http://www.w3.org/Graphics/SVG/1.1/DTD/svg11.dtd">
<svg version="1.1" id="Layer_1" xmlns="http://www.w3.org/2000/svg" xmlns:xlink="http://www.w3.org/1999/xlink" x="0px" y="0px"
	 width="72px" height="60px" viewBox="0 0 72 60" enable-background="new 0 0 72 60" xml:space="preserve">
<text transform="matrix(1 0 0 1 95.5 22.5)" font-family="'AdobeMyungjoStd-Medium-KSCpc-EUC-H'" font-size="12">airplane</text>
<g>
	<path d="M24.229,60c-5.625,0-10.912-2.189-14.889-6.168c-8.21-8.208-8.21-21.568,0-29.779L33.393,0l4.582,4.581L13.921,28.636
		c-5.684,5.685-5.684,14.932,0,20.617c2.754,2.754,6.415,4.271,10.308,4.271c3.895,0,7.555-1.517,10.309-4.271L59.722,24.07
		c1.687-1.687,2.616-3.93,2.616-6.314s-0.93-4.627-2.616-6.315c-3.477-3.475-9.131-3.479-12.617-0.016v0.002L23.053,35.479
		c-0.618,0.622-0.96,1.444-0.96,2.32c0,0.877,0.342,1.702,0.96,2.322c1.28,1.278,3.362,1.278,4.641,0l24.055-24.056l4.581,4.581
		L32.277,44.7c-3.805,3.806-9.997,3.806-13.802,0c-1.843-1.845-2.859-4.295-2.859-6.903c0-2.606,1.016-5.059,2.859-6.899
		L42.511,6.856l0,0c6.008-6.006,15.784-6.008,21.792,0c2.91,2.91,4.515,6.782,4.515,10.898c0,4.115-1.604,7.987-4.515,10.896
		L39.12,53.834C35.143,57.811,29.854,60,24.229,60z"/>
</g>
</svg>
