<?xml version="1.0" encoding="utf-8"?>
<!-- Generator: Adobe Illustrator 15.0.0, SVG Export Plug-In . SVG Version: 6.00 Build 0)  -->
<!DOCTYPE svg PUBLIC "-//W3C//DTD SVG 1.1//EN" "http://www.w3.org/Graphics/SVG/1.1/DTD/svg11.dtd">
<svg version="1.1" id="Layer_1" xmlns="http://www.w3.org/2000/svg" xmlns:xlink="http://www.w3.org/1999/xlink" x="0px" y="0px"
	 width="72px" height="60px" viewBox="0 0 72 60" enable-background="new 0 0 72 60" xml:space="preserve">
<text transform="matrix(1 0 0 1 95.5 22.5)" font-family="'AdobeMyungjoStd-Medium-KSCpc-EUC-H'" font-size="12">airplane</text>
<g>
	<path id="XMLID_294_" d="M29.077,30c0,3.817,3.106,6.923,6.923,6.923c3.817,0,6.923-3.105,6.923-6.923
		c0-3.817-3.105-6.923-6.923-6.923C32.183,23.077,29.077,26.183,29.077,30z"/>
	<path id="XMLID_295_" d="M29.077,53.077C29.077,56.895,32.183,60,36,60c3.817,0,6.923-3.105,6.923-6.923S39.817,46.154,36,46.154
		C32.183,46.154,29.077,49.26,29.077,53.077z"/>
	<path id="XMLID_297_" d="M29.077,6.923c0,3.817,3.106,6.923,6.923,6.923c3.817,0,6.923-3.106,6.923-6.923
		C42.923,3.106,39.817,0,36,0C32.183,0,29.077,3.106,29.077,6.923z"/>
</g>
</svg>
