<?xml version="1.0" encoding="utf-8"?>
<!-- Generator: Adobe Illustrator 15.0.0, SVG Export Plug-In . SVG Version: 6.00 Build 0)  -->
<!DOCTYPE svg PUBLIC "-//W3C//DTD SVG 1.1//EN" "http://www.w3.org/Graphics/SVG/1.1/DTD/svg11.dtd">
<svg version="1.1" id="Layer_1" xmlns="http://www.w3.org/2000/svg" xmlns:xlink="http://www.w3.org/1999/xlink" x="0px" y="0px"
	 width="72px" height="60px" viewBox="0 0 72 60" enable-background="new 0 0 72 60" xml:space="preserve">
<g id="icons">
	<path id="home" fill="#010101" d="M70.93,24.859L39.707,1.141c-2.102-1.501-5.104-1.501-7.506,0L1.277,24.859
		c-2.401,1.801-1.2,5.104,1.802,5.104h3.003v18.314c0,6.304,5.404,11.708,12.008,11.708h6.006c1.801,0,3.002-1.2,3.002-3.002V42.272
		c0-3.303,2.702-6.306,6.004-6.306h6.006c3.301,0,6.004,3.003,6.004,6.306v14.711c0,1.501,1.199,3.002,3.002,3.002h6.004
		c6.605,0,12.01-5.404,12.01-11.708V29.963h3.002C71.83,29.963,73.031,26.66,70.93,24.859z"/>
</g>
</svg>
