<?xml version="1.0" encoding="utf-8"?>
<!-- Generator: Adobe Illustrator 15.0.0, SVG Export Plug-In . SVG Version: 6.00 Build 0)  -->
<!DOCTYPE svg PUBLIC "-//W3C//DTD SVG 1.1//EN" "http://www.w3.org/Graphics/SVG/1.1/DTD/svg11.dtd">
<svg version="1.1" id="Layer_1" xmlns="http://www.w3.org/2000/svg" xmlns:xlink="http://www.w3.org/1999/xlink" x="0px" y="0px"
	 width="50px" height="50px" viewBox="0 0 50 50" enable-background="new 0 0 50 50" xml:space="preserve">
<path fill="#2B343E" d="M46.952,24.746l-0.04-2.671c0.035-1.397-0.475-2.806-1.541-3.873L28.718,1.547
	c-1.024-1.024-2.367-1.54-3.709-1.546V0c-0.002,0-0.005,0.001-0.007,0.001C24.998,0.001,24.994,0,24.992,0v0.001
	c-1.343,0.007-2.684,0.522-3.708,1.546L4.629,18.202c-1.066,1.067-1.578,2.476-1.542,3.873l-0.04,2.671
	c-0.015,0.172-0.026,0.343-0.026,0.519V43.71c0,3.475,2.817,6.29,6.291,6.29h15.679h0.017h15.68c3.474,0,6.29-2.815,6.29-6.29
	V25.264C46.979,25.089,46.966,24.917,46.952,24.746z M29.705,45.125c0,0.107-0.006,0.212-0.016,0.318h-9.38
	c-0.007-0.106-0.016-0.211-0.016-0.318V34.766c0-2.375,1.925-4.3,4.301-4.3h0.812c2.375,0,4.299,1.925,4.299,4.3V45.125
	L29.705,45.125z"/>
</svg>
