<?xml version="1.0" encoding="utf-8"?>
<!-- Generator: Adobe Illustrator 15.0.0, SVG Export Plug-In . SVG Version: 6.00 Build 0)  -->
<!DOCTYPE svg PUBLIC "-//W3C//DTD SVG 1.1//EN" "http://www.w3.org/Graphics/SVG/1.1/DTD/svg11.dtd">
<svg version="1.1" id="Layer_1" xmlns="http://www.w3.org/2000/svg" xmlns:xlink="http://www.w3.org/1999/xlink" x="0px" y="0px"
	 width="50px" height="50px" viewBox="0 0 50 50" enable-background="new 0 0 50 50" xml:space="preserve">
<g>
	<linearGradient id="SVGID_1_" gradientUnits="userSpaceOnUse" x1="2.6714" y1="7.3179" x2="2.6714" y2="42.6028">
		<stop  offset="0" style="stop-color:#25ABD6"/>
		<stop  offset="1" style="stop-color:#49B970"/>
	</linearGradient>
	<path fill="url(#SVGID_1_)" d="M5.343,30.717c0,1.476-1.196,2.672-2.671,2.672l0,0C1.196,33.389,0,32.192,0,30.717v-5.431
		c0-1.475,1.196-2.671,2.672-2.671l0,0c1.475,0,2.671,1.196,2.671,2.671V30.717z"/>
	<linearGradient id="SVGID_2_" gradientUnits="userSpaceOnUse" x1="11.6357" y1="7.3179" x2="11.6357" y2="42.6028">
		<stop  offset="0" style="stop-color:#25ABD6"/>
		<stop  offset="1" style="stop-color:#49B970"/>
	</linearGradient>
	<path fill="url(#SVGID_2_)" d="M14.308,30.717c0,1.476-1.196,2.672-2.671,2.672l0,0c-1.476,0-2.672-1.196-2.672-2.672V19.612
		c0-1.476,1.196-2.672,2.672-2.672l0,0c1.475,0,2.671,1.196,2.671,2.672V30.717z"/>
	<linearGradient id="SVGID_3_" gradientUnits="userSpaceOnUse" x1="20.6001" y1="7.3188" x2="20.6001" y2="42.6019">
		<stop  offset="0" style="stop-color:#25ABD6"/>
		<stop  offset="1" style="stop-color:#49B970"/>
	</linearGradient>
	<path fill="url(#SVGID_3_)" d="M23.272,40.175c0,1.475-1.197,2.671-2.672,2.671l0,0c-1.476,0-2.672-1.196-2.672-2.671V9.825
		c0-1.475,1.196-2.671,2.672-2.671l0,0c1.475,0,2.672,1.196,2.672,2.671V40.175z"/>
	<linearGradient id="SVGID_4_" gradientUnits="userSpaceOnUse" x1="29.4824" y1="7.3184" x2="29.4824" y2="42.6025">
		<stop  offset="0" style="stop-color:#25ABD6"/>
		<stop  offset="1" style="stop-color:#49B970"/>
	</linearGradient>
	<path fill="url(#SVGID_4_)" d="M32.153,38.365c0,1.476-1.196,2.672-2.671,2.672l0,0c-1.477,0-2.672-1.196-2.672-2.672V23.313
		c0-1.475,1.195-2.671,2.672-2.671l0,0c1.475,0,2.671,1.196,2.671,2.671V38.365z"/>
	<linearGradient id="SVGID_5_" gradientUnits="userSpaceOnUse" x1="38.5293" y1="7.3184" x2="38.5293" y2="42.6022">
		<stop  offset="0" style="stop-color:#25ABD6"/>
		<stop  offset="1" style="stop-color:#49B970"/>
	</linearGradient>
	<path fill="url(#SVGID_5_)" d="M41.2,28.496c0,1.476-1.196,2.672-2.672,2.672l0,0c-1.477,0-2.671-1.196-2.671-2.672V17.967
		c0-1.475,1.194-2.671,2.671-2.671l0,0c1.476,0,2.672,1.196,2.672,2.671V28.496z"/>
	<linearGradient id="SVGID_6_" gradientUnits="userSpaceOnUse" x1="47.3281" y1="7.3184" x2="47.3281" y2="42.6022">
		<stop  offset="0" style="stop-color:#25ABD6"/>
		<stop  offset="1" style="stop-color:#49B970"/>
	</linearGradient>
	<path fill="url(#SVGID_6_)" d="M50,28.496c0,1.476-1.196,2.672-2.672,2.672l0,0c-1.477,0-2.672-1.196-2.672-2.672v-5.184
		c0-1.475,1.195-2.671,2.672-2.671l0,0c1.476,0,2.672,1.196,2.672,2.671V28.496z"/>
</g>
</svg>
