<?xml version="1.0" encoding="utf-8"?>
<!-- Generator: Adobe Illustrator 15.0.0, SVG Export Plug-In . SVG Version: 6.00 Build 0)  -->
<!DOCTYPE svg PUBLIC "-//W3C//DTD SVG 1.1//EN" "http://www.w3.org/Graphics/SVG/1.1/DTD/svg11.dtd">
<svg version="1.1" id="Layer_1" xmlns="http://www.w3.org/2000/svg" xmlns:xlink="http://www.w3.org/1999/xlink" x="0px" y="0px"
	 width="50px" height="50px" viewBox="0 0 50 50" enable-background="new 0 0 50 50" xml:space="preserve">
<g>
	<path fill="#2A333D" d="M25.902,0.902C12.593,0.902,1.804,11.691,1.804,25c0,5.953,2.163,11.398,5.741,15.604L0,49.098h26.529
		v-0.016C39.548,48.749,50,38.1,50,25C50,11.691,39.212,0.902,25.902,0.902z M26.425,44.959l-0.499,0.016H9.178l1.451-1.634
		l2.38-2.681l-2.324-2.73C7.617,34.325,5.928,29.732,5.928,25c0-11.014,8.96-19.974,19.974-19.974
		c11.014,0,19.974,8.96,19.974,19.974C45.876,35.913,37.332,44.682,26.425,44.959z"/>
	<path fill="#2A333D" d="M19.417,18.341h13.058c1.187,0,2.148-0.961,2.148-2.147c0-1.188-0.963-2.148-2.148-2.148H19.417
		c-1.186,0-2.148,0.961-2.148,2.148C17.269,17.38,18.23,18.341,19.417,18.341z"/>
	<path fill="#2A333D" d="M32.475,31.83H19.417c-1.186,0-2.148,0.96-2.148,2.146c0,1.188,0.962,2.147,2.148,2.147h13.058
		c1.187,0,2.148-0.961,2.148-2.147S33.66,31.83,32.475,31.83z"/>
	<path fill="#2A333D" d="M39.262,23.152H12.887c-1.186,0-2.147,0.962-2.147,2.147c0,1.187,0.961,2.148,2.147,2.148h26.375
		c1.188,0,2.148-0.962,2.148-2.148C41.41,24.114,40.448,23.152,39.262,23.152z"/>
</g>
</svg>
