<?xml version="1.0" encoding="utf-8"?>
<!-- Generator: Adobe Illustrator 15.0.0, SVG Export Plug-In . SVG Version: 6.00 Build 0)  -->
<!DOCTYPE svg PUBLIC "-//W3C//DTD SVG 1.1//EN" "http://www.w3.org/Graphics/SVG/1.1/DTD/svg11.dtd">
<svg version="1.1" id="Layer_1" xmlns="http://www.w3.org/2000/svg" xmlns:xlink="http://www.w3.org/1999/xlink" x="0px" y="0px"
	 width="60px" height="60px" viewBox="0 0 60 60" enable-background="new 0 0 60 60" xml:space="preserve">
<path fill="#010101" d="M30,0C13.425,0,0,13.425,0,30c0,16.574,13.425,30,30,30c16.574,0,30-13.426,30-30C60,13.425,46.574,0,30,0z
	 M34.283,43.992c0,1.564-1.27,2.834-2.834,2.834h-2.898c-1.565,0-2.834-1.27-2.834-2.834V28.346c0-1.565,1.269-2.835,2.834-2.835
	h2.898c1.564,0,2.834,1.27,2.834,2.835V43.992z M34.283,18.906c0,1.565-1.27,2.835-2.834,2.835h-2.898
	c-1.565,0-2.834-1.27-2.834-2.835v-2.898c0-1.565,1.269-2.834,2.834-2.834h2.898c1.564,0,2.834,1.269,2.834,2.834V18.906z"/>
</svg>
