<?xml version="1.0" encoding="utf-8"?>
<!-- Generator: Adobe Illustrator 15.0.0, SVG Export Plug-In . SVG Version: 6.00 Build 0)  -->
<!DOCTYPE svg PUBLIC "-//W3C//DTD SVG 1.1//EN" "http://www.w3.org/Graphics/SVG/1.1/DTD/svg11.dtd">
<svg version="1.1" id="Layer_1" xmlns="http://www.w3.org/2000/svg" xmlns:xlink="http://www.w3.org/1999/xlink" x="0px" y="0px"
	 width="50px" height="50px" viewBox="0 0 50 50" enable-background="new 0 0 50 50" xml:space="preserve">
<g>
	<path fill="#2B343E" d="M43.309,4.484c1.029,0,1.871,0.839,1.871,1.871V31.39v1.828v7.345l-3.497-3.958l-1.34-1.515h-2.021H6.692
		c-1.031,0-1.871-0.841-1.871-1.872V6.355c0-1.032,0.84-1.871,1.871-1.871H43.309 M43.309,0H6.692c-3.51,0-6.356,2.845-6.356,6.355
		v26.862c0,3.51,2.846,6.356,6.356,6.356h31.633L47.535,50h2.129V33.218V31.39V6.355C49.664,2.845,46.818,0,43.309,0L43.309,0z"/>
	<path fill="#2B343E" d="M38.566,11.049l-0.412-0.375c-0.905-0.832-2.315-0.771-3.146,0.137L21.526,23.853l-5.568-5.291
		c-0.893-0.848-2.302-0.813-3.151,0.08l-0.383,0.402c-0.848,0.893-0.813,2.302,0.081,3.15l7.313,6.949
		c0.48,0.457,1.11,0.649,1.723,0.598c0.662,0.053,1.341-0.179,1.826-0.706l15.336-14.838C39.534,13.291,39.473,11.881,38.566,11.049
		z"/>
</g>
</svg>
