<?xml version="1.0" encoding="utf-8"?>
<!-- Generator: Adobe Illustrator 15.0.0, SVG Export Plug-In . SVG Version: 6.00 Build 0)  -->
<!DOCTYPE svg PUBLIC "-//W3C//DTD SVG 1.1//EN" "http://www.w3.org/Graphics/SVG/1.1/DTD/svg11.dtd">
<svg version="1.1" id="Layer_1" xmlns="http://www.w3.org/2000/svg" xmlns:xlink="http://www.w3.org/1999/xlink" x="0px" y="0px"
	 width="72px" height="60px" viewBox="0 0 72 60" enable-background="new 0 0 72 60" xml:space="preserve">
<g id="icons_1_">
	<path id="message" fill="#010101" d="M57.833,0H14.167C8.163,0,3.251,4.913,3.251,10.917v27.291
		c0,6.005,4.912,10.916,10.916,10.916v8.188c0,2.456,3.002,3.548,4.639,1.91l10.098-10.098h28.93
		c6.004,0,10.916-4.911,10.916-10.916V10.917C68.749,4.913,63.837,0,57.833,0z M41.458,32.75H25.083
		c-1.637,0-2.729-1.092-2.729-2.729c0-1.637,1.092-2.729,2.729-2.729h16.375c1.639,0,2.729,1.091,2.729,2.729
		C44.187,31.658,43.097,32.75,41.458,32.75z M46.915,21.833H25.083c-1.637,0-2.729-1.091-2.729-2.729
		c0-1.638,1.092-2.729,2.729-2.729h21.832c1.639,0,2.73,1.092,2.73,2.729C49.646,20.742,48.554,21.833,46.915,21.833z"/>
</g>
</svg>
