<?xml version="1.0" encoding="utf-8"?>
<!-- Generator: Adobe Illustrator 15.0.0, SVG Export Plug-In . SVG Version: 6.00 Build 0)  -->
<!DOCTYPE svg PUBLIC "-//W3C//DTD SVG 1.1//EN" "http://www.w3.org/Graphics/SVG/1.1/DTD/svg11.dtd">
<svg version="1.1" id="Layer_1" xmlns="http://www.w3.org/2000/svg" xmlns:xlink="http://www.w3.org/1999/xlink" x="0px" y="0px"
	 width="50px" height="50px" viewBox="0 0 50 50" enable-background="new 0 0 50 50" xml:space="preserve">
<path fill="#2B343E" d="M49.412,46.574L36.885,34.047c2.969-3.599,4.754-8.208,4.754-13.228C41.639,9.34,32.299,0,20.819,0
	C9.339,0,0,9.34,0,20.819s9.34,20.82,20.819,20.82c5.02,0,9.629-1.787,13.228-4.755l12.527,12.527
	C46.967,49.805,47.479,50,47.993,50c0.514,0,1.026-0.195,1.419-0.588C50.195,48.628,50.195,47.357,49.412,46.574z M4.014,20.819
	c0-9.267,7.54-16.806,16.806-16.806s16.806,7.54,16.806,16.806c0,9.266-7.539,16.806-16.806,16.806
	C11.552,37.625,4.014,30.086,4.014,20.819z"/>
</svg>
