<?xml version="1.0" encoding="utf-8"?>
<!-- Generator: Adobe Illustrator 15.0.0, SVG Export Plug-In . SVG Version: 6.00 Build 0)  -->
<!DOCTYPE svg PUBLIC "-//W3C//DTD SVG 1.1//EN" "http://www.w3.org/Graphics/SVG/1.1/DTD/svg11.dtd">
<svg version="1.1" id="Layer_1" xmlns="http://www.w3.org/2000/svg" xmlns:xlink="http://www.w3.org/1999/xlink" x="0px" y="0px"
	 width="72px" height="60px" viewBox="0 0 72 60" enable-background="new 0 0 72 60" xml:space="preserve">
<path id="XMLID_273_" fill="#010101" d="M60.699,34.363l-1.127-0.651c-1.341-0.773-2.144-2.162-2.144-3.712
	c0-1.549,0.803-2.938,2.144-3.711l1.127-0.651c3.077-1.779,4.129-5.705,2.354-8.782l-2.144-3.711
	c-1.771-3.071-5.713-4.125-8.781-2.353l-1.127,0.648c-1.341,0.776-2.947,0.776-4.286,0c-1.341-0.775-2.143-2.162-2.143-3.71V6.428
	C44.572,2.885,41.688,0,38.144,0h-4.285c-3.545,0-6.429,2.885-6.429,6.428v1.303c0,1.55-0.802,2.936-2.144,3.711
	c-1.342,0.774-2.943,0.776-4.285,0l-1.127-0.651c-3.068-1.773-7.01-0.718-8.783,2.353l-2.143,3.711
	c-1.777,3.077-0.725,7.005,2.352,8.782l1.13,0.651c1.341,0.773,2.143,2.163,2.143,3.711c0,1.55-0.802,2.938-2.143,3.712
	l-1.128,0.651c-3.076,1.776-4.129,5.704-2.352,8.781l2.143,3.711c1.773,3.07,5.715,4.125,8.781,2.352l1.127-0.647
	c1.342-0.779,2.943-0.773,4.285,0c1.342,0.775,2.144,2.161,2.144,3.71v1.302c0,3.544,2.884,6.429,6.429,6.429h4.285
	c3.544,0,6.429-2.885,6.429-6.429v-1.303c0-1.55,0.802-2.936,2.143-3.712c1.339-0.773,2.945-0.776,4.286,0l1.127,0.65
	c3.068,1.771,7.01,0.717,8.781-2.352l2.144-3.711C64.828,40.067,63.776,36.14,60.699,34.363z M36.001,40.715
	c-5.908,0-10.715-4.808-10.715-10.715c0-5.908,4.807-10.714,10.715-10.714c5.907,0,10.714,4.807,10.714,10.714
	C46.715,35.907,41.908,40.715,36.001,40.715z"/>
</svg>
