<?xml version="1.0" encoding="utf-8"?>
<!-- Generator: Adobe Illustrator 15.0.0, SVG Export Plug-In . SVG Version: 6.00 Build 0)  -->
<!DOCTYPE svg PUBLIC "-//W3C//DTD SVG 1.1//EN" "http://www.w3.org/Graphics/SVG/1.1/DTD/svg11.dtd">
<svg version="1.1" id="Layer_1" xmlns="http://www.w3.org/2000/svg" xmlns:xlink="http://www.w3.org/1999/xlink" x="0px" y="0px"
	 width="516px" height="289px" viewBox="0 0 516 289" enable-background="new 0 0 516 289" xml:space="preserve">
<g>
	<path opacity="0.1" fill="#5984C4" enable-background="new    " d="M503.499,268.916c-0.463,0.337-0.888,0.665-1.341,0.984
		c-1.672,1.182-3.422,2.249-5.238,3.195c-9.516,5.016-21.245,7.467-32.67,9.131c-25.623,3.736-51.783,4.462-77.832,5.174
		c-70.385,1.933-140.939,3.86-211.153-0.592c-27.741-1.757-56.092-4.697-81.23-13.713c-3.604-1.289-7.136-2.71-10.597-4.264
		c-7.005-3.148-13.732-6.981-19.326-11.559c-5.257-4.29-9.52-9.219-12.068-14.823c-5.312-11.67-2.501-24.777,3.565-36.216
		c2.519-4.628,5.361-9.072,8.503-13.302c4.684-6.44,9.848-12.696,14.559-19.132c16.765-22.878,27.705-51.821,12.229-75.285
		c-4.448-6.741-10.874-12.659-14.499-19.696c-4.624-9.002-4.268-18.998-2.797-28.708c0.191-1.233,0.393-2.454,0.606-3.662
		c2.51-14.398,7.235-29.91,21.805-38.897c15.132-9.34,36.623-8.868,55.403-5.548c29.207,5.215,56.148,16.071,83.376,25.873
		s55.713,18.758,85.637,19.719c26.424,0.851,57.244-5.516,74.781-22.063c17.032-16.071,49.051-17.296,72.127-7.587
		c15.84,6.662,27.657,18.665,32.642,32.166c1.01,2.71,1.736,5.518,2.169,8.378c0.399,2.614,0.529,5.261,0.388,7.902
		c-0.069,1.304-0.203,2.593-0.388,3.87c-3.856,26.641-31.611,47.655-48.482,71.452c-8.244,11.624-14.065,25.586-8.396,38.121
		c8.646,19.1,38.713,25.892,56.869,40.104c3.417,2.587,6.425,5.673,8.924,9.155C519.871,241.743,516.619,258.827,503.499,268.916z"
		/>
	<g id="d00831fc-a64a-413c-b5dd-d7bd6eafa01d">
		<path fill="none" stroke="#545561" stroke-width="2" stroke-miterlimit="10" d="M119.206,149.685c0,0-21.268-37.691-53.318-48.547
			c-13.45-4.559-25.189-13.131-33.215-24.847c-3.8-5.563-7.082-11.462-9.802-17.625"/>
		<path fill="#6466AF" d="M2.716,51.688c3.652,3.528,20.658,7.227,20.658,7.227s-4.161-16.885-7.823-20.431
			c-3.695-3.5-9.527-3.34-13.027,0.355C-0.915,42.47-0.83,48.18,2.716,51.707V51.688z"/>
		<path fill="#6466AF" d="M12.337,82.246c4.989,0.989,21.268-5.174,21.268-5.174S20.914,65.162,15.92,64.172
			c-5.012-0.883-9.79,2.465-10.673,7.477C4.392,76.51,7.518,81.182,12.337,82.246z"/>
		<path fill="#6466AF" d="M47.36,115.322c4.809-1.665,15.72-15.198,15.72-15.198s-16.959-3.879-21.763-2.215
			c-4.86,1.51-7.576,6.674-6.066,11.534c1.51,4.86,6.674,7.576,11.534,6.066c0.184-0.057,0.364-0.119,0.543-0.187H47.36z"/>
		<path fill="#6466AF" d="M79.494,134.366c5.021-0.832,18.079-12.321,18.079-12.321s-16.058-6.69-21.079-5.863
			c-5.021,0.829-8.42,5.571-7.592,10.592S74.473,135.195,79.494,134.366L79.494,134.366z"/>
		<path fill="#6466AF" d="M47.772,63.876c0,5.086-9.201,19.849-9.201,19.849s-9.22-14.754-9.224-19.84
			c-0.114-5.088,3.918-9.305,9.006-9.418c5.088-0.114,9.305,3.918,9.419,9.005c0.003,0.138,0.003,0.275,0,0.413V63.876z"/>
		<path fill="#6466AF" d="M85.075,86.656c-1.521,4.855-14.721,16.183-14.721,16.183s-4.383-16.853-2.881-21.731
			c1.731-4.786,7.014-7.263,11.799-5.532c4.496,1.625,7.001,6.419,5.77,11.039L85.075,86.656z"/>
		<path fill="#6466AF" d="M118.29,113.727c-0.675,5.044-11.771,18.438-11.771,18.438s-7.167-15.85-6.473-20.894
			c0.755-5.033,5.448-8.5,10.48-7.745c4.924,0.739,8.37,5.256,7.783,10.2H118.29z"/>
		<path fill="#B5D692" d="M2.716,51.688c3.652,3.528,20.658,7.227,20.658,7.227s-4.161-16.885-7.823-20.431
			c-3.695-3.5-9.527-3.34-13.027,0.355C-0.915,42.47-0.83,48.18,2.716,51.707V51.688z"/>
		<path fill="#B5D692" d="M12.337,82.246c4.989,0.989,21.268-5.174,21.268-5.174S20.914,65.162,15.92,64.172
			c-5.012-0.883-9.79,2.465-10.673,7.477C4.392,76.51,7.518,81.182,12.337,82.246z"/>
		<path fill="#B5D692" d="M47.36,115.322c4.809-1.665,15.72-15.198,15.72-15.198s-16.959-3.879-21.763-2.215
			c-4.86,1.51-7.576,6.674-6.066,11.534c1.51,4.86,6.674,7.576,11.534,6.066c0.184-0.057,0.364-0.119,0.543-0.187H47.36z"/>
		<path fill="#B5D692" d="M79.494,134.366c5.021-0.832,18.079-12.321,18.079-12.321s-16.058-6.69-21.079-5.863
			c-5.021,0.829-8.42,5.571-7.592,10.592S74.473,135.195,79.494,134.366L79.494,134.366z"/>
		<path fill="#B5D692" d="M47.772,63.876c0,5.086-9.201,19.849-9.201,19.849s-9.22-14.754-9.224-19.84
			c-0.114-5.088,3.918-9.305,9.006-9.418c5.088-0.114,9.305,3.918,9.419,9.005c0.003,0.138,0.003,0.275,0,0.413V63.876z"/>
		<path fill="#B5D692" d="M85.075,86.656c-1.521,4.855-14.721,16.183-14.721,16.183s-4.383-16.853-2.881-21.731
			c1.731-4.786,7.014-7.263,11.799-5.532c4.496,1.625,7.001,6.419,5.77,11.039L85.075,86.656z"/>
		<path fill="#B5D692" d="M118.29,113.727c-0.675,5.044-11.771,18.438-11.771,18.438s-7.167-15.85-6.473-20.894
			c0.755-5.033,5.448-8.5,10.48-7.745c4.924,0.739,8.37,5.256,7.783,10.2H118.29z"/>
		<path fill="none" stroke="#545561" stroke-width="2" stroke-miterlimit="10" d="M117.98,148.936c0,0-4.161-43.083-29.072-65.997
			C78.463,73.322,71.204,60.746,68.61,46.765c-1.217-6.627-1.824-13.352-1.812-20.089"/>
		<path fill="#80CDBE" d="M51.193,12.144c1.905,4.721,15.965,14.962,15.965,14.962s3.028-17.13,1.127-21.851
			c-1.902-4.724-7.274-7.011-11.998-5.109c-4.724,1.902-7.012,7.274-5.109,11.998H51.193z"/>
		<path fill="#80CDBE" d="M47.592,43.977c4.161,2.927,21.532,3.884,21.532,3.884s-6.737-16.025-10.898-18.952
			c-4.161-2.937-9.914-1.944-12.851,2.217C42.438,35.287,43.431,41.04,47.592,43.977z"/>
		<path fill="#80CDBE" d="M66.229,88.399c5.085,0.43,20.546-7.518,20.546-7.518S72.845,70.465,67.773,70.04
			c-5.061-0.539-9.6,3.126-10.138,8.187c-0.539,5.061,3.126,9.6,8.187,10.139C65.958,88.379,66.093,88.391,66.229,88.399z"/>
		<path fill="#80CDBE" d="M87.886,118.841c4.929,1.276,21.522-3.939,21.522-3.939s-11.97-12.622-16.895-13.898
			c-4.946-1.198-9.927,1.84-11.125,6.786c-1.171,4.835,1.707,9.727,6.501,11.052H87.886z"/>
		<path fill="#80CDBE" d="M87.446,41.544c-2.058,4.651-16.455,14.412-16.455,14.412s-2.45-17.218-0.393-21.874
			c1.983-4.687,7.39-6.879,12.077-4.896s6.879,7.39,4.896,12.077C87.531,41.357,87.49,41.451,87.446,41.544z"/>
		<path fill="#80CDBE" d="M112.321,77.46c-3.356,3.824-20.015,8.831-20.015,8.831s2.811-17.163,6.173-20.986
			c3.356-3.822,9.176-4.2,12.999-0.844C115.299,67.818,115.677,73.638,112.321,77.46L112.321,77.46z"/>
		<path fill="#80CDBE" d="M131.74,115.692c-2.663,4.337-18.235,12.086-18.235,12.086s-0.13-17.394,2.533-21.73
			c2.664-4.341,8.341-5.701,12.682-3.038c4.341,2.663,5.702,8.341,3.038,12.682H131.74z"/>
	</g>
	<g id="_x31_cf578eb-5ffb-4cd7-95b8-45aaaddab7e0">
		
			<linearGradient id="SVGID_1_" gradientUnits="userSpaceOnUse" x1="254.4902" y1="-6.4609" x2="254.4902" y2="222.9771" gradientTransform="matrix(1 0 0 -1 -41.9199 266.6348)">
			<stop  offset="0" style="stop-color:#818181;stop-opacity:0.25"/>
			<stop  offset="0.54" style="stop-color:#818181;stop-opacity:0.12"/>
			<stop  offset="1" style="stop-color:#818181;stop-opacity:0.1"/>
		</linearGradient>
		<path fill="url(#SVGID_1_)" d="M361.991,269.808V43.658H63.15v213.176c5.617,4.688,12.373,8.633,19.419,11.873
			c3.471,1.601,7.015,3.063,10.634,4.389h263.542L361.991,269.808z"/>
		<path fill="#FFFFFF" d="M361.141,269.9V50.13H64.112v207.18c5.594,4.559,12.321,8.392,19.326,11.559
			c3.458,1.541,6.991,2.963,10.597,4.264h261.867L361.141,269.9z"/>
		<rect x="64.116" y="44.3" fill="#5B5874" width="297.024" height="11.624"/>
	</g>
	<g id="_x36_703b009-63cb-4af0-a0d7-9948e224c180">
		<circle fill="#FFFFFF" cx="72.864" cy="50.112" r="3.005"/>
		<circle fill="#FFFFFF" cx="80.955" cy="50.112" r="3.005"/>
		<circle fill="#FFFFFF" cx="89.046" cy="50.112" r="3.005"/>
	</g>
	<g id="_x38_c4e1fb4-b9ff-4530-b767-610e84618ea6">
		<rect x="176.056" y="81.469" fill="#B5D692" width="72.358" height="45.468"/>
		<rect x="75.869" y="81.469" opacity="0.2" fill="#5B5874" enable-background="new    " width="72.358" height="45.468"/>
		<rect x="276.244" y="81.469" opacity="0.2" fill="#5B5874" enable-background="new    " width="72.357" height="45.468"/>
		<rect x="75.869" y="146.471" opacity="0.2" fill="#5B5874" enable-background="new    " width="72.358" height="45.468"/>
		<rect x="176.056" y="146.471" opacity="0.2" fill="#5B5874" enable-background="new    " width="72.358" height="45.468"/>
		<rect x="276.244" y="146.471" opacity="0.2" fill="#5B5874" enable-background="new    " width="72.357" height="45.468"/>
		<rect x="75.869" y="211.469" opacity="0.2" fill="#5B5874" enable-background="new    " width="72.358" height="45.467"/>
		<rect x="176.056" y="211.469" opacity="0.2" fill="#5B5874" enable-background="new    " width="72.358" height="45.467"/>
		<rect x="276.244" y="211.469" opacity="0.2" fill="#5B5874" enable-background="new    " width="72.357" height="45.467"/>
	</g>
	<g id="_x35_f43f84a-a268-4bb5-a31a-6b0c09aee323">
		<path opacity="0.1" fill="#5984C4" enable-background="new    " d="M382.386,13.457c0,0-17.593-1.059-15.517,11.268
			c0,0-0.411,2.178,1.563,3.167c0,0,0.033-0.924,1.804-0.605c0.631,0.106,1.271,0.137,1.909,0.092
			c0.861-0.06,1.68-0.399,2.331-0.966l0,0c0,0,4.941-2.039,6.865-10.121c0,0,1.424-1.767,1.387-2.22l-2.968,1.271
			c0,0,1.013,2.141,0.213,3.921c0,0-0.093-3.847-0.666-3.754c-0.115,0-1.539,0.739-1.539,0.739s1.742,3.731,0.425,6.445
			c0,0,0.499-4.596-0.971-6.172l-2.099,1.244c0,0,2.038,3.852,0.656,6.996c0,0,0.355-4.822-1.096-6.7l-1.896,1.475
			c0,0,1.919,3.777,0.764,6.385c0,0-0.153-5.618-1.161-6.039c0,0-1.655,1.461-1.904,2.062c0,0,1.309,2.774,0.494,4.208
			c0,0-0.499-3.736-0.925-3.754c0,0-1.65,2.479-1.821,4.161c0.08-1.57,0.569-3.092,1.42-4.416c-0.953,0.181-1.831,0.637-2.525,1.313
			c0,0,0.255-1.752,2.932-1.91c0,0,1.364-1.877,1.729-1.993c0,0-2.663-0.222-4.277,0.495c0,0,1.42-1.655,4.768-0.925l1.849-1.525
			c0,0-3.504-0.462-4.993,0.051c0,0,1.711-1.461,5.497-0.398l2.035-1.216c0,0-2.987-0.647-4.768-0.412c0,0,1.878-1.013,5.364,0.083
			l1.456-0.651c0,0-2.192-0.43-2.83-0.5s-0.675-0.245-0.675-0.245c1.387-0.231,2.81-0.071,4.11,0.462
			C379.325,14.774,382.437,13.651,382.386,13.457z"/>
		<path opacity="0.1" fill="#5984C4" enable-background="new    " d="M357.313,3.46c0,0-14.795,9.576-5.821,18.272
			c0,0,0.957,1.997,3.136,1.627c0,0-0.519-0.758,1.095-1.558c0.572-0.288,1.107-0.644,1.596-1.059
			c0.658-0.559,1.118-1.316,1.309-2.159l0,0c0,0,2.773-4.577-0.463-12.225c0,0,0.102-2.266-0.213-2.598l-1.637,2.774
			c0,0,2.085,1.124,2.497,3.028c0,0-2.354-3.038-2.774-2.626c-0.083,0.083-0.804,1.512-0.804,1.512s3.62,1.97,4.161,4.934
			c0,0-2.313-4-4.443-4.393l-0.962,2.219c0,0,3.93,1.896,4.679,5.248c0,0-2.575-4.097-4.854-4.749l-0.647,2.312
			c0,0,3.792,1.924,4.397,4.716c0,0-3.449-4.429-4.513-4.161c0,0-0.462,2.154-0.314,2.774c0,0,2.69,1.442,2.895,3.098
			c0,0-2.617-2.714-2.955-2.487c0,0,0.14,2.973,1.004,4.443c-0.864-1.313-1.372-2.829-1.471-4.397
			c-0.66,0.709-1.097,1.597-1.257,2.552c0,0-0.833-1.563,1.234-3.273c0,0,0-2.312,0.208-2.631c0,0-2.275,1.387-3.153,2.931
			c0,0,0.166-2.173,3.306-3.551l0.601-2.335c0,0-3.106,1.692-3.989,3.001c0,0,0.513-2.192,4.188-3.579l0.925-2.187
			c0,0-2.774,1.253-4.087,2.497c0,0,0.924-1.933,4.373-3.112l0.786-1.387c0,0-2.021,0.953-2.575,1.276s-0.689,0.204-0.689,0.204
			c0.98-1.008,2.221-1.724,3.584-2.067C355.662,6.346,357.47,3.59,357.313,3.46z"/>
		<path opacity="0.1" fill="#5984C4" enable-background="new    " d="M334.796,14.617c0,0-8.845,15.258,3.098,18.924
			c0,0,1.762,1.345,3.532,0c0,0-0.8-0.435,0.273-1.882c0.372-0.516,0.683-1.075,0.925-1.664c0.334-0.797,0.4-1.682,0.189-2.52l0,0
			c0,0,0.393-5.335-5.965-10.685c0,0-0.925-2.063-1.387-2.215l-0.199,3.236c0,0,2.367,0.055,3.602,1.567
			c0,0-3.477-1.642-3.652-1.091c-0.037,0.111-0.032,1.711-0.032,1.711s4.156,0.125,6.006,2.52c0,0-3.884-2.51-5.95-1.9l0.148,2.414
			c0,0,4.359-0.093,6.546,2.557c0,0-4.161-2.483-6.473-2.03l0.462,2.354c0,0,4.254,0,6.058,2.21c0,0-5.086-2.386-5.914-1.678
			c0,0,0.56,2.136,0.985,2.63c0,0,3.051,0.065,3.985,1.447c0,0-3.564-1.234-3.764-0.874c0,0,1.475,2.584,2.913,3.5
			c-1.364-0.773-2.504-1.889-3.306-3.237c-0.267,0.931-0.253,1.92,0.036,2.844c0,0-1.451-1.013-0.388-3.477
			c0,0-1.063-2.062-1.004-2.437c0,0-1.387,2.279-1.479,4.041c0,0-0.841-2.011,1.332-4.661l-0.522-2.358c0,0-2.002,2.917-2.196,4.485
			c0,0-0.536-2.187,2.113-5.086l-0.176-2.363c0,0-1.914,2.381-2.506,4.078c0,0-0.065-2.136,2.482-4.758l0.069-1.595
			c0,0-1.387,1.762-1.715,2.312c-0.329,0.55-0.522,0.472-0.522,0.472c0.416-1.344,1.197-2.546,2.256-3.472
			C334.657,17.937,334.99,14.659,334.796,14.617z"/>
	</g>
</g>
</svg>
