<?xml version="1.0" encoding="utf-8"?>
<!-- Generator: Adobe Illustrator 15.0.0, SVG Export Plug-In . SVG Version: 6.00 Build 0)  -->
<!DOCTYPE svg PUBLIC "-//W3C//DTD SVG 1.1//EN" "http://www.w3.org/Graphics/SVG/1.1/DTD/svg11.dtd">
<svg version="1.1" id="Layer_1" xmlns="http://www.w3.org/2000/svg" xmlns:xlink="http://www.w3.org/1999/xlink" x="0px" y="0px"
	 width="50px" height="50px" viewBox="0 0 50 50" enable-background="new 0 0 50 50" xml:space="preserve">
<g>
	<path fill="#2A333E" d="M23.401,29.208c0,0.852-0.691,1.543-1.543,1.543h-11.31c-0.852,0-1.542-0.69-1.542-1.543l0,0
		c0-0.85,0.691-1.542,1.542-1.542h11.31C22.71,27.666,23.401,28.355,23.401,29.208L23.401,29.208z"/>
	<path fill="#2A333E" d="M29.742,19.555c0,0.851-0.693,1.542-1.546,1.542H10.548c-0.853,0-1.542-0.691-1.542-1.542l0,0
		c0-0.853,0.69-1.542,1.542-1.542h17.648C29.049,18.013,29.742,18.703,29.742,19.555L29.742,19.555z"/>
	<g>
		<circle fill="#5A9DD5" cx="37.052" cy="37.891" r="12.109"/>
		<circle fill="#C9E3F6" cx="37.052" cy="37.891" r="8.968"/>
		<path fill="#5A9DD5" d="M41.793,34.127c-0.766-0.499-1.793-0.279-2.291,0.488l-3.159,4.802l-2.603-1.801
			c-0.752-0.521-1.784-0.332-2.305,0.42c-0.52,0.751-0.332,1.785,0.42,2.305l3.711,2.568c0.349,0.24,0.76,0.274,1.147,0.274
			s0.966-0.001,1.602-0.736c0.336-0.391,3.965-6.028,3.965-6.028C42.779,35.651,42.561,34.625,41.793,34.127z"/>
	</g>
	<path fill="#2A333E" d="M30.363,3.561h-2.506V0.907c0-0.5-0.408-0.907-0.909-0.907H11.913c-0.501,0-0.908,0.407-0.908,0.907v2.654
		H8.096c-4.009,0-7.258,3.25-7.258,7.258v26.952c0,4.01,3.249,7.26,7.258,7.26h15.37v-3.202H8.096c-2.238,0-4.058-1.82-4.058-4.058
		V10.82c0-2.238,1.82-4.058,4.058-4.058h2.909v3.24c0,0.502,0.407,0.908,0.908,0.908h15.034c0.502,0,0.908-0.406,0.908-0.908v-3.24
		h2.508c2.239,0,4.058,1.82,4.058,4.058v13.569h3.203V10.82C37.624,6.811,34.373,3.561,30.363,3.561z"/>
	<polyline fill="#FFFFFF" points="24.654,3.201 24.654,7.709 14.206,7.709 14.206,3.201 24.654,3.201 	"/>
</g>
</svg>
